<?xml version="1.0" encoding="UTF-8" standalone="no"?>
<!DOCTYPE svg PUBLIC "-//W3C//DTD SVG 1.1//EN" "http://www.w3.org/Graphics/SVG/1.1/DTD/svg11.dtd">
<svg version="1.1" xmlns="http://www.w3.org/2000/svg" xmlns:xlink="http://www.w3.org/1999/xlink" preserveAspectRatio="xMidYMid meet" viewBox="0 0 640 640" width="640" height="640"><defs><path d="M326.77 20C339.73 20 350.23 30.5 350.23 43.46C350.23 158.77 350.23 475.63 350.23 589.54C350.23 606.36 336.59 620 319.77 620C313.77 620 322.87 620 316.03 620C301.53 620 289.77 608.24 289.77 593.74C289.77 478.99 289.77 158.77 289.77 43.46C289.77 30.5 300.27 20 313.23 20C320.63 20 319.37 20 326.77 20Z" id="aB68zajcs"></path><path d="M620 321.85C620 337.52 607.3 350.22 591.64 350.22C477.31 350.22 163.25 350.24 49.06 350.24C33.01 350.24 20 337.23 20 321.18C20 314.9 20 322.89 20 316.05C20 301.54 31.76 289.78 46.26 289.78C161.01 289.78 478.99 289.76 593.74 289.76C608.24 289.76 620 301.51 620 316.02C620 322.86 620 315.43 620 321.85Z" id="azN6UX53c"></path></defs><g><g><g><g><use xlink:href="#aB68zajcs" opacity="1" fill="#000000" fill-opacity="1"></use></g><g><use xlink:href="#azN6UX53c" opacity="1" fill="#000000" fill-opacity="1"></use></g></g></g></g></svg>