<?xml version="1.0" encoding="UTF-8" standalone="no"?>
<!DOCTYPE svg PUBLIC "-//W3C//DTD SVG 1.1//EN" "http://www.w3.org/Graphics/SVG/1.1/DTD/svg11.dtd">
<svg version="1.1" xmlns="http://www.w3.org/2000/svg" xmlns:xlink="http://www.w3.org/1999/xlink" preserveAspectRatio="xMidYMid meet" viewBox="0 0 640 640" width="640" height="640"><defs><path d="M596.91 323.95C596.93 311.12 592.06 298.27 582.31 288.52C582.31 288.52 582.31 288.52 582.31 288.52C581.64 287.85 580.95 287.2 580.25 286.57C555.68 262 359.09 65.43 334.52 40.85C315.05 21.38 283.19 21.38 263.72 40.85C263.72 40.85 263.72 40.85 263.72 40.85C244.26 60.32 244.26 92.18 263.72 111.65C274.54 122.47 328.63 176.56 425.99 273.92C226.3 273.92 115.35 273.92 93.17 273.92C65.63 273.92 43.1 296.45 43.1 323.98C43.1 323.98 43.1 323.98 43.1 323.98C43.1 351.52 65.63 374.04 93.17 374.04C115.35 374.04 226.3 374.04 425.99 374.04C328.63 471.41 274.54 525.5 263.72 536.31C244.26 555.78 244.26 587.64 263.72 607.11C263.72 607.11 263.72 607.11 263.72 607.11C283.19 626.58 315.05 626.58 334.52 607.11C359.09 582.54 555.68 385.95 580.25 361.38C580.95 360.75 581.64 360.11 582.31 359.43C582.31 359.43 582.31 359.43 582.31 359.43C592.06 349.68 596.93 336.85 596.91 324C596.91 324 596.91 324 596.91 323.98C596.91 323.98 596.91 323.98 596.91 323.98C596.91 323.97 596.91 323.96 596.91 323.95Z" id="c1oxNIcRF"></path></defs><g><g><g><use xlink:href="#c1oxNIcRF" opacity="1" fill="#000000" fill-opacity="1"></use><g><use xlink:href="#c1oxNIcRF" opacity="1" fill-opacity="0" stroke="#000000" stroke-width="1" stroke-opacity="0"></use></g></g></g></g></svg>