<?xml version="1.0" encoding="UTF-8" standalone="no"?>
<!DOCTYPE svg PUBLIC "-//W3C//DTD SVG 1.1//EN" "http://www.w3.org/Graphics/SVG/1.1/DTD/svg11.dtd">
<svg version="1.1" xmlns="http://www.w3.org/2000/svg" xmlns:xlink="http://www.w3.org/1999/xlink" preserveAspectRatio="xMidYMid meet" viewBox="0 0 640 640" width="640" height="640"><defs><path d="M159.49 284.27C159.49 284.27 159.49 284.27 159.49 284.27C160.17 283.61 160.87 282.94 161.57 282.32C186.33 257.55 384.42 59.47 409.17 34.71C428.79 15.1 460.9 15.1 480.51 34.71C480.51 34.71 480.51 34.71 480.51 34.71C500.12 54.33 500.12 86.43 480.51 106.04C469.61 116.95 356.67 221.86 258.56 319.97C261.94 319.97 261.38 320.04 258.56 320.04C356.67 418.14 469.61 523.05 480.51 533.96C500.12 553.57 500.12 585.68 480.51 605.29C480.51 605.29 480.51 605.29 480.51 605.29C460.9 624.9 428.79 624.9 409.17 605.29C384.42 580.53 186.33 382.46 161.57 357.7C160.87 357.07 160.17 356.42 159.49 355.74C159.49 355.74 159.49 355.74 159.49 355.74C149.67 345.91 144.77 332.98 144.78 320.04C144.78 320.03 144.78 320.03 144.78 320.01C144.78 320.01 144.78 320.01 144.78 320.01C144.78 319.99 144.78 319.98 144.78 319.97C144.77 307.05 149.67 294.1 159.49 284.27Z" id="a2wE6r2Cgf"></path></defs><g><g><g><use xlink:href="#a2wE6r2Cgf" opacity="1" fill="#000000" fill-opacity="1"></use><g><use xlink:href="#a2wE6r2Cgf" opacity="1" fill-opacity="0" stroke="#000000" stroke-width="1" stroke-opacity="0"></use></g></g></g></g></svg>