<?xml version="1.0" encoding="UTF-8" standalone="no"?>
<!DOCTYPE svg PUBLIC "-//W3C//DTD SVG 1.1//EN" "http://www.w3.org/Graphics/SVG/1.1/DTD/svg11.dtd">
<svg version="1.1" xmlns="http://www.w3.org/2000/svg" xmlns:xlink="http://www.w3.org/1999/xlink" preserveAspectRatio="xMidYMid meet" viewBox="0 0 640 640" width="640" height="640"><defs><path d="M480.51 284.27C480.51 284.27 480.51 284.27 480.51 284.27C479.83 283.61 479.13 282.94 478.43 282.32C453.67 257.55 255.58 59.47 230.83 34.71C211.21 15.1 179.1 15.1 159.49 34.71C159.49 34.71 159.49 34.71 159.49 34.71C139.88 54.33 139.88 86.43 159.49 106.04C170.39 116.95 283.33 221.86 381.44 319.97C378.06 319.97 378.62 320.04 381.44 320.04C283.33 418.14 170.39 523.05 159.49 533.96C139.88 553.57 139.88 585.68 159.49 605.29C159.49 605.29 159.49 605.29 159.49 605.29C179.1 624.9 211.21 624.9 230.83 605.29C255.58 580.53 453.67 382.46 478.43 357.7C479.13 357.07 479.83 356.42 480.51 355.74C480.51 355.74 480.51 355.74 480.51 355.74C490.33 345.91 495.23 332.98 495.22 320.04C495.22 320.03 495.22 320.03 495.22 320.01C495.22 320.01 495.22 320.01 495.22 320.01C495.22 319.99 495.22 319.98 495.22 319.97C495.23 307.05 490.33 294.1 480.51 284.27Z" id="a2R9hwzJEY"></path></defs><g><g><g><use xlink:href="#a2R9hwzJEY" opacity="1" fill="#000000" fill-opacity="1"></use><g><use xlink:href="#a2R9hwzJEY" opacity="1" fill-opacity="0" stroke="#000000" stroke-width="1" stroke-opacity="0"></use></g></g></g></g></svg>