<?xml version="1.0" encoding="UTF-8" standalone="no"?>
<!DOCTYPE svg PUBLIC "-//W3C//DTD SVG 1.1//EN" "http://www.w3.org/Graphics/SVG/1.1/DTD/svg11.dtd">
<svg version="1.1" xmlns="http://www.w3.org/2000/svg" xmlns:xlink="http://www.w3.org/1999/xlink" preserveAspectRatio="xMidYMid meet" viewBox="0 0 640 640" width="640" height="640"><defs><path d="M43.1 323.95C43.09 311.12 47.95 298.27 57.7 288.52C57.7 288.52 57.7 288.52 57.7 288.52C58.37 287.86 59.07 287.2 59.76 286.58C84.33 262 280.92 65.42 305.49 40.85C324.96 21.38 356.82 21.38 376.28 40.85C376.28 40.85 376.28 40.85 376.28 40.85C395.75 60.32 395.75 92.17 376.28 111.64C365.47 122.46 311.38 176.55 214.02 273.92C413.71 273.92 524.65 273.92 546.84 273.92C574.37 273.92 596.9 296.45 596.9 323.98C596.9 323.98 596.9 323.98 596.9 323.98C596.9 351.52 574.37 374.04 546.84 374.04C524.65 374.04 413.71 374.04 214.02 374.04C311.38 471.4 365.47 525.49 376.28 536.31C395.75 555.78 395.75 587.64 376.28 607.1C376.28 607.1 376.28 607.1 376.28 607.1C356.82 626.57 324.96 626.57 305.49 607.1C280.92 582.53 84.33 385.96 59.76 361.39C59.07 360.76 58.37 360.12 57.7 359.44C57.7 359.44 57.7 359.44 57.7 359.44C47.95 349.69 43.09 336.86 43.1 324.01C43.1 324 43.1 324 43.1 323.98C43.1 323.98 43.1 323.98 43.1 323.98C43.1 323.97 43.1 323.96 43.1 323.95Z" id="c3GizNUEKT"></path></defs><g><g><g><use xlink:href="#c3GizNUEKT" opacity="1" fill="#000000" fill-opacity="1"></use><g><use xlink:href="#c3GizNUEKT" opacity="1" fill-opacity="0" stroke="#000000" stroke-width="1" stroke-opacity="0"></use></g></g></g></g></svg>