<?xml version="1.0" encoding="UTF-8" standalone="no"?>
<!DOCTYPE svg PUBLIC "-//W3C//DTD SVG 1.1//EN" "http://www.w3.org/Graphics/SVG/1.1/DTD/svg11.dtd">
<svg version="1.1" xmlns="http://www.w3.org/2000/svg" xmlns:xlink="http://www.w3.org/1999/xlink" preserveAspectRatio="xMidYMid meet" viewBox="0 0 640 640" width="640" height="640"><defs><path d="M471.92 56.32L474.17 56.55L476.38 56.87L478.57 57.27L480.73 57.75L482.85 58.32L484.94 58.97L486.99 59.7L489.01 60.51L490.98 61.39L492.92 62.35L494.81 63.37L496.66 64.47L498.45 65.64L500.2 66.87L501.9 68.16L503.55 69.52L505.15 70.94L506.68 72.43L508.16 73.96L509.58 75.56L510.94 77.2L512.24 78.9L513.47 80.65L514.64 82.45L515.74 84.3L516.76 86.19L517.72 88.12L518.6 90.1L519.41 92.12L520.14 94.17L520.79 96.26L521.35 98.38L521.84 100.54L522.24 102.73L522.56 104.94L522.79 107.18L522.92 109.45L522.97 111.74L522.97 524.05L522.92 526.52L522.77 528.96L522.53 531.37L522.19 533.76L521.76 536.11L521.23 538.43L520.62 540.71L519.92 542.96L519.14 545.17L518.27 547.33L517.32 549.46L516.29 551.54L515.19 553.57L514.01 555.56L512.76 557.49L511.43 559.38L510.04 561.2L508.57 562.98L507.05 564.69L505.45 566.34L503.8 567.94L502.09 569.46L500.31 570.93L498.48 572.32L496.6 573.65L494.67 574.9L492.68 576.08L490.65 577.19L488.57 578.21L486.44 579.16L484.28 580.03L482.07 580.81L479.82 581.51L477.54 582.12L475.22 582.65L472.86 583.08L470.48 583.42L468.07 583.66L465.63 583.81L463.16 583.86L174.04 583.86L171.69 583.81L169.36 583.67L167.06 583.44L164.79 583.12L162.55 582.7L160.34 582.2L158.16 581.62L156.02 580.96L153.91 580.21L151.85 579.38L149.82 578.48L147.84 577.5L145.9 576.45L144.01 575.32L142.16 574.13L140.37 572.86L138.63 571.53L136.94 570.14L135.3 568.68L133.73 567.16L132.21 565.59L130.75 563.95L129.36 562.26L128.03 560.52L126.77 558.73L125.57 556.88L124.45 554.99L123.39 553.05L122.41 551.07L121.51 549.04L120.68 546.98L119.94 544.87L119.27 542.73L118.69 540.55L118.19 538.34L117.78 536.1L117.45 533.83L117.22 531.53L117.08 529.2L117.03 526.86L117.03 113.14L117.08 110.8L117.22 108.47L117.45 106.17L117.78 103.9L118.19 101.66L118.69 99.45L119.27 97.27L119.94 95.13L120.68 93.02L121.51 90.96L122.41 88.93L123.39 86.95L124.45 85.01L125.57 83.12L126.77 81.27L128.03 79.48L129.36 77.74L130.75 76.05L132.21 74.41L133.73 72.84L135.3 71.32L136.94 69.86L138.63 68.47L140.37 67.14L142.16 65.87L144.01 64.68L145.9 63.55L147.84 62.5L149.82 61.52L151.85 60.62L153.91 59.79L156.02 59.04L158.16 58.38L160.34 57.8L162.55 57.3L164.79 56.88L167.06 56.56L169.36 56.33L171.69 56.19L174.04 56.14L467.36 56.14L469.66 56.18L471.92 56.32ZM179.99 467.36L179.18 467.41L178.37 467.5L177.57 467.61L176.79 467.75L176.01 467.93L175.25 468.13L174.49 468.37L173.76 468.63L173.03 468.92L172.32 469.24L171.63 469.58L170.95 469.95L170.28 470.34L169.63 470.76L169 471.21L168.39 471.67L167.8 472.16L167.23 472.67L166.67 473.2L166.14 473.76L165.63 474.33L165.14 474.92L164.68 475.54L164.23 476.16L163.81 476.81L163.42 477.48L163.05 478.16L162.71 478.85L162.39 479.56L162.1 480.29L161.84 481.03L161.6 481.78L161.4 482.54L161.22 483.32L161.08 484.1L160.96 484.9L160.88 485.71L160.83 486.52L160.82 487.35L160.82 502.45L160.83 503.27L160.88 504.09L160.96 504.9L161.08 505.69L161.22 506.48L161.4 507.26L161.6 508.02L161.84 508.77L162.1 509.51L162.39 510.23L162.71 510.94L163.05 511.64L163.42 512.32L163.81 512.98L164.23 513.63L164.68 514.26L165.14 514.87L165.63 515.46L166.14 516.04L166.67 516.59L167.23 517.12L167.8 517.63L168.39 518.12L169 518.59L169.63 519.03L170.28 519.45L170.95 519.85L171.63 520.22L172.32 520.56L173.03 520.88L173.76 521.17L174.49 521.43L175.25 521.66L176.01 521.87L176.79 522.04L177.57 522.19L178.37 522.3L179.18 522.38L179.99 522.43L180.82 522.45L459.18 522.45L460.01 522.43L460.82 522.38L461.63 522.3L462.43 522.19L463.21 522.04L463.99 521.87L464.75 521.66L465.51 521.43L466.24 521.17L466.97 520.88L467.68 520.56L468.37 520.22L469.05 519.85L469.72 519.45L470.37 519.03L471 518.59L471.61 518.12L472.2 517.63L472.77 517.12L473.33 516.59L473.86 516.04L474.37 515.46L474.86 514.87L475.32 514.26L475.77 513.63L476.19 512.98L476.58 512.32L476.95 511.64L477.29 510.94L477.61 510.23L477.9 509.51L478.16 508.77L478.4 508.02L478.6 507.26L478.78 506.48L478.92 505.69L479.04 504.9L479.12 504.09L479.17 503.27L479.18 502.45L479.18 487.35L479.17 486.52L479.12 485.71L479.04 484.9L478.92 484.1L478.78 483.32L478.6 482.54L478.4 481.78L478.16 481.03L477.9 480.29L477.61 479.56L477.29 478.85L476.95 478.16L476.58 477.48L476.19 476.81L475.77 476.16L475.32 475.54L474.86 474.92L474.37 474.33L473.86 473.76L473.33 473.2L472.77 472.67L472.2 472.16L471.61 471.67L471 471.21L470.37 470.76L469.72 470.34L469.05 469.95L468.37 469.58L467.68 469.24L466.97 468.92L466.24 468.63L465.51 468.37L464.75 468.13L463.99 467.93L463.21 467.75L462.43 467.61L461.63 467.5L460.82 467.41L460.01 467.36L459.18 467.35L180.82 467.35L179.99 467.36ZM179.99 289.4L179.18 289.45L178.37 289.54L177.57 289.65L176.79 289.79L176.01 289.97L175.25 290.17L174.49 290.41L173.76 290.67L173.03 290.96L172.32 291.28L171.63 291.62L170.95 291.99L170.28 292.38L169.63 292.8L169 293.25L168.39 293.71L167.8 294.2L167.23 294.71L166.67 295.25L166.14 295.8L165.63 296.37L165.14 296.96L164.68 297.58L164.23 298.21L163.81 298.85L163.42 299.52L163.05 300.2L162.71 300.89L162.39 301.6L162.1 302.33L161.84 303.07L161.6 303.82L161.4 304.58L161.22 305.36L161.08 306.14L160.96 306.94L160.88 307.75L160.83 308.56L160.82 309.39L160.82 324.49L160.83 325.31L160.88 326.13L160.96 326.94L161.08 327.73L161.22 328.52L161.4 329.3L161.6 330.06L161.84 330.81L162.1 331.55L162.39 332.27L162.71 332.99L163.05 333.68L163.42 334.36L163.81 335.02L164.23 335.67L164.68 336.3L165.14 336.91L165.63 337.51L166.14 338.08L166.67 338.63L167.23 339.16L167.8 339.68L168.39 340.16L169 340.63L169.63 341.07L170.28 341.49L170.95 341.89L171.63 342.26L172.32 342.6L173.03 342.92L173.76 343.21L174.49 343.47L175.25 343.7L176.01 343.91L176.79 344.08L177.57 344.23L178.37 344.34L179.18 344.42L179.99 344.47L180.82 344.49L459.18 344.49L460.01 344.47L460.82 344.42L461.63 344.34L462.43 344.23L463.21 344.08L463.99 343.91L464.75 343.7L465.51 343.47L466.24 343.21L466.97 342.92L467.68 342.6L468.37 342.26L469.05 341.89L469.72 341.49L470.37 341.07L471 340.63L471.61 340.16L472.2 339.68L472.77 339.16L473.33 338.63L473.86 338.08L474.37 337.51L474.86 336.91L475.32 336.3L475.77 335.67L476.19 335.02L476.58 334.36L476.95 333.68L477.29 332.99L477.61 332.27L477.9 331.55L478.16 330.81L478.4 330.06L478.6 329.3L478.78 328.52L478.92 327.73L479.04 326.94L479.12 326.13L479.17 325.31L479.18 324.49L479.18 309.39L479.17 308.56L479.12 307.75L479.04 306.94L478.92 306.14L478.78 305.36L478.6 304.58L478.4 303.82L478.16 303.07L477.9 302.33L477.61 301.6L477.29 300.89L476.95 300.2L476.58 299.52L476.19 298.85L475.77 298.21L475.32 297.58L474.86 296.96L474.37 296.37L473.86 295.8L473.33 295.25L472.77 294.71L472.2 294.2L471.61 293.71L471 293.25L470.37 292.8L469.72 292.38L469.05 291.99L468.37 291.62L467.68 291.28L466.97 290.96L466.24 290.67L465.51 290.41L464.75 290.17L463.99 289.97L463.21 289.79L462.43 289.65L461.63 289.54L460.82 289.45L460.01 289.4L459.18 289.39L180.82 289.39L179.99 289.4ZM179.99 120.83L179.18 120.88L178.37 120.96L177.57 121.08L176.79 121.22L176.01 121.4L175.25 121.6L174.49 121.84L173.76 122.1L173.03 122.39L172.32 122.71L171.63 123.05L170.95 123.42L170.28 123.81L169.63 124.23L169 124.68L168.39 125.14L167.8 125.63L167.23 126.14L166.67 126.67L166.14 127.23L165.63 127.8L165.14 128.39L164.68 129L164.23 129.63L163.81 130.28L163.42 130.95L163.05 131.63L162.71 132.32L162.39 133.03L162.1 133.76L161.84 134.49L161.6 135.25L161.4 136.01L161.22 136.79L161.08 137.57L160.96 138.37L160.88 139.18L160.83 139.99L160.82 140.82L160.82 155.92L160.83 156.74L160.88 157.56L160.96 158.37L161.08 159.16L161.22 159.95L161.4 160.72L161.6 161.49L161.84 162.24L162.1 162.98L162.39 163.7L162.71 164.41L163.05 165.11L163.42 165.79L163.81 166.45L164.23 167.1L164.68 167.73L165.14 168.34L165.63 168.93L166.14 169.51L166.67 170.06L167.23 170.59L167.8 171.1L168.39 171.59L169 172.06L169.63 172.5L170.28 172.92L170.95 173.32L171.63 173.69L172.32 174.03L173.03 174.35L173.76 174.64L174.49 174.9L175.25 175.13L176.01 175.34L176.79 175.51L177.57 175.66L178.37 175.77L179.18 175.85L179.99 175.9L180.82 175.92L459.18 175.92L460.01 175.9L460.82 175.85L461.63 175.77L462.43 175.66L463.21 175.51L463.99 175.34L464.75 175.13L465.51 174.9L466.24 174.64L466.97 174.35L467.68 174.03L468.37 173.69L469.05 173.32L469.72 172.92L470.37 172.5L471 172.06L471.61 171.59L472.2 171.1L472.77 170.59L473.33 170.06L473.86 169.51L474.37 168.93L474.86 168.34L475.32 167.73L475.77 167.1L476.19 166.45L476.58 165.79L476.95 165.11L477.29 164.41L477.61 163.7L477.9 162.98L478.16 162.24L478.4 161.49L478.6 160.72L478.78 159.95L478.92 159.16L479.04 158.37L479.12 157.56L479.17 156.74L479.18 155.92L479.18 140.82L479.17 139.99L479.12 139.18L479.04 138.37L478.92 137.57L478.78 136.79L478.6 136.01L478.4 135.25L478.16 134.49L477.9 133.76L477.61 133.03L477.29 132.32L476.95 131.63L476.58 130.95L476.19 130.28L475.77 129.63L475.32 129L474.86 128.39L474.37 127.8L473.86 127.23L473.33 126.67L472.77 126.14L472.2 125.63L471.61 125.14L471 124.68L470.37 124.23L469.72 123.81L469.05 123.42L468.37 123.05L467.68 122.71L466.97 122.39L466.24 122.1L465.51 121.84L464.75 121.6L463.99 121.4L463.21 121.22L462.43 121.08L461.63 120.96L460.82 120.88L460.01 120.83L459.18 120.82L180.82 120.82L179.99 120.83Z" id="bBDYkk56u"></path><path d="M90.86 100.61C97.94 100.61 103.67 106.35 103.67 113.42C103.67 198.62 103.67 441.38 103.67 526.58C103.67 533.65 97.94 539.39 90.86 539.39C85.06 539.39 80.45 539.39 74.65 539.39C67.57 539.39 61.84 533.65 61.84 526.58C61.84 441.38 61.84 198.62 61.84 113.42C61.84 106.35 67.57 100.61 74.65 100.61C80.45 100.61 85.06 100.61 90.86 100.61Z" id="lf8OP2OHE"></path></defs><g><g><g><use xlink:href="#bBDYkk56u" opacity="1" fill="#000000" fill-opacity="1"></use></g><g><use xlink:href="#lf8OP2OHE" opacity="1" fill="#000000" fill-opacity="1"></use></g></g></g></svg>