<?xml version="1.0" encoding="UTF-8" standalone="no"?>
<!DOCTYPE svg PUBLIC "-//W3C//DTD SVG 1.1//EN" "http://www.w3.org/Graphics/SVG/1.1/DTD/svg11.dtd">
<svg version="1.1" xmlns="http://www.w3.org/2000/svg" xmlns:xlink="http://www.w3.org/1999/xlink" preserveAspectRatio="xMidYMid meet" viewBox="0 0 640 640" width="640" height="640"><defs><path d="" id="b1pEoe3CHU"></path><path d="M91.9 287.85C83.71 280.7 71.58 281.48 64.43 289.68C60.48 294.17 28.92 330.12 24.97 334.62C17.82 342.81 18.61 354.94 26.8 362.09C48.2 380.88 219.42 531.2 240.82 549.99C249.02 557.15 261.15 556.36 268.3 548.17C302.92 508.71 579.89 193.09 614.51 153.64C621.66 145.44 620.88 133.32 612.68 126.16C608.51 122.49 575.14 93.1 570.97 89.42C562.78 82.27 550.65 83.05 543.5 91.25C515.39 123.25 290.5 379.29 262.38 411.29C255.23 419.73 242.86 420.52 234.67 413.37C206.11 388.27 106.18 300.4 91.9 287.85Z" id="a1fDHuEZJX"></path></defs><g><g><g><use xlink:href="#b1pEoe3CHU" opacity="1" fill="#000000" fill-opacity="0"></use><g><use xlink:href="#b1pEoe3CHU" opacity="1" fill-opacity="0" stroke="#3b3c3a" stroke-width="60" stroke-opacity="1"></use></g></g><g><use xlink:href="#a1fDHuEZJX" opacity="1" fill="#000000" fill-opacity="1"></use></g></g></g></svg>