<?xml version="1.0" encoding="UTF-8" standalone="no"?>
<!DOCTYPE svg PUBLIC "-//W3C//DTD SVG 1.1//EN" "http://www.w3.org/Graphics/SVG/1.1/DTD/svg11.dtd">
<svg version="1.1" xmlns="http://www.w3.org/2000/svg" xmlns:xlink="http://www.w3.org/1999/xlink"
    preserveAspectRatio="xMidYMid meet" viewBox="0 0 640 640" width="640" height="640">
    <defs>
        <path d="" id="cmYXPildt"></path>
        <path
            d="M131.77 345.1C120.79 356.08 114.51 371.76 114.51 387.45C114.51 402.98 114.51 527.22 114.51 542.75C114.51 556.86 125.49 567.84 139.61 567.84C149.96 567.84 232.79 567.84 243.14 567.84C257.26 567.84 268.24 556.86 268.24 542.75C268.24 527.37 268.24 404.39 268.24 389.02C268.24 374.9 279.22 363.92 293.33 363.92C299.45 363.92 348.39 363.92 354.51 363.92C368.63 363.92 379.61 374.9 379.61 389.02C379.61 404.39 379.61 527.37 379.61 542.75C379.61 556.86 390.59 567.84 404.71 567.84C414.43 567.84 492.24 567.84 501.96 567.84C516.08 567.84 527.06 556.86 527.06 542.75C527.06 526.75 527.06 398.75 527.06 382.75C527.06 367.06 520.79 352.94 509.81 341.96C492.86 324.86 357.33 188.08 340.39 170.98C329.41 161.57 313.73 161.57 304.31 170.98C269.81 205.8 149.02 327.69 131.77 345.1ZM437.65 473.73C423.53 473.73 412.55 462.75 412.55 448.63C412.55 445.33 412.55 418.98 412.55 415.69C412.55 401.57 423.53 390.59 437.65 390.59C440.94 390.59 467.3 390.59 470.59 390.59C484.71 390.59 495.69 401.57 495.69 415.69C495.69 418.98 495.69 445.33 495.69 448.63C495.69 462.75 484.71 473.73 470.59 473.73C464 473.73 440.94 473.73 437.65 473.73Z"
            id="c1hl950l9n"></path>
        <path
            d="M309.73 62.27C316.24 55.76 326.79 55.76 333.3 62.27C335.66 64.63 330.94 59.91 333.3 62.27C339.81 68.78 339.81 79.33 333.3 85.84C281.37 137.78 137.35 281.79 85.41 333.73C78.91 340.24 68.35 340.24 61.84 333.73C59.49 331.37 64.2 336.09 61.84 333.73C55.34 327.22 55.34 316.67 61.84 310.16C113.78 258.22 257.8 114.21 309.73 62.27Z"
            id="bClU2hi4c"></path>
        <path
            d="M311.42 86.34C304.91 79.83 304.91 69.28 311.42 62.77C313.78 60.42 309.07 65.13 311.42 62.77C317.93 56.26 328.48 56.26 334.99 62.77C386.12 113.9 527.72 255.5 578.85 306.63C585.36 313.14 585.36 323.69 578.85 330.2C576.49 332.55 581.2 327.84 578.85 330.2C572.34 336.71 561.79 336.71 555.28 330.2C504.15 279.07 362.55 137.47 311.42 86.34Z"
            id="fqEoouhWl"></path>
        <path
            d="M328.71 101.65C328.71 102.07 328.37 102.41 327.95 102.41C327.53 102.41 327.19 102.07 327.19 101.65C327.19 101.24 327.53 100.9 327.95 100.9C328.37 100.9 328.71 101.24 328.71 101.65Z"
            id="bkKCxL8CX"></path>
        <path
            d="M338.79 106.62C338.79 112.73 331.6 102.81 325.08 101.65C323.45 101.37 321.53 101.65 320 101.65C312.37 101.65 306.12 113.25 306.12 105.62C306.12 97.98 314.32 91.79 321.96 91.79C329.59 91.79 338.79 98.98 338.79 106.62Z"
            id="a1K4vTAYfo"></path>
    </defs>
    <g>
        <g>
            <g>
                <use xlink:href="#cmYXPildt" opacity="1" fill="#000000" fill-opacity="0"></use>
                <g>
                    <use xlink:href="#cmYXPildt" opacity="1" fill-opacity="0" stroke="#3b3c3a" stroke-width="60"
                        stroke-opacity="1"></use>
                </g>
            </g>
            <g>
                <use xlink:href="#c1hl950l9n" opacity="1" fill="#000000" fill-opacity="1"></use>
                <g>
                    <use xlink:href="#c1hl950l9n" opacity="1" fill-opacity="0" stroke="#000000" stroke-width="1"
                        stroke-opacity="0"></use>
                </g>
            </g>
            <g>
                <g>
                    <use xlink:href="#bClU2hi4c" opacity="1" fill="#000000" fill-opacity="1"></use>
                </g>
                <g>
                    <use xlink:href="#fqEoouhWl" opacity="1" fill="#000000" fill-opacity="1"></use>
                </g>
            </g>
            <g>
                <use xlink:href="#bkKCxL8CX" opacity="1" fill="#000000" fill-opacity="1"></use>
            </g>
            <g>
                <use xlink:href="#a1K4vTAYfo" opacity="1" fill="#000000" fill-opacity="1"></use>
            </g>
        </g>
    </g>
</svg>