<?xml version="1.0" encoding="UTF-8" standalone="no"?>
<!DOCTYPE svg PUBLIC "-//W3C//DTD SVG 1.1//EN" "http://www.w3.org/Graphics/SVG/1.1/DTD/svg11.dtd">
<svg version="1.1" xmlns="http://www.w3.org/2000/svg" xmlns:xlink="http://www.w3.org/1999/xlink" preserveAspectRatio="xMidYMid meet" viewBox="0 0 640 640" width="640" height="640"><defs><path d="M136.96 24.91C82.16 39.02 39.03 82.14 24.92 136.95C23.05 144.31 21.13 155.56 20.47 163.2C20.19 166.85 20 222.08 20 320.05C20 484.51 19.91 477.66 22.58 492.33C29.94 532.42 52.86 568.14 86.24 591.62C109.59 608.03 135.84 617.36 164.86 619.56C174.89 620.31 475.75 619.99 481.29 619.19C508.29 615.34 528.59 608.03 548.98 594.86C558.03 589 564.12 584.08 572.84 575.5C587.84 560.87 598.53 545.64 606.69 527.07C612.97 512.91 616.58 499.55 619.2 481.27C620 475.74 620.33 174.87 619.58 164.84C617.47 137.41 609.03 112.43 594.22 90.07C570.64 54.44 534.12 30.25 492.35 22.56C477.68 19.89 484.71 19.98 319.13 20.03C235.45 20.08 164.86 20.31 162.28 20.5C155.53 21.11 143.99 23.08 136.96 24.91ZM565.9 150.54C569.14 163.39 568.95 151.9 568.95 320.24C568.95 454.13 568.86 472.97 568.25 477.85C565.9 495.62 559.15 512.45 548.42 526.93C543.92 533.02 533.04 543.9 526.95 548.4C512.46 559.14 495.63 565.89 477.86 568.23C472.99 568.84 454.14 568.93 320.26 568.93C151.92 568.93 163.4 569.12 150.56 565.89C108.23 555.2 76.91 519.48 72.04 476.16C71.66 472.97 71.57 426.23 71.66 317.43C71.67 307.15 71.72 255.74 71.8 163.2C72.59 159.32 73.03 157.16 73.11 156.73C80.71 118.71 107.05 88.61 143.15 76.71C149.34 74.69 159.32 72.44 164.86 71.88C169.12 71.41 472.89 71.6 476.6 72.02C520.05 77.36 555.26 108.35 565.9 150.54Z" id="blpfUAtQp"></path><path d="M452.5 146.13C451.42 150.49 451.52 158.09 452.69 162.68C457.85 182.93 480.02 193.9 499.33 185.79C504.54 183.64 511.19 178.29 514.15 173.93C522.35 161.84 522.26 145.9 513.87 134.13C509.69 128.27 503.98 124.05 496.9 121.57C493.38 120.35 491.93 120.16 487.15 120.02C483.49 119.88 480.54 120.07 478.71 120.49C465.68 123.54 455.69 133.24 452.5 146.13Z" id="cqH1HJBsA"></path><path d="M214.83 214.81C191.2 238.39 176.72 268.02 172.03 302.19C170.9 310.49 170.9 330.13 172.07 338.52C175.4 362.95 182.9 383.06 196.03 402.75C216.47 433.45 246.99 455.39 282.15 464.63C304.18 470.39 328.18 471.05 350.45 466.46C379.14 460.55 404.83 446.67 425.74 425.72C449.5 401.95 463.94 372.61 468.49 338.76C469.52 330.93 469.66 311.1 468.72 303.6C464.32 268.72 449.78 238.77 425.5 214.53C402.06 191.14 372.11 176.51 338.54 172.1C333.2 171.35 315.38 170.84 310.41 171.21C273.57 174.12 240.38 189.22 214.83 214.81ZM385.19 239.38C390.48 243.64 399.2 252.64 403.28 258.13C413.78 272.19 420.2 287.57 423.02 305.24C424.14 312.46 424.14 328.07 423.02 335.43C415.89 380.95 380.97 415.87 335.45 423C328.27 424.13 312.05 424.13 305.12 423C270.8 417.47 242.25 396.51 227.2 365.81C211.64 334.12 213.23 296.9 231.47 266.71C239.77 253.02 253.03 239.75 266.72 231.45C285.43 220.16 307.46 215.05 329.17 216.92C349.23 218.61 369.15 226.62 385.19 239.38Z" id="adVzC47mX"></path></defs><g><g><g><use xlink:href="#blpfUAtQp" opacity="1" fill="#000000" fill-opacity="1"></use><g><use xlink:href="#blpfUAtQp" opacity="1" fill-opacity="0" stroke="#000000" stroke-width="1" stroke-opacity="0"></use></g></g><g><use xlink:href="#cqH1HJBsA" opacity="1" fill="#000000" fill-opacity="1"></use><g><use xlink:href="#cqH1HJBsA" opacity="1" fill-opacity="0" stroke="#000000" stroke-width="1" stroke-opacity="0"></use></g></g><g><use xlink:href="#adVzC47mX" opacity="1" fill="#000000" fill-opacity="1"></use><g><use xlink:href="#adVzC47mX" opacity="1" fill-opacity="0" stroke="#000000" stroke-width="1" stroke-opacity="0"></use></g></g></g></g></svg>