<?xml version="1.0" encoding="UTF-8" standalone="no"?>
<!DOCTYPE svg PUBLIC "-//W3C//DTD SVG 1.1//EN" "http://www.w3.org/Graphics/SVG/1.1/DTD/svg11.dtd">
<svg version="1.1" xmlns="http://www.w3.org/2000/svg" xmlns:xlink="http://www.w3.org/1999/xlink" preserveAspectRatio="xMidYMid meet" viewBox="0 0 640 640" width="640" height="640"><defs><path d="M330.17 351.34C346.68 355.5 341.9 354.3 374.36 362.48C396.92 368.17 412.72 388.45 412.72 411.72C412.72 422.73 412.72 450.27 412.72 494.33C372.45 494.33 50.27 494.33 10 494.33C10 450.61 10 423.28 10 412.35C10 388.73 26.08 368.13 49 362.39C81.61 354.22 77.14 355.35 93.92 351.14C171.48 331.73 252.64 331.79 330.17 351.34Z" id="cgaPz7hsN"></path><path d="M211.36 309.58C166.13 309.58 129.4 272.86 129.4 227.63C129.4 182.39 166.13 145.67 211.36 145.67C256.6 145.67 293.32 182.39 293.32 227.63C293.32 272.86 256.6 309.58 211.36 309.58Z" id="a5THOfjzU"></path><path d="M406.06 347.57C396.6 343.15 368.92 338.09 365.4 336.63C357.9 333.55 397.33 334.58 398.13 334.49C455.79 327.99 497.99 337.07 554.59 351.34C609.62 365.22 624.35 368.93 598.78 362.48C621.33 368.17 637.14 388.45 637.14 411.72C637.14 422.73 637.14 450.27 637.14 494.33C618.61 494.33 470.35 494.33 451.82 494.33C451.82 448.3 451.82 419.54 451.82 408.03C451.82 399.91 449.7 391.93 445.67 384.89C441.19 377.07 437.16 371.71 433.58 368.8C429.52 365.49 416.73 352.57 406.06 347.57Z" id="a2AWGEmbo"></path><path d="M442.31 309.58C397.07 309.58 360.35 272.86 360.35 227.63C360.35 182.39 397.07 145.67 442.31 145.67C487.54 145.67 524.27 182.39 524.27 227.63C524.27 272.86 487.54 309.58 442.31 309.58Z" id="eeaf3xZWV"></path></defs><g><g><g><use xlink:href="#cgaPz7hsN" opacity="1" fill="#000000" fill-opacity="1"></use><g><use xlink:href="#cgaPz7hsN" opacity="1" fill-opacity="0" stroke="#000000" stroke-width="1" stroke-opacity="0"></use></g></g><g><use xlink:href="#a5THOfjzU" opacity="1" fill="#000000" fill-opacity="1"></use><g><use xlink:href="#a5THOfjzU" opacity="1" fill-opacity="0" stroke="#000000" stroke-width="1" stroke-opacity="0"></use></g></g><g><use xlink:href="#a2AWGEmbo" opacity="1" fill="#000000" fill-opacity="1"></use><g><use xlink:href="#a2AWGEmbo" opacity="1" fill-opacity="0" stroke="#000000" stroke-width="1" stroke-opacity="0"></use></g></g><g><use xlink:href="#eeaf3xZWV" opacity="1" fill="#000000" fill-opacity="1"></use><g><use xlink:href="#eeaf3xZWV" opacity="1" fill-opacity="0" stroke="#000000" stroke-width="1" stroke-opacity="0"></use></g></g></g></g></svg>