<?xml version="1.0" encoding="UTF-8" standalone="no"?>
<!DOCTYPE svg PUBLIC "-//W3C//DTD SVG 1.1//EN" "http://www.w3.org/Graphics/SVG/1.1/DTD/svg11.dtd">
<svg version="1.1" xmlns="http://www.w3.org/2000/svg" xmlns:xlink="http://www.w3.org/1999/xlink" preserveAspectRatio="xMidYMid meet" viewBox="0 0 640 640" width="640" height="640"><defs><path d="M562.85 383.29C596.46 391.77 620 421.98 620 456.65C620 473.05 620 514.09 620 579.73C560 579.73 80 579.73 20 579.73C20 514.59 20 473.87 20 457.59C20 422.4 43.96 391.71 78.1 383.16C126.69 370.98 120.03 372.67 145.03 366.39C260.58 337.48 381.5 337.57 497.01 366.69C521.61 372.89 514.49 371.1 562.85 383.29Z" id="a5Fzh59bBY"></path><path d="M562.85 383.29C596.46 391.77 620 421.98 620 456.65C620 473.05 620 514.09 620 579.73C560 579.73 80 579.73 20 579.73C20 514.59 20 473.87 20 457.59C20 422.4 43.96 391.71 78.1 383.16C126.69 370.98 120.03 372.67 145.03 366.39C260.58 337.48 381.5 337.57 497.01 366.69C521.61 372.89 514.49 371.1 562.85 383.29Z" id="d4Fn6DbHwm"></path><path d="M197.89 182.38C197.89 114.98 252.61 60.27 320 60.27C387.4 60.27 442.11 114.98 442.11 182.38C442.11 249.77 387.4 304.48 320 304.48C252.61 304.48 197.89 249.77 197.89 182.38Z" id="k3EGuurmXh"></path><path d="M197.89 182.38C197.89 114.98 252.61 60.27 320 60.27C387.4 60.27 442.11 114.98 442.11 182.38C442.11 249.77 387.4 304.48 320 304.48C252.61 304.48 197.89 249.77 197.89 182.38Z" id="cI79ChsP1"></path></defs><g><g><g><g><use xlink:href="#a5Fzh59bBY" opacity="1" fill="#000000" fill-opacity="1"></use><g><use xlink:href="#a5Fzh59bBY" opacity="1" fill-opacity="0" stroke="#000000" stroke-width="1" stroke-opacity="0"></use></g></g><g><use xlink:href="#d4Fn6DbHwm" opacity="1" fill="#000000" fill-opacity="0"></use><g><use xlink:href="#d4Fn6DbHwm" opacity="1" fill-opacity="0" stroke="#000000" stroke-width="1" stroke-opacity="0"></use></g></g><g><use xlink:href="#k3EGuurmXh" opacity="1" fill="#000000" fill-opacity="1"></use><g><use xlink:href="#k3EGuurmXh" opacity="1" fill-opacity="0" stroke="#000000" stroke-width="1" stroke-opacity="0"></use></g></g><g><use xlink:href="#cI79ChsP1" opacity="1" fill="#000000" fill-opacity="0"></use><g><use xlink:href="#cI79ChsP1" opacity="1" fill-opacity="0" stroke="#000000" stroke-width="1" stroke-opacity="0"></use></g></g></g></g></g></svg>