<?xml version="1.0" encoding="utf-8"?>
<!-- Generator: Adobe Illustrator 23.0.1, SVG Export Plug-In . SVG Version: 6.00 Build 0)  -->
<svg version="1.1" id="Слой_1" xmlns="http://www.w3.org/2000/svg" xmlns:xlink="http://www.w3.org/1999/xlink" x="0px" y="0px"
	 viewBox="0 0 40.5 30.5" style="enable-background:new 0 0 40.5 30.5;" xml:space="preserve">
<style type="text/css">
	.st0{fill:#inherit;}
</style>
<g>
	<path class="st0" d="M8.6,25.7l-2.7-0.3c0.3,0.2,0.7,0.3,1.1,0.3H8.6z"/>
	<path class="st0" d="M35.4,29.3H5.1c-0.7,0-1.4-0.2-2-0.5c0.5,0.5,1.2,0.8,2,0.8h30.2c2.3,0,4.2-1.9,4.2-4.2l0,0
		C39.4,27.6,37.6,29.3,35.4,29.3z"/>
</g>
<path class="st0" d="M0.9,8.7v16.2C0.9,27.2,2.7,29,5,29h30.2c2.3,0,4.2-1.9,4.2-4.2V8.7H0.9z M11.5,23.2c0,1.2-1,2.2-2.2,2.2H6.9
	c-1.2,0-2.2-1-2.2-2.2v-2.4c0-1.2,1-2.2,2.2-2.2h2.4c1.2,0,2.2,1,2.2,2.2V23.2z M11.5,15.3c0,1.2-1,2.2-2.2,2.2H6.9
	c-1.2,0-2.2-1-2.2-2.2v-2.4c0-1.2,1-2.2,2.2-2.2h2.4c1.2,0,2.2,1,2.2,2.2V15.3z M19.5,23.2c0,1.2-1,2.2-2.2,2.2H15
	c-1.2,0-2.2-1-2.2-2.2v-2.4c0-1.2,1-2.2,2.2-2.2h2.4c1.2,0,2.2,1,2.2,2.2V23.2z M19.5,15.3c0,1.2-1,2.2-2.2,2.2H15
	c-1.2,0-2.2-1-2.2-2.2v-2.4c0-1.2,1-2.2,2.2-2.2h2.4c1.2,0,2.2,1,2.2,2.2V15.3z M27.6,23.2c0,1.2-1,2.2-2.2,2.2H23
	c-1.2,0-2.2-1-2.2-2.2v-2.4c0-1.2,1-2.2,2.2-2.2h2.4c1.2,0,2.2,1,2.2,2.2V23.2z M27.6,15.3c0,1.2-1,2.2-2.2,2.2H23
	c-1.2,0-2.2-1-2.2-2.2v-2.4c0-1.2,1-2.2,2.2-2.2h2.4c1.2,0,2.2,1,2.2,2.2V15.3z M35.6,23.2c0,1.2-1,2.2-2.2,2.2h-2.4
	c-1.2,0-2.2-1-2.2-2.2v-2.4c0-1.2,1-2.2,2.2-2.2h2.4c1.2,0,2.2,1,2.2,2.2V23.2z M35.6,15.3c0,1.2-1,2.2-2.2,2.2h-2.4
	c-1.2,0-2.2-1-2.2-2.2v-2.4c0-1.2,1-2.2,2.2-2.2h2.4c1.2,0,2.2,1,2.2,2.2V15.3z"/>
<g>
	<rect x="0.9" y="8.7" class="st0" width="38.6" height="0.2"/>
	<path class="st0" d="M35.8,2.5H4.5c-2,0-3.6,1.6-3.6,3.6v2.2h38.6V6.1C39.5,4.1,37.8,2.5,35.8,2.5z"/>
</g>
<path class="st0" d="M5.5,5.4C5.5,5.4,5.5,5.4,5.5,5.4L5.5,5.4C5.4,5.4,5.4,5.4,5.5,5.4"/>
<path class="st0" d="M13.1,5.4C13.1,5.4,13.1,5.4,13.1,5.4L13.1,5.4C13,5.4,13,5.4,13.1,5.4"/>
<path class="st0" d="M20.7,5.4C20.7,5.4,20.7,5.4,20.7,5.4L20.7,5.4C20.6,5.4,20.6,5.4,20.7,5.4"/>
<path class="st0" d="M28.3,5.4C28.3,5.4,28.3,5.4,28.3,5.4L28.3,5.4C28.2,5.4,28.2,5.4,28.3,5.4"/>
<path class="st0" d="M35.9,5.4C35.9,5.4,35.9,5.4,35.9,5.4L35.9,5.4C35.9,5.4,35.8,5.4,35.9,5.4"/>
<path class="st0" d="M5,5.4L5,5.4C4.8,5.4,4.6,5.2,4.6,5V1.5C4.6,1.2,4.8,1,5,1l0,0c0.2,0,0.4,0.2,0.4,0.4V5C5.5,5.2,5.3,5.4,5,5.4z
	"/>
<path class="st0" d="M35.3,5.4L35.3,5.4c-0.2,0-0.4-0.2-0.4-0.4V1.5C34.9,1.2,35,1,35.3,1l0,0c0.2,0,0.4,0.2,0.4,0.4V5
	C35.7,5.2,35.5,5.4,35.3,5.4z"/>
<path class="st0" d="M27.7,5.4L27.7,5.4c-0.2,0-0.4-0.2-0.4-0.4V1.5c0-0.2,0.2-0.4,0.4-0.4l0,0c0.2,0,0.4,0.2,0.4,0.4V5
	C28.2,5.2,28,5.4,27.7,5.4z"/>
<path class="st0" d="M20.2,5.4L20.2,5.4c-0.2,0-0.4-0.2-0.4-0.4V1.5c0-0.2,0.2-0.4,0.4-0.4l0,0c0.2,0,0.4,0.2,0.4,0.4V5
	C20.6,5.2,20.4,5.4,20.2,5.4z"/>
<path class="st0" d="M12.6,5.4L12.6,5.4c-0.2,0-0.4-0.2-0.4-0.4V1.5c0-0.2,0.2-0.4,0.4-0.4l0,0C12.8,1,13,1.2,13,1.5V5
	C13,5.2,12.8,5.4,12.6,5.4z"/>
</svg>
