<?xml version="1.0" encoding="UTF-8" standalone="no"?>
<!DOCTYPE svg PUBLIC "-//W3C//DTD SVG 1.1//EN" "http://www.w3.org/Graphics/SVG/1.1/DTD/svg11.dtd">
<svg version="1.1" xmlns="http://www.w3.org/2000/svg" xmlns:xlink="http://www.w3.org/1999/xlink" preserveAspectRatio="xMidYMid meet" viewBox="0 0 640 640" width="640" height="640"><defs><path d="M32.75 283.07C14.97 290 16.05 315.51 34.34 320.91C43.64 323.65 90.12 337.38 173.79 362.09C205.01 461.16 222.36 516.21 225.83 527.21C231.26 544.46 253.12 549.69 265.77 536.77C270.58 531.87 294.61 507.33 337.87 463.16C422.74 525.46 469.9 560.07 479.33 566.99C496.64 579.7 521.29 570.26 525.69 549.24C535.06 504.45 610.01 146.11 619.38 101.32C623.97 79.37 602.38 61.09 581.49 69.23C471.74 112 87.62 261.69 32.75 283.07ZM257.8 394.04C255.26 396.29 253.65 399.4 253.27 402.77C252.29 411.49 244.44 481.28 243.46 490C243.14 492.85 239.15 493.22 238.3 490.49C234.27 477.48 201.97 373.4 197.93 360.39C196.08 354.43 198.49 347.98 203.79 344.69C233.89 326.03 474.69 176.68 504.79 158.01C511.71 153.72 518.8 163.24 512.7 168.64C461.72 213.72 283.29 371.5 257.8 394.04Z" id="eej9C9rGX"></path></defs><g><g><g><use xlink:href="#eej9C9rGX" opacity="1" fill="#000000" fill-opacity="1"></use><g><use xlink:href="#eej9C9rGX" opacity="1" fill-opacity="0" stroke="#000000" stroke-width="1" stroke-opacity="0"></use></g></g></g></g></svg>