<?xml version="1.0" encoding="utf-8"?>
<!-- Generator: Adobe Illustrator 22.0.1, SVG Export Plug-In . SVG Version: 6.00 Build 0)  -->
<svg version="1.1" id="Шар_1" xmlns="http://www.w3.org/2000/svg" xmlns:xlink="http://www.w3.org/1999/xlink" x="0px" y="0px"
	 viewBox="0 0 640 640" style="enable-background:new 0 0 640 640;" xml:space="preserve">
<style type="text/css">
	.st0{fill:url(#e1D1NsnwLr_1_);stroke:#FFFFFF;stroke-width:24;stroke-miterlimit:10;}
	.st1{fill:#003342;}
	.st2{fill:#FEFEFE;}
	.st3{fill-opacity:0;stroke:#000000;stroke-opacity:0;}
	.st4{fill:#83A0CB;}
	.st5{fill:#022935;}
	.st6{fill:#00232E;}
	.st7{fill:#E0E8F1;}
</style>
<g>
	<g>
		
			<linearGradient id="e1D1NsnwLr_1_" gradientUnits="userSpaceOnUse" x1="331.8586" y1="257.3109" x2="172.6286" y2="562.1109" gradientTransform="matrix(1 0 0 1 0 40)">
			<stop  offset="0" style="stop-color:#2999D1"/>
			<stop  offset="1" style="stop-color:#0C2974"/>
		</linearGradient>
		<path id="e1D1NsnwLr" class="st0" d="M625.1,320c0,168-136.7,304.5-305.1,304.5S14.9,488,14.9,320S151.6,15.6,320,15.6
			S625.1,152,625.1,320z"/>
	</g>
</g>
<g>
	<g>
		<path id="h1Zo9U9Sdv" class="st1" d="M386.1,167.5h44.8v21h-44.8V167.5z"/>
	</g>
</g>
<g>
	<g>
		<path id="a3hcmtzDfO" class="st2" d="M125.2,161.7c0.7-2.2,2.2-3.3,4.3-3.6c4-0.7,8,0.4,11.9,0.9c8,1.1,15.9,2.2,23.9,3.3
			c7.6,1.1,15.4,2.2,23,3.1c6.9,0.9,13.8,1.8,20.6,2.9c0.7,0.2,1.3,0.2,2,0.2c4.3-0.2,8.7,0.6,13.2,1.1c23.9,3.3,47.8,6.5,71.6,9.8
			c4.7,0.7,9.4,1.3,13.9,2.4c3.1,0.7,5.1,2.7,5.4,5.8c0.5,3.6,0.9,7.1,0.9,10.7c0,84.1,0,168.2,0,252.3c0,2.4-0.2,4.5-0.5,6.9
			c-0.9,6-4.5,8.5-10.5,8c-8.3-0.7-16.6-2.2-25.1-3.3c-22.1-2.9-44.1-6-66.2-8.9c-21.7-2.9-43.4-5.6-65.1-8.7
			c-5.2-0.7-10.5-1.4-15.9-2.2c-5.6-0.7-9.1-4.5-9.4-10.1c0-0.9,0-1.8,0-2.7c0-85,0-170,0-255c0-2.4-0.4-4.3,0.9-6.1
			C124.9,166,124.3,163.9,125.2,161.7z"/>
	</g>
	<g>
		<g>
			<path id="a3hcmtzDfO_1_" class="st3" d="M125.2,161.7c0.7-2.2,2.2-3.3,4.3-3.6c4-0.7,8,0.4,11.9,0.9c8,1.1,15.9,2.2,23.9,3.3
				c7.6,1.1,15.4,2.2,23,3.1c6.9,0.9,13.8,1.8,20.6,2.9c0.7,0.2,1.3,0.2,2,0.2c4.3-0.2,8.7,0.6,13.2,1.1c23.9,3.3,47.8,6.5,71.6,9.8
				c4.7,0.7,9.4,1.3,13.9,2.4c3.1,0.7,5.1,2.7,5.4,5.8c0.5,3.6,0.9,7.1,0.9,10.7c0,84.1,0,168.2,0,252.3c0,2.4-0.2,4.5-0.5,6.9
				c-0.9,6-4.5,8.5-10.5,8c-8.3-0.7-16.6-2.2-25.1-3.3c-22.1-2.9-44.1-6-66.2-8.9c-21.7-2.9-43.4-5.6-65.1-8.7
				c-5.2-0.7-10.5-1.4-15.9-2.2c-5.6-0.7-9.1-4.5-9.4-10.1c0-0.9,0-1.8,0-2.7c0-85,0-170,0-255c0-2.4-0.4-4.3,0.9-6.1
				C124.9,166,124.3,163.9,125.2,161.7z"/>
		</g>
	</g>
</g>
<g>
	<g>
		<g>
			<path id="dh1MtVpbq" class="st4" d="M320,169.6h196.6v297.2H320V169.6z"/>
		</g>
	</g>
	<g>
		<g>
			<path id="ilxyVbnZr" class="st4" d="M516.6,268.4c0,0.7,0,1.6,0,2.4c-0.6,0.5-1.2,0-1.6-0.4c-4.3-3.4-8.6-6.9-12.9-10.3
				c-4.7-4-9.6-7.8-14.3-11.6c-5.1-4.2-10-8.1-15.1-12.3c-6.8-5.4-13.5-10.9-20.3-16.3c-6.1-4.9-12.1-9.8-18.2-14.7
				c-6.5-5.2-13.1-10.7-19.7-15.9c-5.9-4.7-11.7-9.4-17.6-14.3c-1.4-1.1-2.7-2.2-4.3-3.1c-0.6-0.4-1.4-0.5-0.4-1.3
				c3.5-0.9,7-1.1,10.8-1.6c6.3-0.9,12.7-1.6,19-2.3c16-2.2,32-4,48.1-6.2c1.2-0.2,2.5-0.4,3.7,0c4.7-0.5,9.4-1.3,14.1-1.6
				c5.9-0.5,11.5-1.8,17.4-1.8c6.3,0,9.4,2.5,10.5,7.8c0.2,0.9,0.6,1.4,0.8,2.2C516.6,200.9,516.6,234.8,516.6,268.4z"/>
		</g>
		<g>
			<g>
				<path id="ilxyVbnZr_1_" class="st3" d="M516.6,268.4c0,0.7,0,1.6,0,2.4c-0.6,0.5-1.2,0-1.6-0.4c-4.3-3.4-8.6-6.9-12.9-10.3
					c-4.7-4-9.6-7.8-14.3-11.6c-5.1-4.2-10-8.1-15.1-12.3c-6.8-5.4-13.5-10.9-20.3-16.3c-6.1-4.9-12.1-9.8-18.2-14.7
					c-6.5-5.2-13.1-10.7-19.7-15.9c-5.9-4.7-11.7-9.4-17.6-14.3c-1.4-1.1-2.7-2.2-4.3-3.1c-0.6-0.4-1.4-0.5-0.4-1.3
					c3.5-0.9,7-1.1,10.8-1.6c6.3-0.9,12.7-1.6,19-2.3c16-2.2,32-4,48.1-6.2c1.2-0.2,2.5-0.4,3.7,0c4.7-0.5,9.4-1.3,14.1-1.6
					c5.9-0.5,11.5-1.8,17.4-1.8c6.3,0,9.4,2.5,10.5,7.8c0.2,0.9,0.6,1.4,0.8,2.2C516.6,200.9,516.6,234.8,516.6,268.4z"/>
			</g>
		</g>
	</g>
</g>
<g>
	<g>
		<path id="b1DrIy9ma" class="st1" d="M123.8,259c-0.2,57.3,0,114.5,0,171.8c0,2.2,0.5,4,1.4,5.8c1.4,3.1,4,4.5,7.4,5.1
			c10.1,1.3,20.1,2.7,30,4c10.8,1.4,21.7,2.9,32.6,4.2c9.6,1.1,19.2,2.7,28.8,4c10.7,1.4,21.2,2.7,31.8,4.2
			c11,1.4,22.1,2.9,33.1,4.5c5.6,0.9,11.2,1.4,16.6,2.2c5.1,0.5,8.5-2.4,9.2-7.2c0.4-2.5,0.5-4.9,0.5-7.4c0-27.7,0-55.4,0-83
			c0-16.6,0-33.3,0-49.7c0-14.3,0-28.8,0-43c0-19.5,0-39.1,0-58.6c0-6.5,0-12.8,0-19.4c0-3.1-0.4-6.3-0.9-9.4
			c-0.6-2.3-2.2-4.2-4.5-4.7c-9-2-18.1-2.9-27.3-4.2c-7.8-1.1-15.4-2.2-23.1-3.3c-7.8-1.1-15.6-2-23.3-3.1
			c-7.8-1.1-15.6-2.2-23.3-3.3c-0.5,0-1.3-0.2-1.8-0.2c0.7-0.5,1.6-0.4,2.5-0.4c31.1,0,62.4,0,93.5,0c9.6,0,19.2,0,28.8,0
			c0.7,0,1.4-0.2,2.2,0.4c0.2,0.9-0.2,1.6-0.7,2.2c-3.3,4.5-5.8,9.4-9.8,13.4c-1.4,1.4-2,3.3-2.2,5.4c-0.5,11.6-0.4,23.3-0.4,34.9
			c0,75.8,0,151.8,0,227.5c0,2.2,0.2,4.3,0.4,6.5c0.5,3.6,2.7,5.6,6.5,5.4c2.4-0.2,4.7,0,7.1-0.5c0.4,0,0.7,0,1.1,0.2
			c1.3,0.9,2.7,0.2,4,0c7.6-1.1,15.2-2.2,22.8-3.1c8-1.1,15.7-2.2,23.7-3.3c5.8-0.7,11.6-1.6,17.2-2.4c6.2-0.9,12.3-1.6,18.5-2.3
			c4.7-0.5,9.4-1.3,13.9-2c5.4-0.9,10.9-1.3,16.3-2.2c6.1-0.9,12.3-1.6,18.3-2.5s11.9-1.6,17.9-2.4c3.8-0.6,7.8-1.1,11.6-1.6
			c2.5-0.4,4.7-1.3,6.7-2.9c0.2-0.2,0.4-0.4,0.5-0.4c3.4-2.5,4.5-6.3,4.5-10.3c0-7.6,0.5-15,0.4-22.6c0-40.7,0-81.4,0-122.3
			c0-1.1,0.2-2.4-0.5-3.4c-0.6-2.7-0.2-5.6-0.2-8.3c0-0.7,0-1.5,0-2.2c0-32.7,0-65.5,0-98c0-1.1-0.4-2.4,0.5-3.4
			c2.9-0.2,6,0,8.7,0.9c3.1,0.9,5.4,2.9,7.2,5.4c1.5,3.3,1.8,6.7,2,10.1c0.7,20.3,0.2,40.7,0.4,60.9c0,5.1,0.2,10.1,0.2,15.2
			c0,5.6,0,11.2-0.2,16.8c-0.2,4.9,0.2,9.8,0.2,14.6c0,4.7-0.2,9.4-0.2,14.1c0,3.8,0.2,7.8,0.2,11.6c0,3.8,0,7.6-0.2,11.4
			c0,3.1,0,6.1,0,9.2c0,4-0.2,8-0.2,11.8c0,3.1,0,6,0,9c0,3.1,0,6.1,0,9.1c0,3.1,0,6.3,0.2,9.4c0,2.9,0,5.8,0,8.7c0,3.3,0,6.3,0,9.6
			c0,3.1-0.2,6-0.2,9c0,3.8,0,7.6,0,11.4c0,4,0,8,0,11.9c0,3.8,0.2,7.8,0.2,11.6c0,3.1-0.2,6-0.2,9c0,3.1,0,6.2,0,9.2
			c0.2,3.6,0.6,7.6-1.3,11c-1.6,3.4-4.5,5.8-8.3,7c-1.5,0.6-3.1,0.6-4.5,0.6c-51,0-102,0-152.8,0c-1.6,0-2.4,0.4-2.7,2.2
			c-0.5,3.4-0.4,7.1-2.4,10.3c-2.5,4.3-6.3,6.7-11.2,6.7c-4,0-8,0-11.9-0.2c-6.5-0.2-12.8,0.4-19.4,0.2c-3.6-0.2-7.2-0.2-11-0.2
			c-3.1,0-6.3,0.4-9.4,0.2c-4.2,0-8.3-0.5-12.5-1.1c-4.5-0.5-7.2-3.4-8.5-7.6c-0.9-2.9-1.6-6-1.6-9c0-1.6-0.9-1.6-2.2-1.6
			c-11.4,0-22.8,0-34.2,0c-38.5,0-76.9,0-115.4-0.2c-4,0-8,0.2-11.8-0.7c-1.4-0.4-2.9-0.9-4.3-1.5c-4-2.9-5.1-7.2-5.6-11.8
			c-0.6-5.3-0.2-10.7-0.2-15.9c-0.2-6.2,0-12.3-0.2-18.6c0-10.3,0-20.8,0-31.1c0-8.9,0-17.9,0-26.8c0-9.4,0.2-18.6,0.2-28
			c-0.2-9.6,0-19.2,0-28.8c0-8.7,0-17.5-0.2-26.2c0-10.5,0-21,0-31.6c0.2-23,0.2-45.9,0.4-68.9c0-3.1-0.2-6.1,0.5-9
			c1.1-4.5,3.6-8,8.1-9.6c4.5,0.4,8.5,0.7,12.5,0.7C123.4,198.4,124,228.6,123.8,259z"/>
	</g>
	<g>
		<g>
			<path id="b1DrIy9ma_1_" class="st3" d="M123.8,259c-0.2,57.3,0,114.5,0,171.8c0,2.2,0.5,4,1.4,5.8c1.4,3.1,4,4.5,7.4,5.1
				c10.1,1.3,20.1,2.7,30,4c10.8,1.4,21.7,2.9,32.6,4.2c9.6,1.1,19.2,2.7,28.8,4c10.7,1.4,21.2,2.7,31.8,4.2
				c11,1.4,22.1,2.9,33.1,4.5c5.6,0.9,11.2,1.4,16.6,2.2c5.1,0.5,8.5-2.4,9.2-7.2c0.4-2.5,0.5-4.9,0.5-7.4c0-27.7,0-55.4,0-83
				c0-16.6,0-33.3,0-49.7c0-14.3,0-28.8,0-43c0-19.5,0-39.1,0-58.6c0-6.5,0-12.8,0-19.4c0-3.1-0.4-6.3-0.9-9.4
				c-0.6-2.3-2.2-4.2-4.5-4.7c-9-2-18.1-2.9-27.3-4.2c-7.8-1.1-15.4-2.2-23.1-3.3c-7.8-1.1-15.6-2-23.3-3.1
				c-7.8-1.1-15.6-2.2-23.3-3.3c-0.5,0-1.3-0.2-1.8-0.2c0.7-0.5,1.6-0.4,2.5-0.4c31.1,0,62.4,0,93.5,0c9.6,0,19.2,0,28.8,0
				c0.7,0,1.4-0.2,2.2,0.4c0.2,0.9-0.2,1.6-0.7,2.2c-3.3,4.5-5.8,9.4-9.8,13.4c-1.4,1.4-2,3.3-2.2,5.4c-0.5,11.6-0.4,23.3-0.4,34.9
				c0,75.8,0,151.8,0,227.5c0,2.2,0.2,4.3,0.4,6.5c0.5,3.6,2.7,5.6,6.5,5.4c2.4-0.2,4.7,0,7.1-0.5c0.4,0,0.7,0,1.1,0.2
				c1.3,0.9,2.7,0.2,4,0c7.6-1.1,15.2-2.2,22.8-3.1c8-1.1,15.7-2.2,23.7-3.3c5.8-0.7,11.6-1.6,17.2-2.4c6.2-0.9,12.3-1.6,18.5-2.3
				c4.7-0.5,9.4-1.3,13.9-2c5.4-0.9,10.9-1.3,16.3-2.2c6.1-0.9,12.3-1.6,18.3-2.5s11.9-1.6,17.9-2.4c3.8-0.6,7.8-1.1,11.6-1.6
				c2.5-0.4,4.7-1.3,6.7-2.9c0.2-0.2,0.4-0.4,0.5-0.4c3.4-2.5,4.5-6.3,4.5-10.3c0-7.6,0.5-15,0.4-22.6c0-40.7,0-81.4,0-122.3
				c0-1.1,0.2-2.4-0.5-3.4c-0.6-2.7-0.2-5.6-0.2-8.3c0-0.7,0-1.5,0-2.2c0-32.7,0-65.5,0-98c0-1.1-0.4-2.4,0.5-3.4
				c2.9-0.2,6,0,8.7,0.9c3.1,0.9,5.4,2.9,7.2,5.4c1.5,3.3,1.8,6.7,2,10.1c0.7,20.3,0.2,40.7,0.4,60.9c0,5.1,0.2,10.1,0.2,15.2
				c0,5.6,0,11.2-0.2,16.8c-0.2,4.9,0.2,9.8,0.2,14.6c0,4.7-0.2,9.4-0.2,14.1c0,3.8,0.2,7.8,0.2,11.6c0,3.8,0,7.6-0.2,11.4
				c0,3.1,0,6.1,0,9.2c0,4-0.2,8-0.2,11.8c0,3.1,0,6,0,9c0,3.1,0,6.1,0,9.1c0,3.1,0,6.3,0.2,9.4c0,2.9,0,5.8,0,8.7
				c0,3.3,0,6.3,0,9.6c0,3.1-0.2,6-0.2,9c0,3.8,0,7.6,0,11.4c0,4,0,8,0,11.9c0,3.8,0.2,7.8,0.2,11.6c0,3.1-0.2,6-0.2,9
				c0,3.1,0,6.2,0,9.2c0.2,3.6,0.6,7.6-1.3,11c-1.6,3.4-4.5,5.8-8.3,7c-1.5,0.6-3.1,0.6-4.5,0.6c-51,0-102,0-152.8,0
				c-1.6,0-2.4,0.4-2.7,2.2c-0.5,3.4-0.4,7.1-2.4,10.3c-2.5,4.3-6.3,6.7-11.2,6.7c-4,0-8,0-11.9-0.2c-6.5-0.2-12.8,0.4-19.4,0.2
				c-3.6-0.2-7.2-0.2-11-0.2c-3.1,0-6.3,0.4-9.4,0.2c-4.2,0-8.3-0.5-12.5-1.1c-4.5-0.5-7.2-3.4-8.5-7.6c-0.9-2.9-1.6-6-1.6-9
				c0-1.6-0.9-1.6-2.2-1.6c-11.4,0-22.8,0-34.2,0c-38.5,0-76.9,0-115.4-0.2c-4,0-8,0.2-11.8-0.7c-1.4-0.4-2.9-0.9-4.3-1.5
				c-4-2.9-5.1-7.2-5.6-11.8c-0.6-5.3-0.2-10.7-0.2-15.9c-0.2-6.2,0-12.3-0.2-18.6c0-10.3,0-20.8,0-31.1c0-8.9,0-17.9,0-26.8
				c0-9.4,0.2-18.6,0.2-28c-0.2-9.6,0-19.2,0-28.8c0-8.7,0-17.5-0.2-26.2c0-10.5,0-21,0-31.6c0.2-23,0.2-45.9,0.4-68.9
				c0-3.1-0.2-6.1,0.5-9c1.1-4.5,3.6-8,8.1-9.6c4.5,0.4,8.5,0.7,12.5,0.7C123.4,198.4,124,228.6,123.8,259z"/>
		</g>
	</g>
</g>
<g>
	<g>
		<path id="a2ggRIV3n2" class="st2" d="M329.6,464.3c-2.5-0.4-4.5-3.1-4.7-5.8c-0.2-2-0.2-4-0.2-6c0-28.6,0-57.2,0-85.7
			c0-16.5,0-33.1,0-49.5c0-14.5,0-28.9,0-43.4c0-20.3,0-40.3,0-60.6c0-5.8,0-11.6,0-17.5c0-2.5,0.2-5.1,0.4-7.6
			c0.2-1.4,0.7-2.9,1.8-4c4-4,6.5-9,9.8-13.4c0.5-0.7,1.1-1.6,1.4-2.4c4.2-6,8.3-12.1,12.5-18.1c9-13.1,22.6-32.8,40.5-59
			c4.7,189.1,5.3,287,2,293.5C388,394.6,332.9,464.6,329.6,464.3z"/>
	</g>
	<g>
		<g>
			<path id="a2ggRIV3n2_1_" class="st3" d="M329.6,464.3c-2.5-0.4-4.5-3.1-4.7-5.8c-0.2-2-0.2-4-0.2-6c0-28.6,0-57.2,0-85.7
				c0-16.5,0-33.1,0-49.5c0-14.5,0-28.9,0-43.4c0-20.3,0-40.3,0-60.6c0-5.8,0-11.6,0-17.5c0-2.5,0.2-5.1,0.4-7.6
				c0.2-1.4,0.7-2.9,1.8-4c4-4,6.5-9,9.8-13.4c0.5-0.7,1.1-1.6,1.4-2.4c4.2-6,8.3-12.1,12.5-18.1c9-13.1,22.6-32.8,40.5-59
				c4.7,189.1,5.3,287,2,293.5C388,394.6,332.9,464.6,329.6,464.3z"/>
		</g>
	</g>
</g>
<g>
	<g>
		<path id="bjbgVgVin" class="st5" d="M361.6,461c7.8-1.1,15.6-2,23.3-3.1c7.8-1.1,15.6-2.2,23.3-3.3c6.7-0.9,13.4-1.8,20.3-2.7
			c11.6-1.4,23.1-2.9,34.9-4.5c8.7-1.1,17.5-2.4,26.2-3.6c4.9-0.7,9.8-1.3,14.6-2c2.5-0.4,4.7-1.6,7.1-2.7c-2,2.4-4.7,2.9-7.4,3.4
			c-7.1,1.1-13.9,2-21,2.9c-5.8,0.7-11.8,1.6-17.5,2.3c-5.3,0.7-10.5,1.6-15.7,2.2c-4.5,0.4-8.9,1.1-13.4,1.6
			c-4.9,0.5-9.8,1.4-14.6,2c-4.3,0.5-8.5,1.1-12.8,1.6c-3.8,0.6-7.6,1.1-11.6,1.6c-4.3,0.5-8.9,1.1-13.2,1.8
			c-4.9,0.7-9.8,1.5-14.6,2c-4.3,0.5-8.5,1.1-12.8,1.6c-4,0.5-7.8,1.1-11.8,1.6c-1.3,0.2-2.7,0.4-4,0.5c-0.4,0.2-1.3,0.5-0.9-0.4
			C347.1,463,354.4,462.1,361.6,461z"/>
	</g>
	<g>
		<g>
			<path id="bjbgVgVin_1_" class="st3" d="M361.6,461c7.8-1.1,15.6-2,23.3-3.1c7.8-1.1,15.6-2.2,23.3-3.3c6.7-0.9,13.4-1.8,20.3-2.7
				c11.6-1.4,23.1-2.9,34.9-4.5c8.7-1.1,17.5-2.4,26.2-3.6c4.9-0.7,9.8-1.3,14.6-2c2.5-0.4,4.7-1.6,7.1-2.7c-2,2.4-4.7,2.9-7.4,3.4
				c-7.1,1.1-13.9,2-21,2.9c-5.8,0.7-11.8,1.6-17.5,2.3c-5.3,0.7-10.5,1.6-15.7,2.2c-4.5,0.4-8.9,1.1-13.4,1.6
				c-4.9,0.5-9.8,1.4-14.6,2c-4.3,0.5-8.5,1.1-12.8,1.6c-3.8,0.6-7.6,1.1-11.6,1.6c-4.3,0.5-8.9,1.1-13.2,1.8
				c-4.9,0.7-9.8,1.5-14.6,2c-4.3,0.5-8.5,1.1-12.8,1.6c-4,0.5-7.8,1.1-11.8,1.6c-1.3,0.2-2.7,0.4-4,0.5c-0.4,0.2-1.3,0.5-0.9-0.4
				C347.1,463,354.4,462.1,361.6,461z"/>
		</g>
	</g>
</g>
<g>
	<g>
		<path id="g4R5Ndcc3o" class="st6" d="M513.2,436.8c2-2.4,2.2-5.3,2.4-8.1c0.9-48.7,0.2-97.3,0.4-146.1c0-0.7,0-1.6,0-2.3
			c1.1,0.5,0.7,1.4,0.7,2.3c0,15.4,0,30.8,0,46.1c0,28.9,0.2,57.7-0.2,86.6c0,5.8,0.2,11.6-0.7,17.4c-0.4,2.9-1.8,5.2-4.7,6.7
			C511.7,438.4,512.5,437.7,513.2,436.8z"/>
	</g>
	<g>
		<g>
			<path id="g4R5Ndcc3o_1_" class="st3" d="M513.2,436.8c2-2.4,2.2-5.3,2.4-8.1c0.9-48.7,0.2-97.3,0.4-146.1c0-0.7,0-1.6,0-2.3
				c1.1,0.5,0.7,1.4,0.7,2.3c0,15.4,0,30.8,0,46.1c0,28.9,0.2,57.7-0.2,86.6c0,5.8,0.2,11.6-0.7,17.4c-0.4,2.9-1.8,5.2-4.7,6.7
				C511.7,438.4,512.5,437.7,513.2,436.8z"/>
		</g>
	</g>
</g>
<g>
	<g>
		<path id="a21QjLwiNu" class="st7" d="M327.3,262.4h-0.2c0-1.8,0-3.6,0-5.4c0,0.2,0,0.2,0.2,0.2C327.3,259,327.3,260.8,327.3,262.4
			z"/>
	</g>
	<g>
		<g>
			<path id="a21QjLwiNu_1_" class="st3" d="M327.3,262.4h-0.2c0-1.8,0-3.6,0-5.4c0,0.2,0,0.2,0.2,0.2
				C327.3,259,327.3,260.8,327.3,262.4z"/>
		</g>
	</g>
</g>
<g>
	<g>
		<g>
			<path id="a1BhTdcA3w" class="st3" d="M0,0"/>
		</g>
	</g>
</g>
<g>
	<g>
		<g>
			<path id="csen0Dhh" class="st3" d="M0,0"/>
		</g>
	</g>
</g>
<g>
	<g>
		<g>
			<path id="b6ldqe347" class="st3" d="M0,0"/>
		</g>
	</g>
</g>
<g>
	<g>
		<g>
			<path id="eCtElMDli" class="st3" d="M0,0"/>
		</g>
	</g>
</g>
<g>
	<g>
		<g>
			<path id="errw7SnW2" class="st3" d="M0,0"/>
		</g>
	</g>
</g>
<g>
	<g>
		<g>
			<path id="bCjHddd6W" class="st3" d="M0,0"/>
		</g>
	</g>
</g>
</svg>
