<?xml version="1.0" encoding="utf-8"?>
<!-- Generator: Adobe Illustrator 22.0.1, SVG Export Plug-In . SVG Version: 6.00 Build 0)  -->
<svg version="1.1" id="Шар_1" xmlns="http://www.w3.org/2000/svg" xmlns:xlink="http://www.w3.org/1999/xlink" x="0px" y="0px"
	 viewBox="0 0 800 800" style="enable-background:new 0 0 800 800;" xml:space="preserve">
<style type="text/css">
	.st0{fill:url(#e1D1NsnwLr_1_);stroke:#FFFFFF;stroke-width:24;stroke-miterlimit:10;}
	.st1{fill:#725145;}
	.st2{fill-opacity:0;stroke:#000000;stroke-opacity:0;}
	.st3{fill:#BF9586;}
	.st4{fill:#F2F2F2;}
	.st5{fill:#382721;}
	.st6{fill:#241816;}
</style>
<g>
	<g>
		
			<linearGradient id="e1D1NsnwLr_1_" gradientUnits="userSpaceOnUse" x1="415.0593" y1="464.7355" x2="213.7972" y2="79.4773" gradientTransform="matrix(1 0 0 -1 0 840)">
			<stop  offset="0" style="stop-color:#8B4FB0"/>
			<stop  offset="1" style="stop-color:#5E00A9"/>
		</linearGradient>
		<path id="e1D1NsnwLr" class="st0" d="M785.1,403.9c0,212.4-172.5,385.1-385,385.1s-385-172.6-385-385.1S187.6,19,400.1,19
			S785.1,191.5,785.1,403.9z"/>
	</g>
</g>
<g>
	<g>
		<path id="bedQsqgvr" class="st1" d="M297.8,557.4c0-218.2,0-339.5,0-363.7c0-9.1,7.4-16.5,16.5-16.5c17.1,0,154.2,0,171.3,0
			c9.1,0,16.5,7.4,16.5,16.5c0,24.2,0,145.5,0.1,363.7l0,0H297.8z"/>
	</g>
	<g>
		<g>
			<path id="bedQsqgvr_1_" class="st2" d="M297.8,557.4c0-218.2,0-339.5,0-363.7c0-9.1,7.4-16.5,16.5-16.5c17.1,0,154.2,0,171.3,0
				c9.1,0,16.5,7.4,16.5,16.5c0,24.2,0,145.5,0.1,363.7l0,0H297.8z"/>
		</g>
	</g>
</g>
<g>
	<g>
		<path id="d5lvU0fKE" class="st3" d="M509,308.2c-3.8,0-6.8,3.6-6.8,8c0,16.1,0,96.5,0,241.2c77.9,0,121.1,0,129.8,0
			c3.1,0,5.5-2.9,5.5-6.5c0-23.4,0-211,0-234.4c0.1-4.6-3.1-8.3-6.9-8.3C606.3,308.2,521.2,308.2,509,308.2z"/>
	</g>
	<g>
		<g>
			<path id="d5lvU0fKE_1_" class="st2" d="M509,308.2c-3.8,0-6.8,3.6-6.8,8c0,16.1,0,96.5,0,241.2c77.9,0,121.1,0,129.8,0
				c3.1,0,5.5-2.9,5.5-6.5c0-23.4,0-211,0-234.4c0.1-4.6-3.1-8.3-6.9-8.3C606.3,308.2,521.2,308.2,509,308.2z"/>
		</g>
	</g>
</g>
<g>
	<path id="a6sRtFiEmN" class="st3" d="M162.5,316.3c0,23.4,0,211,0,234.4c0,3.7,2.5,6.6,5.6,6.6c8.7,0,51.9,0,129.7,0
		c0-144.7,0-225,0-241.1c0-4.4-3-7.9-6.8-7.9c-8.1,0-48.6,0-121.6-0.1l0,0C164.8,310.6,162.5,313.3,162.5,316.3z"/>
</g>
<path id="a6sRtFiEmN_1_" class="st2" d="M162.5,316.3c0,23.4,0,211,0,234.4c0,3.7,2.5,6.6,5.6,6.6c8.7,0,51.9,0,129.7,0
	c0-144.7,0-225,0-241.1c0-4.4-3-7.9-6.8-7.9c-8.1,0-48.6,0-121.6-0.1l0,0C164.8,310.6,162.5,313.3,162.5,316.3z"/>
<g>
	<g>
		<path id="c1AkoBVPUW" class="st4" d="M340.6,256.3c-3.2,0-5.9-2.6-5.9-5.9c0-3.4,0-30.6,0-34c0-3.2,2.6-5.9,5.9-5.9
			c3.4,0,30.6,0,34,0c3.2,0,5.9,2.6,5.9,5.9c0,3.4,0,30.6,0,34c0,3.3-2.6,5.9-5.9,5.9C367.8,256.3,344,256.3,340.6,256.3z"/>
	</g>
	<g>
		<g>
			<path id="c1AkoBVPUW_1_" class="st2" d="M340.6,256.3c-3.2,0-5.9-2.6-5.9-5.9c0-3.4,0-30.6,0-34c0-3.2,2.6-5.9,5.9-5.9
				c3.4,0,30.6,0,34,0c3.2,0,5.9,2.6,5.9,5.9c0,3.4,0,30.6,0,34c0,3.3-2.6,5.9-5.9,5.9C367.8,256.3,344,256.3,340.6,256.3z"/>
		</g>
	</g>
</g>
<g>
	<g>
		<path id="d64kq1JWwn" class="st5" d="M333.1,261.6c-0.5,0-0.9-0.4-0.9-0.9c0-1,0-8.8,0-9.8c0-0.5,0.4-0.9,0.9-0.9
			c4.9,0,44.1,0,49,0c0.5,0,0.9,0.4,0.9,0.9c0,1,0,8.8,0,9.8c0,0.5-0.4,0.9-0.9,0.9C372.3,261.6,338,261.6,333.1,261.6z"/>
	</g>
	<g>
		<g>
			<path id="d64kq1JWwn_1_" class="st2" d="M333.1,261.6c-0.5,0-0.9-0.4-0.9-0.9c0-1,0-8.8,0-9.8c0-0.5,0.4-0.9,0.9-0.9
				c4.9,0,44.1,0,49,0c0.5,0,0.9,0.4,0.9,0.9c0,1,0,8.8,0,9.8c0,0.5-0.4,0.9-0.9,0.9C372.3,261.6,338,261.6,333.1,261.6z"/>
		</g>
	</g>
</g>
<g>
	<g>
		<path id="aFxujqnVZ" class="st4" d="M424.1,256.3c-3.2,0-5.9-2.6-5.9-5.9c0-3.4,0-30.6,0-34c0-3.2,2.6-5.9,5.9-5.9
			c3.4,0,30.6,0,34,0c3.2,0,5.9,2.6,5.9,5.9c0,3.4,0,30.6,0,34c-0.1,3.3-2.7,5.9-5.9,5.9C451.3,256.3,427.5,256.3,424.1,256.3z"/>
	</g>
	<g>
		<g>
			<path id="aFxujqnVZ_1_" class="st2" d="M424.1,256.3c-3.2,0-5.9-2.6-5.9-5.9c0-3.4,0-30.6,0-34c0-3.2,2.6-5.9,5.9-5.9
				c3.4,0,30.6,0,34,0c3.2,0,5.9,2.6,5.9,5.9c0,3.4,0,30.6,0,34c-0.1,3.3-2.7,5.9-5.9,5.9C451.3,256.3,427.5,256.3,424.1,256.3z"/>
		</g>
	</g>
</g>
<g>
	<g>
		<path id="b3QWfrso0P" class="st5" d="M416.6,261.6c-0.5,0-0.9-0.4-0.9-0.9c0-1,0-8.8,0-9.8c0-0.5,0.4-0.9,0.9-0.9
			c4.9,0,44.1,0,49,0c0.5,0,0.9,0.4,0.9,0.9c0,1,0,8.8,0,9.8c0,0.5-0.4,0.9-0.9,0.9C455.8,261.6,421.5,261.6,416.6,261.6z"/>
	</g>
	<g>
		<g>
			<path id="b3QWfrso0P_1_" class="st2" d="M416.6,261.6c-0.5,0-0.9-0.4-0.9-0.9c0-1,0-8.8,0-9.8c0-0.5,0.4-0.9,0.9-0.9
				c4.9,0,44.1,0,49,0c0.5,0,0.9,0.4,0.9,0.9c0,1,0,8.8,0,9.8c0,0.5-0.4,0.9-0.9,0.9C455.8,261.6,421.5,261.6,416.6,261.6z"/>
		</g>
	</g>
</g>
<g>
	<g>
		<path id="ckqzD9fXM" class="st4" d="M340.6,334.4c-3.2,0-5.9-2.6-5.9-5.9c0-3.4,0-30.6,0-34c0-3.2,2.6-5.9,5.9-5.9
			c3.4,0,30.6,0,34,0c3.2,0,5.9,2.6,5.9,5.9c0,3.4,0,30.6,0,34c0,3.3-2.6,5.9-5.9,5.9C367.8,334.4,344,334.4,340.6,334.4z"/>
	</g>
	<g>
		<g>
			<path id="ckqzD9fXM_1_" class="st2" d="M340.6,334.4c-3.2,0-5.9-2.6-5.9-5.9c0-3.4,0-30.6,0-34c0-3.2,2.6-5.9,5.9-5.9
				c3.4,0,30.6,0,34,0c3.2,0,5.9,2.6,5.9,5.9c0,3.4,0,30.6,0,34c0,3.3-2.6,5.9-5.9,5.9C367.8,334.4,344,334.4,340.6,334.4z"/>
		</g>
	</g>
</g>
<g>
	<g>
		<path id="bqwIy70vI" class="st5" d="M333.1,339.8c-0.5,0-0.9-0.4-0.9-0.9c0-1,0-8.8,0-9.8c0-0.5,0.4-0.9,0.9-0.9
			c4.9,0,44.1,0,49,0c0.5,0,0.9,0.4,0.9,0.9c0,1,0,8.8,0,9.8c0,0.5-0.4,0.9-0.9,0.9C372.3,339.8,338,339.8,333.1,339.8z"/>
	</g>
	<g>
		<g>
			<path id="bqwIy70vI_1_" class="st2" d="M333.1,339.8c-0.5,0-0.9-0.4-0.9-0.9c0-1,0-8.8,0-9.8c0-0.5,0.4-0.9,0.9-0.9
				c4.9,0,44.1,0,49,0c0.5,0,0.9,0.4,0.9,0.9c0,1,0,8.8,0,9.8c0,0.5-0.4,0.9-0.9,0.9C372.3,339.8,338,339.8,333.1,339.8z"/>
		</g>
	</g>
</g>
<g>
	<g>
		<path id="a4Lf8VkGxF" class="st4" d="M424.1,334.4c-3.2,0-5.9-2.6-5.9-5.9c0-3.4,0-30.6,0-34c0-3.2,2.6-5.9,5.9-5.9
			c3.4,0,30.6,0,34,0c3.2,0,5.9,2.6,5.9,5.9c0,3.4,0,30.6,0,34c-0.1,3.3-2.7,5.9-5.9,5.9C451.3,334.4,427.5,334.4,424.1,334.4z"/>
	</g>
	<g>
		<g>
			<path id="a4Lf8VkGxF_1_" class="st2" d="M424.1,334.4c-3.2,0-5.9-2.6-5.9-5.9c0-3.4,0-30.6,0-34c0-3.2,2.6-5.9,5.9-5.9
				c3.4,0,30.6,0,34,0c3.2,0,5.9,2.6,5.9,5.9c0,3.4,0,30.6,0,34c-0.1,3.3-2.7,5.9-5.9,5.9C451.3,334.4,427.5,334.4,424.1,334.4z"/>
		</g>
	</g>
</g>
<g>
	<g>
		<path id="a1EccE9F1Q" class="st5" d="M416.6,339.8c-0.5,0-0.9-0.4-0.9-0.9c0-1,0-8.8,0-9.8c0-0.5,0.4-0.9,0.9-0.9
			c4.9,0,44.1,0,49,0c0.5,0,0.9,0.4,0.9,0.9c0,1,0,8.8,0,9.8c0,0.5-0.4,0.9-0.9,0.9C455.8,339.8,421.5,339.8,416.6,339.8z"/>
	</g>
	<g>
		<g>
			<path id="a1EccE9F1Q_1_" class="st2" d="M416.6,339.8c-0.5,0-0.9-0.4-0.9-0.9c0-1,0-8.8,0-9.8c0-0.5,0.4-0.9,0.9-0.9
				c4.9,0,44.1,0,49,0c0.5,0,0.9,0.4,0.9,0.9c0,1,0,8.8,0,9.8c0,0.5-0.4,0.9-0.9,0.9C455.8,339.8,421.5,339.8,416.6,339.8z"/>
		</g>
	</g>
</g>
<g>
	<g>
		<path id="c2D8lQ1BcF" class="st4" d="M340.6,415.8c-3.2,0-5.9-2.6-5.9-5.9c0-3.4,0-30.6,0-34c0-3.2,2.6-5.9,5.9-5.9
			c3.4,0,30.6,0,34,0c3.2,0,5.9,2.6,5.9,5.9c0,3.4,0,30.6,0,34c0,3.3-2.6,5.9-5.9,5.9C367.8,415.8,344,415.8,340.6,415.8z"/>
	</g>
	<g>
		<g>
			<path id="c2D8lQ1BcF_1_" class="st2" d="M340.6,415.8c-3.2,0-5.9-2.6-5.9-5.9c0-3.4,0-30.6,0-34c0-3.2,2.6-5.9,5.9-5.9
				c3.4,0,30.6,0,34,0c3.2,0,5.9,2.6,5.9,5.9c0,3.4,0,30.6,0,34c0,3.3-2.6,5.9-5.9,5.9C367.8,415.8,344,415.8,340.6,415.8z"/>
		</g>
	</g>
</g>
<g>
	<g>
		<path id="hcmknT61l" class="st5" d="M333.1,421.1c-0.5,0-0.9-0.4-0.9-0.9c0-1,0-8.8,0-9.8c0-0.5,0.4-0.9,0.9-0.9
			c4.9,0,44.1,0,49,0c0.5,0,0.9,0.4,0.9,0.9c0,1,0,8.8,0,9.8c0,0.5-0.4,0.9-0.9,0.9C372.3,421.1,338,421.1,333.1,421.1z"/>
	</g>
	<g>
		<g>
			<path id="hcmknT61l_1_" class="st2" d="M333.1,421.1c-0.5,0-0.9-0.4-0.9-0.9c0-1,0-8.8,0-9.8c0-0.5,0.4-0.9,0.9-0.9
				c4.9,0,44.1,0,49,0c0.5,0,0.9,0.4,0.9,0.9c0,1,0,8.8,0,9.8c0,0.5-0.4,0.9-0.9,0.9C372.3,421.1,338,421.1,333.1,421.1z"/>
		</g>
	</g>
</g>
<g>
	<g>
		<path id="b13XFmaKf3" class="st4" d="M424.1,415.8c-3.2,0-5.9-2.6-5.9-5.9c0-3.4,0-30.6,0-34c0-3.2,2.6-5.9,5.9-5.9
			c3.4,0,30.6,0,34,0c3.2,0,5.9,2.6,5.9,5.9c0,3.4,0,30.6,0,34c-0.1,3.3-2.7,5.9-5.9,5.9C451.3,415.8,427.5,415.8,424.1,415.8z"/>
	</g>
	<g>
		<g>
			<path id="b13XFmaKf3_1_" class="st2" d="M424.1,415.8c-3.2,0-5.9-2.6-5.9-5.9c0-3.4,0-30.6,0-34c0-3.2,2.6-5.9,5.9-5.9
				c3.4,0,30.6,0,34,0c3.2,0,5.9,2.6,5.9,5.9c0,3.4,0,30.6,0,34c-0.1,3.3-2.7,5.9-5.9,5.9C451.3,415.8,427.5,415.8,424.1,415.8z"/>
		</g>
	</g>
</g>
<g>
	<g>
		<path id="e10cqOSJQV" class="st5" d="M416.6,421.1c-0.5,0-0.9-0.4-0.9-0.9c0-1,0-8.8,0-9.8c0-0.5,0.4-0.9,0.9-0.9
			c4.9,0,44.1,0,49,0c0.5,0,0.9,0.4,0.9,0.9c0,1,0,8.8,0,9.8c0,0.5-0.4,0.9-0.9,0.9C455.8,421.1,421.5,421.1,416.6,421.1z"/>
	</g>
	<g>
		<g>
			<path id="e10cqOSJQV_1_" class="st2" d="M416.6,421.1c-0.5,0-0.9-0.4-0.9-0.9c0-1,0-8.8,0-9.8c0-0.5,0.4-0.9,0.9-0.9
				c4.9,0,44.1,0,49,0c0.5,0,0.9,0.4,0.9,0.9c0,1,0,8.8,0,9.8c0,0.5-0.4,0.9-0.9,0.9C455.8,421.1,421.5,421.1,416.6,421.1z"/>
		</g>
	</g>
</g>
<g>
	<g>
		<path id="ceWCemUDO" class="st4" d="M531.2,365.3c-3.2,0-5.9-2.6-5.9-5.9c0-2.3,0-20.3,0-22.6c0-3.2,2.6-5.9,5.9-5.9
			c2.3,0,20.3,0,22.6,0c3.2,0,5.9,2.6,5.9,5.9c0,2.3,0,20.3,0,22.6c-0.1,3.3-2.7,5.9-5.9,5.9C549.3,365.3,533.5,365.3,531.2,365.3z"
			/>
	</g>
	<g>
		<g>
			<path id="ceWCemUDO_1_" class="st2" d="M531.2,365.3c-3.2,0-5.9-2.6-5.9-5.9c0-2.3,0-20.3,0-22.6c0-3.2,2.6-5.9,5.9-5.9
				c2.3,0,20.3,0,22.6,0c3.2,0,5.9,2.6,5.9,5.9c0,2.3,0,20.3,0,22.6c-0.1,3.3-2.7,5.9-5.9,5.9C549.3,365.3,533.5,365.3,531.2,365.3z
				"/>
		</g>
	</g>
</g>
<g>
	<g>
		<path id="c2KEqDSOho" class="st5" d="M524.4,369.3c-0.5,0-0.9-0.4-0.9-0.9c0-0.7,0-6.2,0-6.9c0-0.5,0.4-0.9,0.9-0.9
			c3.6,0,32.7,0,36.3,0c0.5,0,0.9,0.4,0.9,0.9c0,0.7,0,6.2,0,6.9c-0.1,0.5-0.5,0.9-0.9,0.9C553.4,369.3,528,369.3,524.4,369.3z"/>
	</g>
	<g>
		<g>
			<path id="c2KEqDSOho_1_" class="st2" d="M524.4,369.3c-0.5,0-0.9-0.4-0.9-0.9c0-0.7,0-6.2,0-6.9c0-0.5,0.4-0.9,0.9-0.9
				c3.6,0,32.7,0,36.3,0c0.5,0,0.9,0.4,0.9,0.9c0,0.7,0,6.2,0,6.9c-0.1,0.5-0.5,0.9-0.9,0.9C553.4,369.3,528,369.3,524.4,369.3z"/>
		</g>
	</g>
</g>
<g>
	<g>
		<path id="cPnPpsIi0" class="st4" d="M587.2,365.3c-3.2,0-5.9-2.6-5.9-5.9c0-2.3,0-20.3,0-22.6c0-3.2,2.6-5.9,5.9-5.9
			c2.3,0,20.3,0,22.6,0c3.2,0,5.9,2.6,5.9,5.9c0,2.3,0,20.3,0,22.6c-0.1,3.3-2.7,5.9-5.9,5.9C605.3,365.3,589.5,365.3,587.2,365.3z"
			/>
	</g>
	<g>
		<g>
			<path id="cPnPpsIi0_1_" class="st2" d="M587.2,365.3c-3.2,0-5.9-2.6-5.9-5.9c0-2.3,0-20.3,0-22.6c0-3.2,2.6-5.9,5.9-5.9
				c2.3,0,20.3,0,22.6,0c3.2,0,5.9,2.6,5.9,5.9c0,2.3,0,20.3,0,22.6c-0.1,3.3-2.7,5.9-5.9,5.9C605.3,365.3,589.5,365.3,587.2,365.3z
				"/>
		</g>
	</g>
</g>
<g>
	<g>
		<path id="aQ1ayIct" class="st5" d="M580.3,369.3c-0.5,0-0.9-0.4-0.9-0.9c0-0.7,0-6.2,0-6.9c0-0.5,0.4-0.9,0.9-0.9
			c3.6,0,32.7,0,36.3,0c0.5,0,0.9,0.4,0.9,0.9c0,0.7,0,6.2,0,6.9c0,0.5-0.4,0.9-0.9,0.9C609.3,369.3,583.9,369.3,580.3,369.3z"/>
	</g>
	<g>
		<g>
			<path id="aQ1ayIct_1_" class="st2" d="M580.3,369.3c-0.5,0-0.9-0.4-0.9-0.9c0-0.7,0-6.2,0-6.9c0-0.5,0.4-0.9,0.9-0.9
				c3.6,0,32.7,0,36.3,0c0.5,0,0.9,0.4,0.9,0.9c0,0.7,0,6.2,0,6.9c0,0.5-0.4,0.9-0.9,0.9C609.3,369.3,583.9,369.3,580.3,369.3z"/>
		</g>
	</g>
</g>
<g>
	<g>
		<path id="k1A3UVaK1" class="st4" d="M531.2,417c-3.2,0-5.9-2.6-5.9-5.9c0-2.3,0-20.3,0-22.6c0-3.2,2.6-5.9,5.9-5.9
			c2.3,0,20.3,0,22.6,0c3.2,0,5.9,2.6,5.9,5.9c0,2.3,0,20.3,0,22.6c-0.1,3.3-2.7,5.9-5.9,5.9C549.3,417,533.5,417,531.2,417z"/>
	</g>
	<g>
		<g>
			<path id="k1A3UVaK1_1_" class="st2" d="M531.2,417c-3.2,0-5.9-2.6-5.9-5.9c0-2.3,0-20.3,0-22.6c0-3.2,2.6-5.9,5.9-5.9
				c2.3,0,20.3,0,22.6,0c3.2,0,5.9,2.6,5.9,5.9c0,2.3,0,20.3,0,22.6c-0.1,3.3-2.7,5.9-5.9,5.9C549.3,417,533.5,417,531.2,417z"/>
		</g>
	</g>
</g>
<g>
	<g>
		<path id="bbiTWRFxC" class="st5" d="M524.4,421c-0.5,0-0.9-0.4-0.9-0.9c0-0.7,0-6.2,0-6.9c0-0.5,0.4-0.9,0.9-0.9
			c3.6,0,32.7,0,36.3,0c0.5,0,0.9,0.4,0.9,0.9c0,0.7,0,6.2,0,6.9c-0.1,0.5-0.5,0.9-0.9,0.9C553.4,421,528,421,524.4,421z"/>
	</g>
	<g>
		<g>
			<path id="bbiTWRFxC_1_" class="st2" d="M524.4,421c-0.5,0-0.9-0.4-0.9-0.9c0-0.7,0-6.2,0-6.9c0-0.5,0.4-0.9,0.9-0.9
				c3.6,0,32.7,0,36.3,0c0.5,0,0.9,0.4,0.9,0.9c0,0.7,0,6.2,0,6.9c-0.1,0.5-0.5,0.9-0.9,0.9C553.4,421,528,421,524.4,421z"/>
		</g>
	</g>
</g>
<g>
	<g>
		<path id="a4MjFdfJks" class="st4" d="M587.2,417c-3.2,0-5.9-2.6-5.9-5.9c0-2.3,0-20.3,0-22.6c0-3.2,2.6-5.9,5.9-5.9
			c2.3,0,20.3,0,22.6,0c3.2,0,5.9,2.6,5.9,5.9c0,2.3,0,20.3,0,22.6c-0.1,3.3-2.7,5.9-5.9,5.9C605.3,417,589.5,417,587.2,417z"/>
	</g>
	<g>
		<g>
			<path id="a4MjFdfJks_1_" class="st2" d="M587.2,417c-3.2,0-5.9-2.6-5.9-5.9c0-2.3,0-20.3,0-22.6c0-3.2,2.6-5.9,5.9-5.9
				c2.3,0,20.3,0,22.6,0c3.2,0,5.9,2.6,5.9,5.9c0,2.3,0,20.3,0,22.6c-0.1,3.3-2.7,5.9-5.9,5.9C605.3,417,589.5,417,587.2,417z"/>
		</g>
	</g>
</g>
<g>
	<g>
		<path id="a8El84DyyO" class="st5" d="M580.3,421c-0.5,0-0.9-0.4-0.9-0.9c0-0.7,0-6.2,0-6.9c0-0.5,0.4-0.9,0.9-0.9
			c3.6,0,32.7,0,36.3,0c0.5,0,0.9,0.4,0.9,0.9c0,0.7,0,6.2,0,6.9c0,0.5-0.4,0.9-0.9,0.9C609.3,421,583.9,421,580.3,421z"/>
	</g>
	<g>
		<g>
			<path id="a8El84DyyO_1_" class="st2" d="M580.3,421c-0.5,0-0.9-0.4-0.9-0.9c0-0.7,0-6.2,0-6.9c0-0.5,0.4-0.9,0.9-0.9
				c3.6,0,32.7,0,36.3,0c0.5,0,0.9,0.4,0.9,0.9c0,0.7,0,6.2,0,6.9c0,0.5-0.4,0.9-0.9,0.9C609.3,421,583.9,421,580.3,421z"/>
		</g>
	</g>
</g>
<g>
	<g>
		<path id="aUsW8BI34" class="st4" d="M531.2,468.8c-3.2,0-5.9-2.6-5.9-5.9c0-2.3,0-20.3,0-22.6c0-3.2,2.6-5.9,5.9-5.9
			c2.3,0,20.3,0,22.6,0c3.2,0,5.9,2.6,5.9,5.9c0,2.3,0,20.3,0,22.6c-0.1,3.3-2.7,5.9-5.9,5.9C549.3,468.8,533.5,468.8,531.2,468.8z"
			/>
	</g>
	<g>
		<g>
			<path id="aUsW8BI34_1_" class="st2" d="M531.2,468.8c-3.2,0-5.9-2.6-5.9-5.9c0-2.3,0-20.3,0-22.6c0-3.2,2.6-5.9,5.9-5.9
				c2.3,0,20.3,0,22.6,0c3.2,0,5.9,2.6,5.9,5.9c0,2.3,0,20.3,0,22.6c-0.1,3.3-2.7,5.9-5.9,5.9C549.3,468.8,533.5,468.8,531.2,468.8z
				"/>
		</g>
	</g>
</g>
<g>
	<g>
		<path id="dXY8GLWN6" class="st5" d="M524.4,472.8c-0.5,0-0.9-0.4-0.9-0.9c0-0.7,0-6.2,0-6.9c0-0.5,0.4-0.9,0.9-0.9
			c3.6,0,32.7,0,36.3,0c0.5,0,0.9,0.4,0.9,0.9c0,0.7,0,6.2,0,6.9c-0.1,0.5-0.5,0.9-0.9,0.9C553.4,472.8,528,472.8,524.4,472.8z"/>
	</g>
	<g>
		<g>
			<path id="dXY8GLWN6_1_" class="st2" d="M524.4,472.8c-0.5,0-0.9-0.4-0.9-0.9c0-0.7,0-6.2,0-6.9c0-0.5,0.4-0.9,0.9-0.9
				c3.6,0,32.7,0,36.3,0c0.5,0,0.9,0.4,0.9,0.9c0,0.7,0,6.2,0,6.9c-0.1,0.5-0.5,0.9-0.9,0.9C553.4,472.8,528,472.8,524.4,472.8z"/>
		</g>
	</g>
</g>
<g>
	<g>
		<path id="a4ep4AGs3f" class="st4" d="M587.2,468.8c-3.2,0-5.9-2.6-5.9-5.9c0-2.3,0-20.3,0-22.6c0-3.2,2.6-5.9,5.9-5.9
			c2.3,0,20.3,0,22.6,0c3.2,0,5.9,2.6,5.9,5.9c0,2.3,0,20.3,0,22.6c-0.1,3.3-2.7,5.9-5.9,5.9C605.3,468.8,589.5,468.8,587.2,468.8z"
			/>
	</g>
	<g>
		<g>
			<path id="a4ep4AGs3f_1_" class="st2" d="M587.2,468.8c-3.2,0-5.9-2.6-5.9-5.9c0-2.3,0-20.3,0-22.6c0-3.2,2.6-5.9,5.9-5.9
				c2.3,0,20.3,0,22.6,0c3.2,0,5.9,2.6,5.9,5.9c0,2.3,0,20.3,0,22.6c-0.1,3.3-2.7,5.9-5.9,5.9C605.3,468.8,589.5,468.8,587.2,468.8z
				"/>
		</g>
	</g>
</g>
<g>
	<g>
		<path id="a1wJTDZVSH" class="st5" d="M580.3,472.8c-0.5,0-0.9-0.4-0.9-0.9c0-0.7,0-6.2,0-6.9c0-0.5,0.4-0.9,0.9-0.9
			c3.6,0,32.7,0,36.3,0c0.5,0,0.9,0.4,0.9,0.9c0,0.7,0,6.2,0,6.9c0,0.5-0.4,0.9-0.9,0.9C609.3,472.8,583.9,472.8,580.3,472.8z"/>
	</g>
	<g>
		<g>
			<path id="a1wJTDZVSH_1_" class="st2" d="M580.3,472.8c-0.5,0-0.9-0.4-0.9-0.9c0-0.7,0-6.2,0-6.9c0-0.5,0.4-0.9,0.9-0.9
				c3.6,0,32.7,0,36.3,0c0.5,0,0.9,0.4,0.9,0.9c0,0.7,0,6.2,0,6.9c0,0.5-0.4,0.9-0.9,0.9C609.3,472.8,583.9,472.8,580.3,472.8z"/>
		</g>
	</g>
</g>
<g>
	<g>
		<path id="af9WXKAne" class="st4" d="M191.1,365.3c-3.2,0-5.9-2.6-5.9-5.9c0-2.3,0-20.3,0-22.6c0-3.2,2.6-5.9,5.9-5.9
			c2.3,0,20.3,0,22.6,0c3.2,0,5.9,2.6,5.9,5.9c0,2.3,0,20.3,0,22.6c-0.1,3.3-2.7,5.9-5.9,5.9C209.2,365.3,193.4,365.3,191.1,365.3z"
			/>
	</g>
	<g>
		<g>
			<path id="af9WXKAne_1_" class="st2" d="M191.1,365.3c-3.2,0-5.9-2.6-5.9-5.9c0-2.3,0-20.3,0-22.6c0-3.2,2.6-5.9,5.9-5.9
				c2.3,0,20.3,0,22.6,0c3.2,0,5.9,2.6,5.9,5.9c0,2.3,0,20.3,0,22.6c-0.1,3.3-2.7,5.9-5.9,5.9C209.2,365.3,193.4,365.3,191.1,365.3z
				"/>
		</g>
	</g>
</g>
<g>
	<g>
		<path id="bvca1K0R1" class="st5" d="M184.2,369.3c-0.5,0-0.9-0.4-0.9-0.9c0-0.7,0-6.2,0-6.9c0-0.5,0.4-0.9,0.9-0.9
			c3.6,0,32.7,0,36.3,0c0.5,0,0.9,0.4,0.9,0.9c0,0.7,0,6.2,0,6.9c0,0.5-0.4,0.9-0.9,0.9C213.2,369.3,187.8,369.3,184.2,369.3z"/>
	</g>
	<g>
		<g>
			<path id="bvca1K0R1_1_" class="st2" d="M184.2,369.3c-0.5,0-0.9-0.4-0.9-0.9c0-0.7,0-6.2,0-6.9c0-0.5,0.4-0.9,0.9-0.9
				c3.6,0,32.7,0,36.3,0c0.5,0,0.9,0.4,0.9,0.9c0,0.7,0,6.2,0,6.9c0,0.5-0.4,0.9-0.9,0.9C213.2,369.3,187.8,369.3,184.2,369.3z"/>
		</g>
	</g>
</g>
<g>
	<g>
		<path id="e3BnsrU5K" class="st4" d="M247,365.3c-3.2,0-5.9-2.6-5.9-5.9c0-2.3,0-20.3,0-22.6c0-3.2,2.6-5.9,5.9-5.9
			c2.3,0,20.3,0,22.6,0c3.2,0,5.9,2.6,5.9,5.9c0,2.3,0,20.3,0,22.6c0,3.3-2.6,5.9-5.9,5.9C265.1,365.3,249.3,365.3,247,365.3z"/>
	</g>
	<g>
		<g>
			<path id="e3BnsrU5K_1_" class="st2" d="M247,365.3c-3.2,0-5.9-2.6-5.9-5.9c0-2.3,0-20.3,0-22.6c0-3.2,2.6-5.9,5.9-5.9
				c2.3,0,20.3,0,22.6,0c3.2,0,5.9,2.6,5.9,5.9c0,2.3,0,20.3,0,22.6c0,3.3-2.6,5.9-5.9,5.9C265.1,365.3,249.3,365.3,247,365.3z"/>
		</g>
	</g>
</g>
<g>
	<g>
		<path id="e5zvUn5Z4L" class="st5" d="M240.2,369.3c-0.5,0-0.9-0.4-0.9-0.9c0-0.7,0-6.2,0-6.9c0-0.5,0.4-0.9,0.9-0.9
			c3.6,0,32.7,0,36.3,0c0.5,0,0.9,0.4,0.9,0.9c0,0.7,0,6.2,0,6.9c0,0.5-0.4,0.9-0.9,0.9C269.2,369.3,243.8,369.3,240.2,369.3z"/>
	</g>
	<g>
		<g>
			<path id="e5zvUn5Z4L_1_" class="st2" d="M240.2,369.3c-0.5,0-0.9-0.4-0.9-0.9c0-0.7,0-6.2,0-6.9c0-0.5,0.4-0.9,0.9-0.9
				c3.6,0,32.7,0,36.3,0c0.5,0,0.9,0.4,0.9,0.9c0,0.7,0,6.2,0,6.9c0,0.5-0.4,0.9-0.9,0.9C269.2,369.3,243.8,369.3,240.2,369.3z"/>
		</g>
	</g>
</g>
<g>
	<g>
		<path id="aWFK4bm5E" class="st4" d="M191.1,417c-3.2,0-5.9-2.6-5.9-5.9c0-2.3,0-20.3,0-22.6c0-3.2,2.6-5.9,5.9-5.9
			c2.3,0,20.3,0,22.6,0c3.2,0,5.9,2.6,5.9,5.9c0,2.3,0,20.3,0,22.6c-0.1,3.3-2.7,5.9-5.9,5.9C209.2,417,193.4,417,191.1,417z"/>
	</g>
	<g>
		<g>
			<path id="aWFK4bm5E_1_" class="st2" d="M191.1,417c-3.2,0-5.9-2.6-5.9-5.9c0-2.3,0-20.3,0-22.6c0-3.2,2.6-5.9,5.9-5.9
				c2.3,0,20.3,0,22.6,0c3.2,0,5.9,2.6,5.9,5.9c0,2.3,0,20.3,0,22.6c-0.1,3.3-2.7,5.9-5.9,5.9C209.2,417,193.4,417,191.1,417z"/>
		</g>
	</g>
</g>
<g>
	<g>
		<path id="c92CIwLx" class="st5" d="M184.2,421c-0.5,0-0.9-0.4-0.9-0.9c0-0.7,0-6.2,0-6.9c0-0.5,0.4-0.9,0.9-0.9
			c3.6,0,32.7,0,36.3,0c0.5,0,0.9,0.4,0.9,0.9c0,0.7,0,6.2,0,6.9c0,0.5-0.4,0.9-0.9,0.9C213.2,421,187.8,421,184.2,421z"/>
	</g>
	<g>
		<g>
			<path id="c92CIwLx_1_" class="st2" d="M184.2,421c-0.5,0-0.9-0.4-0.9-0.9c0-0.7,0-6.2,0-6.9c0-0.5,0.4-0.9,0.9-0.9
				c3.6,0,32.7,0,36.3,0c0.5,0,0.9,0.4,0.9,0.9c0,0.7,0,6.2,0,6.9c0,0.5-0.4,0.9-0.9,0.9C213.2,421,187.8,421,184.2,421z"/>
		</g>
	</g>
</g>
<g>
	<g>
		<path id="dpso26hNM" class="st4" d="M247,417c-3.2,0-5.9-2.6-5.9-5.9c0-2.3,0-20.3,0-22.6c0-3.2,2.6-5.9,5.9-5.9
			c2.3,0,20.3,0,22.6,0c3.2,0,5.9,2.6,5.9,5.9c0,2.3,0,20.3,0,22.6c0,3.3-2.6,5.9-5.9,5.9C265.1,417,249.3,417,247,417z"/>
	</g>
	<g>
		<g>
			<path id="dpso26hNM_1_" class="st2" d="M247,417c-3.2,0-5.9-2.6-5.9-5.9c0-2.3,0-20.3,0-22.6c0-3.2,2.6-5.9,5.9-5.9
				c2.3,0,20.3,0,22.6,0c3.2,0,5.9,2.6,5.9,5.9c0,2.3,0,20.3,0,22.6c0,3.3-2.6,5.9-5.9,5.9C265.1,417,249.3,417,247,417z"/>
		</g>
	</g>
</g>
<g>
	<g>
		<path id="aD6FO6DC0" class="st5" d="M240.2,421c-0.5,0-0.9-0.4-0.9-0.9c0-0.7,0-6.2,0-6.9c0-0.5,0.4-0.9,0.9-0.9
			c3.6,0,32.7,0,36.3,0c0.5,0,0.9,0.4,0.9,0.9c0,0.7,0,6.2,0,6.9c0,0.5-0.4,0.9-0.9,0.9C269.2,421,243.8,421,240.2,421z"/>
	</g>
	<g>
		<g>
			<path id="aD6FO6DC0_1_" class="st2" d="M240.2,421c-0.5,0-0.9-0.4-0.9-0.9c0-0.7,0-6.2,0-6.9c0-0.5,0.4-0.9,0.9-0.9
				c3.6,0,32.7,0,36.3,0c0.5,0,0.9,0.4,0.9,0.9c0,0.7,0,6.2,0,6.9c0,0.5-0.4,0.9-0.9,0.9C269.2,421,243.8,421,240.2,421z"/>
		</g>
	</g>
</g>
<g>
	<g>
		<path id="k4FVdN1jlw" class="st4" d="M191.1,468.8c-3.2,0-5.9-2.6-5.9-5.9c0-2.3,0-20.3,0-22.6c0-3.2,2.6-5.9,5.9-5.9
			c2.3,0,20.3,0,22.6,0c3.2,0,5.9,2.6,5.9,5.9c0,2.3,0,20.3,0,22.6c-0.1,3.3-2.7,5.9-5.9,5.9C209.2,468.8,193.4,468.8,191.1,468.8z"
			/>
	</g>
	<g>
		<g>
			<path id="k4FVdN1jlw_1_" class="st2" d="M191.1,468.8c-3.2,0-5.9-2.6-5.9-5.9c0-2.3,0-20.3,0-22.6c0-3.2,2.6-5.9,5.9-5.9
				c2.3,0,20.3,0,22.6,0c3.2,0,5.9,2.6,5.9,5.9c0,2.3,0,20.3,0,22.6c-0.1,3.3-2.7,5.9-5.9,5.9C209.2,468.8,193.4,468.8,191.1,468.8z
				"/>
		</g>
	</g>
</g>
<g>
	<g>
		<path id="a2EATH1aKv" class="st5" d="M184.2,472.8c-0.5,0-0.9-0.4-0.9-0.9c0-0.7,0-6.2,0-6.9c0-0.5,0.4-0.9,0.9-0.9
			c3.6,0,32.7,0,36.3,0c0.5,0,0.9,0.4,0.9,0.9c0,0.7,0,6.2,0,6.9c0,0.5-0.4,0.9-0.9,0.9C213.2,472.8,187.8,472.8,184.2,472.8z"/>
	</g>
	<g>
		<g>
			<path id="a2EATH1aKv_1_" class="st2" d="M184.2,472.8c-0.5,0-0.9-0.4-0.9-0.9c0-0.7,0-6.2,0-6.9c0-0.5,0.4-0.9,0.9-0.9
				c3.6,0,32.7,0,36.3,0c0.5,0,0.9,0.4,0.9,0.9c0,0.7,0,6.2,0,6.9c0,0.5-0.4,0.9-0.9,0.9C213.2,472.8,187.8,472.8,184.2,472.8z"/>
		</g>
	</g>
</g>
<g>
	<g>
		<path id="l1pF3TAThG" class="st4" d="M247,468.8c-3.2,0-5.9-2.6-5.9-5.9c0-2.3,0-20.3,0-22.6c0-3.2,2.6-5.9,5.9-5.9
			c2.3,0,20.3,0,22.6,0c3.2,0,5.9,2.6,5.9,5.9c0,2.3,0,20.3,0,22.6c0,3.3-2.6,5.9-5.9,5.9C265.1,468.8,249.3,468.8,247,468.8z"/>
	</g>
	<g>
		<g>
			<path id="l1pF3TAThG_1_" class="st2" d="M247,468.8c-3.2,0-5.9-2.6-5.9-5.9c0-2.3,0-20.3,0-22.6c0-3.2,2.6-5.9,5.9-5.9
				c2.3,0,20.3,0,22.6,0c3.2,0,5.9,2.6,5.9,5.9c0,2.3,0,20.3,0,22.6c0,3.3-2.6,5.9-5.9,5.9C265.1,468.8,249.3,468.8,247,468.8z"/>
		</g>
	</g>
</g>
<g>
	<g>
		<path id="hiHtncc75" class="st5" d="M240.2,472.8c-0.5,0-0.9-0.4-0.9-0.9c0-0.7,0-6.2,0-6.9c0-0.5,0.4-0.9,0.9-0.9
			c3.6,0,32.7,0,36.3,0c0.5,0,0.9,0.4,0.9,0.9c0,0.7,0,6.2,0,6.9c0,0.5-0.4,0.9-0.9,0.9C269.2,472.8,243.8,472.8,240.2,472.8z"/>
	</g>
	<g>
		<g>
			<path id="hiHtncc75_1_" class="st2" d="M240.2,472.8c-0.5,0-0.9-0.4-0.9-0.9c0-0.7,0-6.2,0-6.9c0-0.5,0.4-0.9,0.9-0.9
				c3.6,0,32.7,0,36.3,0c0.5,0,0.9,0.4,0.9,0.9c0,0.7,0,6.2,0,6.9c0,0.5-0.4,0.9-0.9,0.9C269.2,472.8,243.8,472.8,240.2,472.8z"/>
		</g>
	</g>
</g>
<g>
	<g>
		<path id="eclW3m1qo" class="st5" d="M369.2,557.4c0-60.1,0-93.4,0-100.1c0-3,2.5-5.5,5.5-5.5c5.1,0,45.6,0,50.7,0
			c3,0,5.5,2.5,5.5,5.5c0,6.7,0,40,0,100.1H369.2z"/>
	</g>
	<g>
		<g>
			<path id="eclW3m1qo_1_" class="st2" d="M369.2,557.4c0-60.1,0-93.4,0-100.1c0-3,2.5-5.5,5.5-5.5c5.1,0,45.6,0,50.7,0
				c3,0,5.5,2.5,5.5,5.5c0,6.7,0,40,0,100.1H369.2z"/>
		</g>
	</g>
</g>
<g>
	<g>
		<path id="bgKK9xmOl" class="st6" d="M418.5,509.9c-1,0-1.7-0.8-1.7-1.7c0-0.8,0-7.4,0-8.2c0-1,0.8-1.7,1.7-1.7c0.2,0,1.6,0,1.8,0
			c1,0,1.7,0.8,1.7,1.7c0,0.8,0,7.3,0,8.1c0.1,1-0.7,1.8-1.7,1.8C419.9,509.9,418.7,509.9,418.5,509.9z"/>
	</g>
	<g>
		<g>
			<path id="bgKK9xmOl_1_" class="st2" d="M418.5,509.9c-1,0-1.7-0.8-1.7-1.7c0-0.8,0-7.4,0-8.2c0-1,0.8-1.7,1.7-1.7
				c0.2,0,1.6,0,1.8,0c1,0,1.7,0.8,1.7,1.7c0,0.8,0,7.3,0,8.1c0.1,1-0.7,1.8-1.7,1.8C419.9,509.9,418.7,509.9,418.5,509.9z"/>
		</g>
	</g>
</g>
</svg>
