<?xml version="1.0" encoding="utf-8"?>
<!-- Generator: Adobe Illustrator 22.0.1, SVG Export Plug-In . SVG Version: 6.00 Build 0)  -->
<svg version="1.1" id="Шар_1" xmlns="http://www.w3.org/2000/svg" xmlns:xlink="http://www.w3.org/1999/xlink" x="0px" y="0px"
	 viewBox="0 0 800 800" style="enable-background:new 0 0 800 800;" xml:space="preserve">
<style type="text/css">
	.st0{fill:url(#e1D1NsnwLr_1_);stroke:#FFFFFF;stroke-width:24;stroke-miterlimit:10;}
	.st1{fill:#FFFFFF;}
	.st2{fill-opacity:0;stroke:#000000;stroke-opacity:0;}
</style>
<g>
	<g>
		
			<linearGradient id="e1D1NsnwLr_1_" gradientUnits="userSpaceOnUse" x1="415.0593" y1="468.7355" x2="213.7972" y2="83.4773" gradientTransform="matrix(1 0 0 -1 0 840)">
			<stop  offset="0" style="stop-color:#8B4FB0"/>
			<stop  offset="1" style="stop-color:#5E00A9"/>
		</linearGradient>
		<path id="e1D1NsnwLr" class="st0" d="M785.1,399.9c0,212.4-172.5,385.1-385,385.1s-385-172.6-385-385.1S187.6,15,400.1,15
			S785.1,187.5,785.1,399.9z"/>
	</g>
</g>
<g>
	<g>
		<path id="b1JmuaDS2k" class="st1" d="M171.4,248.2c0-7.7,5.1-14.3,12.5-16.3c18.9-5,169.8-45.3,188.6-50.3
			c17.7-4.7,36.4-4.7,54.1,0c19,5,170.6,45.3,189.6,50.3c7.3,2,12.5,8.6,12.5,16.3c0,0.1,0,1,0,1.1c0,9.3-7.5,16.8-16.8,16.8
			c-42.4,0-381.2,0-423.6,0c-9.3,0-16.8-7.5-16.8-16.8C171.4,249,171.4,248.3,171.4,248.2z"/>
	</g>
	<g>
		<g>
			<path id="b1JmuaDS2k_1_" class="st2" d="M171.4,248.2c0-7.7,5.1-14.3,12.5-16.3c18.9-5,169.8-45.3,188.6-50.3
				c17.7-4.7,36.4-4.7,54.1,0c19,5,170.6,45.3,189.6,50.3c7.3,2,12.5,8.6,12.5,16.3c0,0.1,0,1,0,1.1c0,9.3-7.5,16.8-16.8,16.8
				c-42.4,0-381.2,0-423.6,0c-9.3,0-16.8-7.5-16.8-16.8C171.4,249,171.4,248.3,171.4,248.2z"/>
		</g>
	</g>
</g>
<g>
	<g>
		<path id="gV4qxt1PC" class="st1" d="M168,588.9c1.9-4.9,6.7-8.2,12-8.2c44,0,396,0,439.9,0c5.3,0,10.1,3.3,12,8.2
			c0.6,1.5,5.4,13.9,6,15.4c3.3,8.5-2.9,17.6-12,17.6c-45.2,0-406.8,0-452,0c-9.1,0-15.3-9.1-12-17.6
			C163.2,601.3,167.4,590.5,168,588.9z"/>
	</g>
	<g>
		<g>
			<path id="gV4qxt1PC_1_" class="st2" d="M168,588.9c1.9-4.9,6.7-8.2,12-8.2c44,0,396,0,439.9,0c5.3,0,10.1,3.3,12,8.2
				c0.6,1.5,5.4,13.9,6,15.4c3.3,8.5-2.9,17.6-12,17.6c-45.2,0-406.8,0-452,0c-9.1,0-15.3-9.1-12-17.6
				C163.2,601.3,167.4,590.5,168,588.9z"/>
		</g>
	</g>
</g>
<g>
	<g>
		<path id="a9C5Gv288" class="st1" d="M325.9,568.4c0-11.5,0-103.3,0-114.8c0-4.1-3.8-7.5-8.4-7.5c-4.7,0-41.9,0-46.5,0
			s-8.4,3.4-8.4,7.5c0,11.5,0,103.3,0,114.8c0,3.5-3.2,6.4-7.2,6.4c-4.2,0-37.6,0-41.8,0c-1.5,0-2.7-1.2-2.7-2.5
			c0-29.3,0-263.5,0-292.8c0-3.5,3.2-6.4,7.2-6.4c15.2,0,137.1,0,152.3,0c4,0,7.2,2.8,7.2,6.4c0,28.9,0,260,0,288.9
			c0,3.5-3.2,6.4-7.2,6.4c-2.5,0-14.9,0-37.3,0l0,0C328.3,572.9,325.9,570.8,325.9,568.4z M262.6,325c0,6.9,0,62.2,0,69.2
			c0,4.1,3.8,7.5,8.4,7.5c4.7,0,41.9,0,46.5,0s8.4-3.4,8.4-7.5c0-6.9,0-62.2,0-69.2c0-4.1-3.8-7.5-8.4-7.5c-3.1,0-18.6,0-46.5,0
			C265.4,319.7,262.6,322.3,262.6,325z"/>
	</g>
	<g>
		<g>
			<path id="a9C5Gv288_1_" class="st2" d="M325.9,568.4c0-11.5,0-103.3,0-114.8c0-4.1-3.8-7.5-8.4-7.5c-4.7,0-41.9,0-46.5,0
				s-8.4,3.4-8.4,7.5c0,11.5,0,103.3,0,114.8c0,3.5-3.2,6.4-7.2,6.4c-4.2,0-37.6,0-41.8,0c-1.5,0-2.7-1.2-2.7-2.5
				c0-29.3,0-263.5,0-292.8c0-3.5,3.2-6.4,7.2-6.4c15.2,0,137.1,0,152.3,0c4,0,7.2,2.8,7.2,6.4c0,28.9,0,260,0,288.9
				c0,3.5-3.2,6.4-7.2,6.4c-2.5,0-14.9,0-37.3,0l0,0C328.3,572.9,325.9,570.8,325.9,568.4z M262.6,325c0,6.9,0,62.2,0,69.2
				c0,4.1,3.8,7.5,8.4,7.5c4.7,0,41.9,0,46.5,0s8.4-3.4,8.4-7.5c0-6.9,0-62.2,0-69.2c0-4.1-3.8-7.5-8.4-7.5c-3.1,0-18.6,0-46.5,0
				C265.4,319.7,262.6,322.3,262.6,325z"/>
		</g>
	</g>
</g>
<g>
	<g>
		<path id="abP1BdRFhz" class="st1" d="M592,378.4c0,3.8-3.2,6.7-7.2,6.7c-3.6,0-32.1,0-35.7,0c-3.9,0-7.2-3.1-7.2-6.7
			c0-5.4,0-48.4,0-53.7c0-3.8-3.2-6.7-7.2-6.7c-4.4,0-40,0-44.4,0c-3.9,0-7.2,3.1-7.2,6.7c0,6.9,0,62.1,0,69c0,3.8,3.2,6.7,7.2,6.7
			c9.4,0,84.8,0,94.3,0c3.9,0,7.2,3.1,7.2,6.7c0,16.1,0,144.8,0,160.9c0,3.8-3.2,6.7-7.2,6.7c-14.4,0-129.5,0-143.9,0
			c-3.9,0-7.2-3.1-7.2-6.7c0-10,0-89.7,0-99.7c0-3.8,3.2-6.7,7.2-6.7c3.6,0,32.1,0,35.7,0c3.9,0,7.2,3.1,7.2,6.7
			c0,5.3,0,47.3,0,52.5c0,3.8,3.2,6.7,7.2,6.7c4.4,0,40,0,44.4,0c3.9,0,7.2-3.1,7.2-6.7c0-6.8,0-61.1,0-67.9c0-3.8-3.2-6.7-7.2-6.7
			c-9.4,0-84.8,0-94.3,0c-3.9,0-7.2-3.1-7.2-6.7c0-16.1,0-144.8,0-160.9c0-3.8,3.2-6.7,7.2-6.7c13.7,0,122.9,0,136.6,0
			c8,0,14.5,6.5,14.5,14.5C592,304.9,592,369.2,592,378.4z"/>
	</g>
	<g>
		<g>
			<path id="abP1BdRFhz_1_" class="st2" d="M592,378.4c0,3.8-3.2,6.7-7.2,6.7c-3.6,0-32.1,0-35.7,0c-3.9,0-7.2-3.1-7.2-6.7
				c0-5.4,0-48.4,0-53.7c0-3.8-3.2-6.7-7.2-6.7c-4.4,0-40,0-44.4,0c-3.9,0-7.2,3.1-7.2,6.7c0,6.9,0,62.1,0,69c0,3.8,3.2,6.7,7.2,6.7
				c9.4,0,84.8,0,94.3,0c3.9,0,7.2,3.1,7.2,6.7c0,16.1,0,144.8,0,160.9c0,3.8-3.2,6.7-7.2,6.7c-14.4,0-129.5,0-143.9,0
				c-3.9,0-7.2-3.1-7.2-6.7c0-10,0-89.7,0-99.7c0-3.8,3.2-6.7,7.2-6.7c3.6,0,32.1,0,35.7,0c3.9,0,7.2,3.1,7.2,6.7
				c0,5.3,0,47.3,0,52.5c0,3.8,3.2,6.7,7.2,6.7c4.4,0,40,0,44.4,0c3.9,0,7.2-3.1,7.2-6.7c0-6.8,0-61.1,0-67.9c0-3.8-3.2-6.7-7.2-6.7
				c-9.4,0-84.8,0-94.3,0c-3.9,0-7.2-3.1-7.2-6.7c0-16.1,0-144.8,0-160.9c0-3.8,3.2-6.7,7.2-6.7c13.7,0,122.9,0,136.6,0
				c8,0,14.5,6.5,14.5,14.5C592,304.9,592,369.2,592,378.4z"/>
		</g>
	</g>
</g>
</svg>
