<?xml version="1.0" encoding="utf-8"?>
<!-- Generator: Adobe Illustrator 22.0.1, SVG Export Plug-In . SVG Version: 6.00 Build 0)  -->
<svg version="1.1" id="Шар_1" xmlns="http://www.w3.org/2000/svg" xmlns:xlink="http://www.w3.org/1999/xlink" x="0px" y="0px"
	 viewBox="0 0 841.9 340.2" style="enable-background:new 0 0 841.9 340.2;" xml:space="preserve">
<style type="text/css">
	.st0{display:none;}
	.st1{display:inline;fill:#0096E6;stroke:#0096E6;stroke-width:4.0961;stroke-linecap:round;}
	.st2{display:inline;fill:#FFFFFF;stroke:#FFFFFF;stroke-width:3.3002;stroke-linecap:round;}
	.st3{display:inline;fill:none;stroke:#FFFFFF;stroke-width:2.7308;}
	.st4{display:inline;fill:none;stroke:#FFFFFF;stroke-width:2.731;stroke-linecap:round;}
	.st5{display:inline;fill:#FFFFFE;stroke:#FFFFFF;stroke-width:3.3002;stroke-linecap:round;}
	.st6{display:none;fill:none;stroke:#000000;stroke-miterlimit:10;}
	.st7{fill:#0096E6;stroke:#FFFFFF;stroke-width:9;stroke-miterlimit:10;}
	.st8{fill:url(#e1D1NsnwLr_1_);}
	.st9{fill:none;stroke:#FFFFFF;stroke-width:7;stroke-miterlimit:10;}
	.st10{fill:#FFFFFF;}
	.st11{display:none;fill:#0096E6;}
	.st12{display:none;fill:none;stroke:#FFFFFF;stroke-width:3;stroke-miterlimit:10;}
	.st13{display:none;fill:#FFFFFF;}
	.st14{font-family:'Nunito-ExtraLight';}
	.st15{font-size:100px;}
	.st16{display:inline;}
	.st17{fill:#0096E6;}
	.st18{fill:none;stroke:#FFFFFF;stroke-width:3;stroke-miterlimit:10;}
	.st19{font-size:30px;}
</style>
<g id="svg8" inkscape:version="0.92.0 r15299" sodipodi:docname="Ave Team1.svg" xmlns:cc="http://creativecommons.org/ns#" xmlns:dc="http://purl.org/dc/elements/1.1/" xmlns:inkscape="http://www.inkscape.org/namespaces/inkscape" xmlns:rdf="http://www.w3.org/1999/02/22-rdf-syntax-ns#" xmlns:sodipodi="http://sodipodi.sourceforge.net/DTD/sodipodi-0.dtd" xmlns:svg="http://www.w3.org/2000/svg" class="st0">
	
		<sodipodi:namedview  bordercolor="#666666" borderopacity="1.0" id="base" inkscape:current-layer="layer1" inkscape:cx="773.78401" inkscape:cy="88.9393" inkscape:document-units="mm" inkscape:pageopacity="0.0" inkscape:pageshadow="2" inkscape:window-height="1018" inkscape:window-maximized="1" inkscape:window-width="1920" inkscape:window-x="-8" inkscape:window-y="-8" inkscape:zoom="0.70000001" pagecolor="#ffffff" showgrid="false">
		</sodipodi:namedview>
	<circle id="path4495" class="st1" cx="-467.8" cy="582" r="103.4"/>
	<circle id="path4499" class="st2" cx="-394.1" cy="602" r="20.8"/>
	<path id="path4501" inkscape:connector-curvature="0" sodipodi:nodetypes="cc" class="st3" d="M-534.7,491.7
		c108.6-0.2,156.4,74.7,156.6,157.7"/>
	<path id="path4507" inkscape:connector-curvature="0" sodipodi:nodetypes="cc" class="st3" d="M-559.2,652.7
		c68-7.8,120-130.3,112.3-179.3"/>
	<path id="path4509" inkscape:connector-curvature="0" sodipodi:nodetypes="cc" class="st4" d="M-581.6,594.3
		c39.9,68.9,185.6,55.1,226.3-27.8"/>
	<ellipse id="circle4511" class="st5" cx="-515.7" cy="631.5" rx="20.8" ry="20.8"/>
	<circle id="circle4513" class="st2" cx="-450.1" cy="513.7" r="20.8"/>
</g>
<circle class="st6" cx="-296.4" cy="255.7" r="172.1"/>
<circle class="st6" cx="-296.4" cy="255.7" r="106.3"/>
<ellipse class="st6" cx="-296.4" cy="255.7" rx="66.1" ry="65.7"/>
<circle class="st6" cx="-296.4" cy="255.7" r="40.2"/>
<ellipse class="st6" cx="-296.4" cy="255.7" rx="25.1" ry="25.1"/>
<circle class="st6" cx="-296.4" cy="255.7" r="15.1"/>
<circle class="st7" cx="167.7" cy="177.2" r="131"/>
<g>
	<g>
		
			<linearGradient id="e1D1NsnwLr_1_" gradientUnits="userSpaceOnUse" x1="172.6034" y1="425.7957" x2="106.6179" y2="552.106" gradientTransform="matrix(1 0 0 1 0 -258)">
			<stop  offset="0" style="stop-color:#0096E6"/>
			<stop  offset="1" style="stop-color:#0033E6"/>
		</linearGradient>
		<path id="e1D1NsnwLr" class="st8" d="M294.1,177.2c0,69.6-56.7,126.2-126.4,126.2S41.3,246.8,41.3,177.2S97.9,51,167.7,51
			S294.1,107.6,294.1,177.2z"/>
	</g>
</g>
<path class="st9" d="M184.2,45.5c0.1,0.6,0.1,1.2,0.2,1.8c1.5,14.1,1.6,28.6,0.1,43.3c-7.5,75.9-54.3,138.5-118.3,169.5
	c-0.3,0.2-0.7,0.3-1,0.5"/>
<path class="st9" d="M118.5,54.8c0.4,0.2,0.9,0.3,1.3,0.5c88.3,32.8,145.9,121.8,136.7,218.2c-0.1,1-0.2,1.9-0.3,2.9"/>
<path class="st9" d="M299.9,178.7c-0.4,0.4-0.8,0.7-1.2,1.1c-42.9,39.6-101.9,61.3-164.5,55.1C99,231.4,66.6,219.4,39,201.2
	c-0.7-0.5-1.5-1-2.2-1.5"/>
<ellipse class="st10" cx="109.2" cy="233.2" rx="30.7" ry="30.7"/>
<ellipse class="st10" cx="183" cy="97.9" rx="30.7" ry="30.7"/>
<ellipse transform="matrix(0.1602 -0.9871 0.9871 0.1602 -1.2086 425.5794)" class="st10" cx="249.5" cy="213.5" rx="30.7" ry="30.7"/>
<circle class="st11" cx="191.3" cy="735.4" r="106.3"/>
<circle class="st12" cx="33.6" cy="648" r="172.1"/>
<circle class="st12" cx="89.7" cy="798.1" r="172.1"/>
<circle class="st12" cx="181" cy="611.1" r="172.1"/>
<ellipse transform="matrix(0.165 -0.9863 0.9863 0.165 -649.1222 794.0051)" class="st13" cx="144.4" cy="780.4" rx="25.1" ry="25.1"/>
<ellipse transform="matrix(9.903007e-02 -0.9951 0.9951 9.903007e-02 -483.0062 807.4474)" class="st13" cx="204.4" cy="670.5" rx="25.1" ry="25.1"/>
<ellipse transform="matrix(9.903004e-02 -0.9951 0.9951 9.903004e-02 -527.7869 945.3383)" class="st13" cx="258.2" cy="764.1" rx="25.1" ry="25.1"/>
<text transform="matrix(1 0 0 1 377.4737 202.4027)" class="st10 st14 st15">Ave Team</text>
<g id="Шар_4" class="st0">
	<g class="st16">
		<circle class="st17" cx="163" cy="158.2" r="123"/>
		<path class="st18" d="M0.2-140.9C109.6-130,189.5-32.5,178.6,77S70.2,266.3-39.2,255.4"/>
		<path class="st18" d="M77.5,33.3C186.2,49.6,261.3,150.9,245,259.7"/>
		<path class="st18" d="M349.2,34.3c-10.9,109.4-108.4,189.3-217.9,178.4S-58,104.3-47.2-5.2"/>
		<ellipse class="st10" cx="108" cy="211.2" rx="29" ry="29"/>
		<ellipse class="st10" cx="177" cy="84.2" rx="29" ry="29"/>
		<ellipse class="st10" cx="240" cy="192.2" rx="29" ry="29"/>
	</g>
</g>
<g id="Шар_3" class="st0">
	<g class="st16">
		<path class="st17" d="M-746.9,18c2.1,0.8,3,0.6,4.2-1.4c9.3-15.6,28-19.6,43-9.3c1.9,1.3,2.8,1.3,4.3-0.5
			c18.7-21.5,32.2-45.9,40.8-73.1c0.8-2.6,0.5-3.7-2.3-4.7c-18.1-6.9-24.7-28.5-13.7-44.5c0.6-0.8,1.2-1.7,1.8-2.7
			c-12-8.2-25.2-14.1-38.4-19.7C-752.3-119.1-784-74.7-784-22.8c0,7.7,0.7,15.3,2.1,22.7c0.6,0.4,1.1,0.9,1.7,1.3
			C-769.5,7.7-758.4,13.3-746.9,18z"/>
		<path class="st17" d="M-753.6,51.5c3-1.7,6.8-2.7,8.6-5.2c1.8-2.6-1.4-5.9-1.9-9.1c-0.5-3.4-0.8-6.8-0.3-10.1
			c0.6-3.3-0.8-4.7-3.6-5.8c-9.8-3.7-19-8.6-28-14c-0.5-0.3-1.1-0.7-1.6-1c4.2,17.6,12.1,33.7,22.8,47.5c0.4-0.4,1-0.6,1.5-0.9
			C-755.3,52.3-754.4,52-753.6,51.5z"/>
		<path class="st17" d="M-534.7-23.5c0-64-45.7-115.7-107.8-122.8c0.2,0.7,1.3,9,1.5,13.2c0.1,2.9,1,4.4,3.8,5.5
			c18.7,6.8,26.2,24.2,18.4,42.5c-1.2,2.7-0.9,4.5,0.9,6.7c14,16.9,24.5,35.9,32.3,56.3c1,2.7,2.5,4,5.5,4.1
			c7.8,0.4,14.4,3.7,19.7,9.4c2.2,2.3,3.8,2.4,6.3,0.5c5.2-4,10.1-8.3,15.2-12.5c1-0.8,2.1-1.7,3.2-2.2"/>
		<path class="st17" d="M-670.1-124.6c2.7,1.8,4.9,2.1,7.8,0.2c3.6-2.4,7.6-4,12-4.3c2.5-0.2,3.4-1.4,3.4-3.8c0-2.7-0.5-5.4-0.5-8.2
			c0-2.1-0.3-3.8-0.2-6.1c-4.1-0.4-7.5-0.5-11.7-0.5c-14.6,0-28.7,2.5-41.7,7.2c2.8,0.5,5.1,2.1,7.6,3.3
			C-685.4-133.1-677.4-129.5-670.1-124.6z"/>
		<path class="st17" d="M-622.2-76.7c-1.4-1.7-2.1-2-3.8-0.3c-5.8,5.6-12.9,8.3-21,8c-2.1-0.1-3.2,0.5-3.8,2.7
			C-659.4-38-673.4-12.7-693,9.5c-1.2,1.4-1.6,2.2-0.3,3.9c3.6,4.7,5.7,10,5.8,15.9c0,2.1,1,2.3,2.7,2.3c4.3,0,8.6,0,13,0
			c19.9,0.3,39.3-2.9,58.3-8.6c2.3-0.7,2.9-1.5,2.3-4c-3.4-15.6,4.8-30.2,19.8-34.9c2.6-0.8,2.9-1.6,2-3.9
			C-597.4-40.5-608.2-59.5-622.2-76.7z"/>
		<path class="st17" d="M-577.1,57.4c0.2-5-0.4-7-0.6-11.6c-0.1-2-0.8-2.8-2.8-2.8c-11.6,0.3-20.8-4.3-27.5-13.7
			c-1.6-2.2-3.4-1.9-5.6-1.3c-10,3-20.3,5.3-30.6,6.7c-12.5,1.7-25,2.7-37.5,1.9c-3.5-0.2-5.1,0.6-6.1,4c-4,13-16.6,21.8-30.1,21.2
			c-7.5-0.3-14.1-3-19.5-8.1c-2.5-2.4-4.5-2.2-7.3-0.6c-3.1,1.7-5.9,4.1-9.6,4.5c22.9,27,57,44.2,95.2,44.2
			c31.2,0,59.3-11.1,81.1-30C-577.8,68-577.2,59.3-577.1,57.4z"/>
		<path class="st17" d="M-553.6,2.6c4.9,14.7-1.3,29.7-15.2,36.9c-3.1,1.6-3.7,3.6-3.4,6.9c0.6,7.1,0.1,14.2-1.2,21.2
			c22.7-21.5,37.2-51.4,38.7-84.8c-5.1,5.3-10.9,9.7-16.8,14C-553.7-1.6-554.5-0.3-553.6,2.6z"/>
		<path class="st17" d="M-534.7-17.1C-534.7-17.2-534.7-17.2-534.7-17.1"/>
	</g>
</g>
<g id="Шар_2_1_" class="st0">
</g>
<text transform="matrix(1 0 0 1 452.4738 244.2259)" class="st10 st14 st19">Your choice. Your way.</text>
</svg>
