<?xml version="1.0" encoding="utf-8"?>
<!-- Generator: Adobe Illustrator 22.0.1, SVG Export Plug-In . SVG Version: 6.00 Build 0)  -->
<svg version="1.1" id="Шар_1" xmlns="http://www.w3.org/2000/svg" xmlns:xlink="http://www.w3.org/1999/xlink" x="0px" y="0px"
	 viewBox="0 0 800 800" style="enable-background:new 0 0 800 800;" xml:space="preserve">
<style type="text/css">
	.st0{fill:url(#e1D1NsnwLr_1_);stroke:#FFFFFF;stroke-width:24;stroke-miterlimit:10;}
	.st1{fill:#BD9A7A;}
	.st2{fill:#C2A08D;}
	.st3{fill:#AF7D46;}
	.st4{fill:#C69355;}
	.st5{fill:#FFFFFF;}
	.st6{fill:#020100;}
	.st7{opacity:0.4767;fill:#F4E5E7;enable-background:new    ;}
	.st8{fill:#020202;}
	.st9{fill:#FCFCFC;}
</style>
<g>
	<g>
		
			<linearGradient id="e1D1NsnwLr_1_" gradientUnits="userSpaceOnUse" x1="415.0593" y1="464.7355" x2="213.7972" y2="79.4773" gradientTransform="matrix(1 0 0 -1 0 840)">
			<stop  offset="0" style="stop-color:#100563"/>
			<stop  offset="1" style="stop-color:#000000"/>
		</linearGradient>
		<path id="e1D1NsnwLr" class="st0" d="M785.1,403.9c0,212.4-172.5,385.1-385,385.1s-385-172.6-385-385.1S187.6,19,400.1,19
			S785.1,191.5,785.1,403.9z"/>
	</g>
</g>
<g>
	<g id="Слой_1">
		<g>
			<g>
				<path class="st1" d="M551.1,503c6.3,0.2,12.6-0.1,18.7-1.9c10.8-3.3,17.9-10.9,23.2-20.3c3.9-6.9,5.8-14.6,6.7-22.4
					c0.5-4.6,0.5-9.1-0.8-13.6c-2.5-8.5-7.6-15.3-13.9-21.3c-10.2-9.6-22.4-15.8-35.4-20.6c-7.1-2.6-14.5-4.7-21.7-7.1
					c-11.6-3.8-23.4-7.1-35.2-9.8c-6.5-1.5-13.2-2.6-19.7-3.9c-0.6-0.1-1.3-0.4-1.9-0.6c-0.1-0.3-0.1-0.6-0.2-0.9
					c1.3-0.6,2.6-1.1,3.8-1.8c4.2-2.5,8.5-4.9,12.6-7.6c8.4-5.6,15.8-12.2,22.5-19.6c5.4-5.8,10.6-11.8,14.6-18.7
					c4.9-8.4,9.1-17,11.9-26.3c0.6-2,0.5-3.5-0.3-5.3c-1.4-2.9-2.6-5.8-3.9-8.8c-0.2-0.5-0.2-1-0.3-1.6c1.6,0,2.7,0.8,3.8,1.4
					c1.4,0.7,2.3,0.5,3.2-0.8c0.4-0.5,0.8-1.1,0.9-1.7c0.9-5.5,0.6-10-4.5-12.8c-1.2-0.7-2.5-1.5-3.4-2.9c2.5-1.4,5.3-0.7,7.8-1.6
					c-0.1-4.9-0.3-9.6-1.3-14.2c-1.4-6.2-3.3-12.2-5.6-18c-0.6-1.5-1-3-1.6-4.8c1.7-0.2,3-0.4,4.3-0.5c2.8-0.3,5.7-0.5,8.5-0.8
					c11.1-1.3,20.7-5.7,28.2-14.3c4.6-5.3,7.8-11.3,10-17.9c1.7-5.2,3.5-10.5,3.5-16c0.1-7.4-0.2-14.9-0.2-22.3c0-3-1-5.6-2.5-8.1
					c-3-5-7.1-9-11.8-12.3c-2.7-1.9-5.6-3.6-8.5-5.3c-0.9-0.4-1.9-0.7-2.8-1.2c-6.5-1.6-13-3.3-19.4-4.9c-0.2,0-0.5,0-0.7,0
					c0.6,0.1-0.3,0-0.4,0c-0.3,0-0.7,0-1-0.1c-0.2,0-0.3-0.1-0.5-0.1c-0.1,0-0.3,0-0.4,0c0,0-0.1,0-0.1,0c0,0,0,0-0.1,0
					c-0.1,0-0.3,0-0.4,0c-0.1,0-0.1,0,0,0c0.1,0,0.1,0-0.2,0c-0.1,0-0.3,0-0.4,0c-0.1,0-0.3,0-0.4,0c-3.6,0.1-7.2-0.1-10.7,0.3
					c-11.7,1.3-22.4,5.3-32.1,12c-7.9,5.4-14.2,12.3-18.5,20.9c-1.2,2.5-2.3,5.1-3.4,7.6c-1.4,3.2-2,3.4-5.2,1.9
					c-2.3-1.1-4.6-2.1-7-3c-11.1-4.3-22.6-7.1-34.3-9.3c-10.1-1.9-20.3-2.5-30.5-2.4c-21,0.2-41.5,3.8-61.3,11
					c-2.2,0.8-4.5,1.5-6.8,2.1c-0.6,0.2-1.2,0.1-2,0.2c-0.4-3.2-0.8-6.2-1.1-9.2c-0.8-7.3-4.1-13.1-9.6-17.9
					c-9.5-8.4-20.4-13.4-33-15c-11.5-1.5-22.8-0.9-33.8,3.2c-14.6,5.4-26.3,14.3-34.2,28c-0.1,0.1-0.2,0.3-0.3,0.4
					c-0.1,0.3-0.2,0.4-0.4,0.7c0,0.1-0.1,0.1-0.1,0.2c-0.4,2.4-1.4,4.6-2.3,6.8c-0.5,2.1-1,4.1-1.5,6.2c-0.5,2.3-0.8,4.6-1.5,6.8
					v1.8c0,0.2-0.1,0.4-0.2,0.5c0.1,0.4,0.2,0.8,0.2,1.2c0.1,6.7,1.4,13.1,4.6,19.1c1.9,3.6,3.6,7.4,7,9.9c2.1,1.6,4.3,3.1,6.5,4.3
					c9.8,5.5,20.4,9.3,31.4,11.5c1.2,0.2,2.3,0.6,3.8,0.9c-0.6,1.9-1.1,3.5-1.7,5.1c-1.3,3.5-2.7,7-3.8,10.6
					c-2.1,6.7-3.6,13.6-4.2,20.6c-0.3,3.9-0.5,7.8-0.5,11.7c0,2.7,1.2,3.5,3.8,3.9c1.9,0.2,2.2,0.5,2.3,2.4c0,0.6,0.1,1.3,0,2
					c-0.6,4.5-1.3,9.1-2,13.6c-0.4,2.9-0.7,5.8,1.3,8.2c2.9,3.4,4.7,7.5,6.6,11.5c6.7,14.3,15.8,26.7,27.3,37.4
					c8.9,8.3,18.8,15.2,29.5,21c1.5,0.8,2.9,1.8,4.8,2.9c-1.3,0.5-2.1,0.8-2.9,1c-4.1,1.2-8.1,2.4-12.2,3.7
					c-13.1,4.1-25.9,9.3-38.4,15c-12.5,5.7-25.1,11.1-36.9,18.4c-1.3,0.8-2.7,1.6-3.9,2.5c-2.3,1.8-4.6,3.7-6.9,5.6
					c-5.8,4.6-10.7,10.1-14.7,16.3c-5.7,8.9-8.4,18.5-6.1,29c2.5,11.5,7.7,21.7,16.2,30c4.9,4.8,10.6,8.4,17.3,9.7
					c9.8,1.9,19.5,1,29.1-2c5.7-1.8,11.1-4.4,16.4-7.1c1-0.5,2-0.8,3.4-1.3c0,1.5,0.1,2.7,0,3.8c-1.2,12.5-0.6,24.8,1.8,37.1
					c0.9,4.7,0.9,4.6-3.7,5.6c-7.4,1.5-14.8,2.8-22,4.8c-13.7,3.7-26.1,10.1-36.5,19.9c-8.3,7.8-14.2,17.1-16.5,28.4
					c-1.8,8.4-1.4,16.8,0.5,25.1c3.5,15,12.1,26.9,24.6,35.8c3.1,2.2,6.5,4,9.8,6l28.1,7.1c0.2-0.1,0.5-0.2,0.7-0.2
					c13.5,0.3,25.5-4.3,36.9-11c8.2-4.8,15.5-10.9,22.1-17.9c8.6-9.2,15.2-19.6,19.5-31.5c1.7-4.6,3.4-9.2,4.4-14
					c0.3-1.8,1.1-2.3,2.9-2.3c0.5,0,1,0.1,1.5,0.1c3.7,0.4,7.5,0.9,11.2,1.2c16.6,1.2,33.2,1.2,49.8,0.2c8.6-0.6,17.3-1.6,25.9-2.4
					c1.4-0.1,2.9-0.2,4.4-0.3c0.8,3.2,1.6,6.1,2.3,9c2.7,11.4,7.8,21.8,14.8,31.1c10.7,14.3,24.1,25.6,40.8,32.5
					c4.5,1.9,9.2,3.7,14,4.5c11.4,1.9,22.7,1.1,33.6-2.6c13.3-4.5,24.1-12.4,32.4-23.7c2.1-2.9,3.8-6,5.7-9.1l5.9-23.3
					c0-1.1,0-2.2,0-3.4c0-14.3-5.4-26.4-15.1-36.8c-6.1-6.5-13.5-11.3-21.5-15.2c-8.5-4.2-17.3-7.4-26.7-8.8
					c-5.2-0.8-10.3-1.6-15.5-2.5c-1.7-0.3-3.4-0.8-5.3-1.3c0.3-1.4,0.5-2.7,0.7-3.9c1.9-8.8,2.8-17.6,2.5-26.6
					c-0.2-7.5-0.9-14.9-2-22.2c-0.2-1.2-0.2-2.5-0.4-4.3c2.8,1.1,5.2,1.9,7.5,2.8C531.6,499.8,541.1,502.7,551.1,503z M517.1,491.6
					c-3.2-1-4.8,0.3-4.4,3.6c0.4,3.7,1,7.5,1.5,11.2c1.1,9.5,1.4,19.1,0.3,28.6c-0.4,3.7-1.3,7.4-2,11.1c-0.2,1.2-0.4,2.4-0.5,3.6
					c-0.2,1.9,0.1,2.3,1.9,2.9c0.8,0.3,1.7,0.4,2.6,0.6c9.3,1.7,18.7,2.5,27.7,5.2c12.3,3.6,23.7,9,33.4,17.5
					c9.8,8.5,16.3,19.1,17.8,32.1c2,16.3-2.1,31.1-12.7,44c-8.4,10.1-18.8,17.3-31.4,20.9c-12.2,3.5-24.7,4.2-37,0.2
					c-13.2-4.3-24.8-11.4-34.7-21.1c-5.8-5.6-11.5-11.5-15.6-18.6c-3.7-6.5-7.5-13.1-9.5-20.4c-1.2-4.1-2.1-8.2-3.2-12.4
					c-0.6-2.4-1.2-3-3.7-2.9c-2.2,0.1-4.4,0.3-6.6,0.5c-20.9,2.8-41.9,3.3-62.9,2.5c-6.4-0.2-12.9-1.1-19.3-1.6
					c-1-0.1-2-0.2-2.9-0.2c-2.7,0-4.4,1.2-4.9,3.8c-1,5.3-2.9,10.4-4.8,15.4c-3.9,10.3-9.6,19.5-17,27.6c-8.1,9-17.4,16.4-28.1,21.9
					c-9.1,4.7-18.7,8.1-29.1,7.8c-23.2-0.8-42.1-9.8-55.2-29.6c-6.1-9.2-8.6-19.4-8.9-30.4c-0.3-15.8,6.2-28.3,17.4-38.8
					c9.6-8.9,21-14.7,33.4-18.5c7.5-2.3,15.1-3.6,22.8-5c1.2-0.2,2.4-0.5,3.6-0.9c2.9-1,3.6-2.3,2.9-5.2c-1.5-6.9-2.5-13.9-2.6-20.9
					c-0.1-5.7,0.2-11.4,0.4-17.1c0-1.3,0.2-2.6,0.1-3.9c-0.3-2.5-1.5-3.3-3.9-2.5c-1.2,0.4-2.3,0.9-3.4,1.5
					c-5.3,2.7-10.6,5.2-16.2,6.9c-8.3,2.5-16.7,3.2-25.2,2.1c-6.6-0.8-12.3-4-17.1-8.5c-9.2-8.4-14.6-19-16.9-31.2
					c-1.8-9.4,0.9-18,6-25.9c3.7-5.8,8.2-10.8,13.5-15.2c2.7-2.2,5.4-4.6,8.2-6.7c1.8-1.4,3.9-2.4,5.9-3.6
					c8.9-5.4,18.3-9.8,27.9-13.9c10-4.4,20.1-8.9,30.3-12.8c8.5-3.3,17.4-5.7,26.1-8.6c1.1-0.4,2.2-0.7,3.2-1.2
					c1.6-0.8,1.8-2,0.5-3.4c-0.6-0.6-1.2-1.1-1.9-1.5c-4.8-2.9-9.6-5.6-14.3-8.6c-11.3-7.2-21.3-16.1-29.7-26.5
					c-6.4-8-11.9-16.7-16-26.1c-1.5-3.5-3.2-6.8-5.7-9.7c-1.3-1.5-1.5-3.4-1.3-5.3c0.5-3.2,1.1-6.5,1.5-9.7c0.3-2.5,0.7-5,0.7-7.6
					c0.1-3.1-1-4.2-4.1-4.8c-2-0.4-2.2-0.4-2.2-2.5c0.1-4.1,0.3-8.2,0.7-12.2c0.8-7.1,2.5-14,4.7-20.8c1.1-3.4,2.5-6.8,3.7-10.1
					c0.3-0.9,0.7-1.9,0.9-2.8c0.5-2,0-2.9-1.9-3.6c-1.2-0.4-2.5-0.7-3.8-0.9c-6.2-0.9-12.1-2.9-17.8-5.3c-4.6-1.9-9.1-4.1-13.5-6.4
					c-5.2-2.7-8.7-6.9-11.4-12.1c-4.2-8.1-5.2-16.6-4.3-25.5c1.1-10.4,5.7-19.2,12.7-26.8c10.6-11.6,23.9-18.3,39.3-20.3
					c10.8-1.4,21.6-0.5,31.9,3.2c8.6,3.1,16.1,8,22.3,14.7c3.2,3.4,4.8,7.6,5.4,12.1c0.5,3.2,0.8,6.3,1.2,9.5
					c0.3,2.8,1.1,3.4,3.9,2.7c2.4-0.6,4.7-1.3,7-2.1c12.4-4.5,25-7.7,38-9.5c14.4-2,28.9-2.2,43.3-0.9c4.5,0.4,8.9,1.4,13.3,2.1
					c8.3,1.4,16.5,3.6,24.5,6.3c4.8,1.7,9.4,3.7,14.1,5.7c3.3,1.4,4.9,1,6.6-2.3c0.9-1.7,1.6-3.4,2.3-5.2
					c4.1-9.9,10.8-17.7,19.6-23.7c9.3-6.4,19.5-10.4,30.7-11.5c9.7-1,19.5-0.5,28.8,2.8c8.5,3,16.2,7.5,22.5,14
					c1.4,1.5,2.7,3.1,3.9,4.7c1.8,2.6,2.9,5.5,2.9,8.7c0,7.4,0.3,14.7,0.1,22.1c-0.1,3.5-1,7-1.9,10.3c-1.5,5.6-3.6,11-6.8,16
					c-7.3,11.5-17.8,17.7-31.2,19.2c-2.9,0.3-5.9,0.6-8.8,0.9c-1.1,0.1-2.3,0.2-3.4,0.4c-2.1,0.4-2.6,1.1-2.1,3.2
					c0.3,1.4,0.9,2.8,1.4,4.2c1.6,5,3.4,9.9,4.9,14.9c1.3,4.5,1.9,9.1,1.9,13.8c0,0.3-0.1,0.6-0.1,1.2c-1.1,0.1-2.1,0.2-3.1,0.4
					c-0.9,0.2-1.8,0.3-2.6,0.6c-2.2,0.9-2.6,2.8-1,4.5c1.1,1.1,2.4,1.9,3.7,2.8c3.6,2.4,4.8,6.8,3.1,10.8c-0.1,0.1-0.2,0.2-0.5,0.4
					c-1.1-0.4-2.2-1-3.3-1.3c-1.2-0.4-2.5-0.4-3.4,0.5c-0.9,0.9-0.7,2.2-0.3,3.2c1.3,3.1,2.5,6.2,4,9.2c0.8,1.6,0.9,3,0.3,4.7
					c-5.1,14.9-12.2,28.6-22.8,40.3c-6.6,7.3-13.5,14.3-21.6,20c-4.6,3.2-9.5,6.1-14.3,9.1c-1.4,0.9-2.9,1.6-4.3,2.4
					c-0.8,0.5-1.6,1.2-2.3,1.8c-1.5,1.4-1,3.3,1.1,3.6c3.4,0.5,6.7,1.3,10.1,1.9c8.7,1.6,17.3,3.4,25.8,5.9
					c7.3,2.2,14.7,4.1,21.9,6.4c9,2.9,18,5.7,26.7,9.2c10.6,4.3,20.5,9.8,28.9,17.8c6.1,5.8,11,12.3,13.4,20.5
					c1.3,4.6,1.2,9.2,0.6,13.9c-0.8,6.9-2.6,13.5-5.9,19.6c-4.4,8.2-10.3,15-19,18.8c-5.7,2.5-11.7,3-17.8,3.1
					c-9,0.1-17.7-1.8-26.1-4.9c-3.5-1.3-7-2.7-10.6-4C517.7,491.9,517.4,491.7,517.1,491.6z"/>
				<path class="st1" d="M537.1,270.7c-1.1,0.1-2.1,0.2-3.1,0.4c-0.9,0.2-1.8,0.3-2.6,0.6c-2.2,0.9-2.6,2.8-1,4.5
					c1.1,1.1,2.4,1.9,3.7,2.8c3.6,2.4,4.8,6.8,3.1,10.8c-0.1,0.1-0.2,0.2-0.5,0.4c-1.1-0.4-2.2-1-3.3-1.3c-1.2-0.4-2.5-0.4-3.4,0.5
					c-0.9,0.9-0.7,2.2-0.3,3.2c1.3,3.1,2.5,6.2,4,9.2c0.8,1.6,0.9,3,0.3,4.7c-5.1,14.9-12.2,28.6-22.8,40.3
					c-6.6,7.3-13.5,14.3-21.6,20c-4.6,3.2-9.5,6.1-14.3,9.1c-1.4,0.9-2.9,1.6-4.3,2.4c-0.8,0.5-1.6,1.2-2.3,1.8
					c-1.5,1.4-1,3.3,1.1,3.6c3.4,0.5,6.7,1.3,10.1,1.9c8.7,1.6,17.3,3.4,25.8,5.9c7.3,2.2,14.7,4.1,21.9,6.4c9,2.9,18,5.7,26.7,9.2
					c10.6,4.3,20.5,9.8,28.9,17.8c6.1,5.8,11,12.3,13.4,20.5c1.3,4.6,1.2,9.2,0.6,13.9c-0.8,6.9-2.6,13.5-5.9,19.6
					c-4.4,8.2-10.3,15-19,18.8c-5.7,2.5-11.7,3-17.8,3.1c-9,0.1-17.7-1.8-26.1-4.9c-3.5-1.3-7-2.7-10.6-4c-0.3-0.1-0.6-0.3-0.9-0.4
					c-3.2-1-4.8,0.3-4.4,3.6c0.4,3.7,1,7.5,1.5,11.2c1.1,9.5,1.4,19.1,0.3,28.6c-0.4,3.7-1.3,7.4-2,11.1c-0.2,1.2-0.4,2.4-0.5,3.6
					c-0.2,1.9,0.1,2.3,1.9,2.9c0.8,0.3,1.7,0.4,2.6,0.6c9.3,1.7,18.7,2.5,27.7,5.2c12.3,3.6,23.7,9,33.4,17.5
					c9.8,8.5,16.3,19.1,17.8,32.1c2,16.3-2.1,31.1-12.7,44c-8.4,10.1-18.8,17.3-31.4,20.9c-12.2,3.5-24.7,4.2-37,0.2
					c-13.2-4.3-24.8-11.4-34.7-21.1c-5.8-5.6-11.5-11.5-15.6-18.6c-3.7-6.5-7.5-13.1-9.5-20.4c-1.2-4.1-2.1-8.2-3.2-12.4
					c-0.6-2.4-1.2-3-3.7-2.9c-2.2,0.1-4.4,0.3-6.6,0.5c-20.9,2.8-41.9,3.3-62.9,2.5c-6.4-0.2-12.9-1.1-19.3-1.6
					c-1-0.1-2-0.2-2.9-0.2c-2.7,0-4.4,1.2-4.9,3.8c-1,5.3-2.9,10.4-4.8,15.4c-3.9,10.3-9.6,19.5-17,27.6c-8.1,9-17.4,16.4-28.1,21.9
					c-9.1,4.7-18.7,8.1-29.1,7.8c-23.2-0.8-42.1-9.8-55.2-29.6c-6.1-9.2-8.6-19.4-8.9-30.4c-0.3-15.8,6.2-28.3,17.4-38.8
					c9.6-8.9,21-14.7,33.4-18.5c7.5-2.3,15.1-3.6,22.8-5c1.2-0.2,2.4-0.5,3.6-0.9c2.9-1,3.6-2.3,2.9-5.2c-1.5-6.9-2.5-13.9-2.6-20.9
					c-0.1-5.7,0.2-11.4,0.4-17.1c0-1.3,0.2-2.6,0.1-3.9c-0.3-2.5-1.5-3.3-3.9-2.5c-1.2,0.4-2.3,0.9-3.4,1.5
					c-5.3,2.7-10.6,5.2-16.2,6.9c-8.3,2.5-16.7,3.2-25.2,2.1c-6.6-0.8-12.3-4-17.1-8.5c-9.2-8.4-14.6-19-16.9-31.2
					c-1.8-9.4,0.9-18,6-25.9c3.7-5.8,8.2-10.8,13.5-15.2c2.7-2.2,5.4-4.6,8.2-6.7c1.8-1.4,3.9-2.4,5.9-3.6
					c8.9-5.4,18.3-9.8,27.9-13.9c10-4.4,20.1-8.9,30.3-12.8c8.5-3.3,17.4-5.7,26.1-8.6c1.1-0.4,2.2-0.7,3.2-1.2
					c1.6-0.8,1.8-2,0.5-3.4c-0.6-0.6-1.2-1.1-1.9-1.5c-4.8-2.9-9.6-5.6-14.3-8.6c-11.3-7.2-21.3-16.1-29.7-26.5
					c-6.4-8-11.9-16.7-16-26.1c-1.5-3.5-3.2-6.8-5.7-9.7c-1.3-1.5-1.5-3.4-1.3-5.3c0.5-3.2,1.1-6.5,1.5-9.7c0.3-2.5,0.7-5,0.7-7.6
					c0.1-3.1-1-4.2-4.1-4.8c-2-0.4-2.2-0.4-2.2-2.5c0.1-4.1,0.3-8.2,0.7-12.2c0.8-7.1,2.5-14,4.7-20.8c1.1-3.4,2.5-6.8,3.7-10.1
					c0.3-0.9,0.7-1.9,0.9-2.8c0.5-2,0-2.9-1.9-3.6c-1.2-0.4-2.5-0.7-3.8-0.9c-6.2-0.9-12.1-2.9-17.8-5.3c-4.6-1.9-9.1-4.1-13.5-6.4
					c-5.2-2.7-8.7-6.9-11.4-12.1c-4.2-8.1-5.2-16.6-4.3-25.5c1.1-10.4,5.7-19.2,12.7-26.8c10.6-11.6,23.9-18.3,39.3-20.3
					c10.8-1.4,21.6-0.5,31.9,3.2c8.6,3.1,16.1,8,22.3,14.7c3.2,3.4,4.8,7.6,5.4,12.1c0.5,3.2,0.8,6.3,1.2,9.5
					c0.3,2.8,1.1,3.4,3.9,2.7c2.4-0.6,4.7-1.3,7-2.1c12.4-4.5,25-7.7,38-9.5c14.4-2,28.9-2.2,43.3-0.9c4.5,0.4,8.9,1.4,13.3,2.1
					c8.3,1.4,16.5,3.6,24.5,6.3c4.8,1.7,9.4,3.7,14.1,5.7c3.3,1.4,4.9,1,6.6-2.3c0.9-1.7,1.6-3.4,2.3-5.2
					c4.1-9.9,10.8-17.7,19.6-23.7c9.3-6.4,19.5-10.4,30.7-11.5c9.7-1,19.5-0.5,28.8,2.8c8.5,3,16.2,7.5,22.5,14
					c1.4,1.5,2.7,3.1,3.9,4.7c1.8,2.6,2.9,5.5,2.9,8.7c0,7.4,0.3,14.7,0.1,22.1c-0.1,3.5-1,7-1.9,10.3c-1.5,5.6-3.6,11-6.8,16
					c-7.3,11.5-17.8,17.7-31.2,19.2c-2.9,0.3-5.9,0.6-8.8,0.9c-1.1,0.1-2.3,0.2-3.4,0.4c-2.1,0.4-2.6,1.1-2.1,3.2
					c0.3,1.4,0.9,2.8,1.4,4.2c1.6,5,3.4,9.9,4.9,14.9c1.3,4.5,1.9,9.1,1.9,13.8C537.3,269.8,537.2,270.1,537.1,270.7z"/>
			</g>
		</g>
		<path class="st2" d="M215.6,460.2c-1.9,6.9,0,12.9,1.7,18c1.7,5.2,4.7,14.4,13.7,19.8c0.9,0.5,13.5,7.7,21.9,2.2
			c9.3-6.1,6.3-23.2,5.1-29.4c-1.2-6.9-4.9-27.1-18.1-29.3C229.6,439.8,218.5,449.8,215.6,460.2z"/>
		<path class="st2" d="M577.5,480.8c4.7-5.5,5.4-11.7,6-17c0.6-5.4,1.8-15-4.2-23.7c-0.6-0.9-9-12.7-18.9-11.2
			c-11.1,1.7-15.4,18.4-17,24.5c-1.7,6.7-6.9,26.7,4.1,34.2C556.2,493.4,570.5,489,577.5,480.8z"/>
		<path class="st3" d="M370.7,163.6"/>
		<path class="st2" d="M241.8,587.1c-2.5,2.3-10.5,9.9-11.6,22.1c-1.1,11.7,4.9,20.3,8.4,25.3c3.4,4.8,11.4,16.3,26.4,19
			c1.5,0.3,21.2,3.5,31.6-9.5c8.8-11,4.7-25.6,2.1-34.8c-2.5-9-7.4-26.6-23.2-31.6C258.4,572.1,243,586,241.8,587.1z"/>
		<path class="st2" d="M525.8,653.4c3.3,0.9,14,3.7,24.9-1.8c10.6-5.3,14.7-14.9,17.1-20.5c2.3-5.4,7.9-18.2,2.3-32.4
			c-0.6-1.5-8.1-19.9-24.7-21.9c-13.9-1.7-24.3,9.5-30.7,16.5c-6.3,6.9-18.7,20.3-14.7,36.4C504.3,647.1,524.2,653,525.8,653.4z"/>
	</g>
	<g id="Слой_5">
		<path class="st4" d="M407.1,135.2"/>
	</g>
	<g id="Слой_2">
		<ellipse class="st5" cx="400.1" cy="336.6" rx="71.3" ry="43.9"/>
		<path class="st6" d="M375.4,325c2.5-4.6,12.6-6.9,18.1-3.5c3.4,2,4.2,5.6,7.1,5.5c2.9,0,3.6-3.8,7.1-5.5
			c5.2-2.7,14.3,0.6,17.1,5.5c5.2,9.1-10,30.5-24.5,32.2C382.9,361.3,370.6,333.7,375.4,325z"/>
	</g>
	<g id="Слой_7">
		<ellipse class="st2" cx="400.1" cy="502.3" rx="83.8" ry="79.3"/>
	</g>
	<g id="Слой_11">
		<ellipse class="st7" cx="401.9" cy="531.8" rx="45.4" ry="29.5"/>
		<ellipse transform="matrix(0.917 -0.399 0.399 0.917 -164.7546 178.9925)" class="st7" cx="347.6" cy="485.3" rx="8.9" ry="6.5"/>
		<ellipse transform="matrix(0.9933 -0.1153 0.1153 0.9933 -52.1052 47.1933)" class="st7" cx="381.9" cy="474" rx="8.3" ry="6"/>
		
			<ellipse transform="matrix(0.1089 -0.9941 0.9941 0.1089 -97.9383 838.5894)" class="st7" cx="418.8" cy="473.9" rx="6.2" ry="8.6"/>
		<ellipse transform="matrix(0.5 -0.866 0.866 0.5 -193.2383 634.2889)" class="st7" cx="452.7" cy="484.5" rx="6" ry="8.3"/>
	</g>
	<g id="Слой_3">
		<path class="st2" d="M486.7,176.6c-2.1,18.2,15.4,39.4,42.7,41.9c20.8-1.8,36.4-15.6,38.1-31.1c1.8-16.1-12.1-28-14.8-30.3
			c-2.3-1.9-18.5-15.4-38.8-9.3C501.2,151.7,488.3,162.7,486.7,176.6z"/>
		<path class="st2" d="M224.9,176.6c-2.1,18.2,15.4,39.4,42.7,41.9c20.8-1.8,36.4-15.6,38.1-31.1c1.8-16.1-12.1-28-14.8-30.3
			c-2.3-1.9-18.5-15.4-38.8-9.3C239.3,151.7,226.5,162.7,224.9,176.6z"/>
		<circle class="st8" cx="452.7" cy="259.1" r="24.6"/>
	</g>
	<g id="Слой_16">
		<circle class="st9" cx="463.6" cy="251.8" r="4.9"/>
		<circle class="st9" cx="413.8" cy="331.6" r="4.9"/>
		<circle class="st8" cx="343.3" cy="259.1" r="24.6"/>
		<circle class="st9" cx="354.2" cy="251.8" r="4.9"/>
	</g>
</g>
</svg>
