<?xml version="1.0" encoding="UTF-8" standalone="no"?>
<!DOCTYPE svg PUBLIC "-//W3C//DTD SVG 1.1//EN" "http://www.w3.org/Graphics/SVG/1.1/DTD/svg11.dtd">
<svg version="1.1" xmlns="http://www.w3.org/2000/svg" xmlns:xlink="http://www.w3.org/1999/xlink" preserveAspectRatio="xMidYMid meet" viewBox="0 0 640 640" width="640" height="640"><defs><path d="M610.76 87.29C501.18 196.87 200.04 498.01 91.79 606.26C75.8 622.25 49.87 622.25 33.89 606.26C28.19 600.56 36.84 609.21 30.34 602.71C16.55 588.93 16.55 566.58 30.34 552.8C139.39 443.74 443.72 139.41 553.3 29.83C565.62 17.51 585.58 17.51 597.89 29.83C604.93 36.86 603.73 35.66 610.76 42.7C623.08 55.01 623.08 74.97 610.76 87.29Z" id="a1a6I2i8u4"></path><path d="M548.66 608.25C440 499.59 141.51 201.14 32.99 92.62C17.73 77.36 17.73 52.64 32.99 37.38C38.96 31.41 31.36 39.01 37.86 32.51C51.65 18.72 74 18.72 87.78 32.5C196.84 141.55 499.06 443.73 608.11 552.79C621.89 566.57 621.9 588.91 608.11 602.7C601.61 609.2 608.67 602.14 602.57 608.24C587.68 623.13 563.54 623.13 548.66 608.25Z" id="a42gibtmU7"></path></defs><g><g><g><use xlink:href="#a1a6I2i8u4" opacity="1" fill="#000000" fill-opacity="1"></use><g><use xlink:href="#a1a6I2i8u4" opacity="1" fill-opacity="0" stroke="#000000" stroke-width="1" stroke-opacity="0"></use></g></g><g><use xlink:href="#a42gibtmU7" opacity="1" fill="#000000" fill-opacity="1"></use><g><use xlink:href="#a42gibtmU7" opacity="1" fill-opacity="0" stroke="#000000" stroke-width="1" stroke-opacity="0"></use></g></g></g></g></svg>