<?xml version="1.0" encoding="UTF-8" standalone="no"?>
<!DOCTYPE svg PUBLIC "-//W3C//DTD SVG 1.1//EN" "http://www.w3.org/Graphics/SVG/1.1/DTD/svg11.dtd">
<svg version="1.1" xmlns="http://www.w3.org/2000/svg" xmlns:xlink="http://www.w3.org/1999/xlink" preserveAspectRatio="xMidYMid meet" viewBox="0 0 640 640" width="640" height="640"><defs><path d="M616.01 205.54C582.98 236.63 492.35 321.92 459.31 353.03C454.74 357.33 447.47 356.81 443.55 351.91C440.16 347.65 437.25 343.99 433.85 339.74C429.74 334.59 430.27 327.15 435.08 322.64C468.11 291.55 558.74 206.24 591.79 175.15C596.35 170.84 603.63 171.37 607.55 176.27C610.93 180.53 613.85 184.17 617.23 188.43C621.35 193.58 620.81 201.03 616.01 205.54Z" id="a1vrvUVach"></path><path d="M590.16 215.02C578.39 201.47 549.43 168.19 537.66 154.65C534.06 150.49 534.23 144.27 538.08 140.34C542.16 136.16 547.65 130.53 551.74 126.35C555.4 122.59 561.47 122.77 564.91 126.73C576.68 140.26 605.64 173.56 617.41 187.1C621.01 191.25 620.84 197.46 617 201.41C612.91 205.59 607.42 211.2 603.35 215.4C599.69 219.14 593.6 218.98 590.16 215.02Z" id="aAfT0pFmH"></path><path d="M611.84 99.78C608.45 102.95 599.96 110.91 586.38 123.64C581.25 118.16 540.2 74.39 535.07 68.91C550.25 54.67 559.75 45.79 563.54 42.24C568.5 37.58 576.29 37.83 580.94 42.79C589.51 51.94 604.58 68.02 612.6 76.57C618.79 83.18 618.47 93.57 611.84 99.78Z" id="b1CmFb4h2b"></path><path d="M537.47 56.71C551.41 71.64 585.46 108.12 599.36 123.01C603.67 127.63 603.43 134.88 598.81 139.19C502.62 228.95 221.51 491.34 125.1 581.33C120.44 585.68 114.57 588.51 108.26 589.42C102.8 590.22 89.14 592.19 67.29 595.36C46.26 598.39 33.13 600.27 27.87 601.03C23.14 601.71 19.17 597.49 20.15 592.82C21.29 587.26 24.16 573.36 28.75 551.11C34.08 531.25 37.4 518.84 38.72 513.88C40.32 507.93 43.55 502.54 48.06 498.34C144.42 408.39 425.67 145.88 521.78 56.16C526.27 51.99 533.28 52.24 537.47 56.71Z" id="g9rRWjpgCT"></path></defs><g><g><g><g><use xlink:href="#a1vrvUVach" opacity="1" fill="#000000" fill-opacity="1"></use><g><use xlink:href="#a1vrvUVach" opacity="1" fill-opacity="0" stroke="#000000" stroke-width="1" stroke-opacity="0"></use></g></g><g><use xlink:href="#aAfT0pFmH" opacity="1" fill="#000000" fill-opacity="1"></use><g><use xlink:href="#aAfT0pFmH" opacity="1" fill-opacity="0" stroke="#000000" stroke-width="1" stroke-opacity="0"></use></g></g><g><use xlink:href="#b1CmFb4h2b" opacity="1" fill="#000000" fill-opacity="1"></use><g><use xlink:href="#b1CmFb4h2b" opacity="1" fill-opacity="0" stroke="#000000" stroke-width="1" stroke-opacity="0"></use></g></g><g><use xlink:href="#g9rRWjpgCT" opacity="1" fill="#000000" fill-opacity="1"></use><g><use xlink:href="#g9rRWjpgCT" opacity="1" fill-opacity="0" stroke="#000000" stroke-width="1" stroke-opacity="0"></use></g></g></g></g></g></svg>