<?xml version="1.0" encoding="UTF-8" standalone="no"?>
<!DOCTYPE svg PUBLIC "-//W3C//DTD SVG 1.1//EN" "http://www.w3.org/Graphics/SVG/1.1/DTD/svg11.dtd">
<svg version="1.1" xmlns="http://www.w3.org/2000/svg" xmlns:xlink="http://www.w3.org/1999/xlink" preserveAspectRatio="xMidYMid meet" viewBox="0 0 640 640" width="640" height="640"><defs><path d="M110.47 419.08C110.47 434.61 110.47 558.85 110.47 574.38C110.47 588.49 121.45 599.47 135.57 599.47C145.92 599.47 228.75 599.47 239.1 599.47C253.22 599.47 264.2 588.49 264.2 574.38C264.2 559 264.2 436.02 264.2 420.65C264.2 406.53 275.18 395.55 289.29 395.55C295.41 395.55 344.35 395.55 350.47 395.55C364.59 395.55 375.57 406.53 375.57 420.65C375.57 436.02 375.57 559 375.57 574.38C375.57 588.49 386.55 599.47 400.67 599.47C410.39 599.47 488.2 599.47 497.92 599.47C512.04 599.47 523.02 588.49 523.02 574.38C523.02 558.38 523.02 430.38 523.02 414.38C523.02 398.69 516.75 384.57 505.77 373.59C488.82 356.49 353.29 219.71 336.35 202.61C325.37 193.2 309.69 193.2 300.27 202.61C265.77 237.43 144.98 359.32 127.73 376.73C116.75 387.71 110.47 403.39 110.47 419.08ZM408.51 480.26C408.51 476.96 408.51 450.61 408.51 447.32C408.51 433.2 419.49 422.22 433.61 422.22C436.9 422.22 463.26 422.22 466.55 422.22C480.67 422.22 491.65 433.2 491.65 447.32C491.65 450.61 491.65 476.96 491.65 480.26C491.65 494.38 480.67 505.36 466.55 505.36C459.96 505.36 436.9 505.36 433.61 505.36C419.49 505.36 408.51 494.38 408.51 480.26Z" id="b9YxoUzKJz"></path><path d="M110.47 419.08C110.47 434.61 110.47 558.85 110.47 574.38C110.47 588.49 121.45 599.47 135.57 599.47C145.92 599.47 228.75 599.47 239.1 599.47C253.22 599.47 264.2 588.49 264.2 574.38C264.2 559 264.2 436.02 264.2 420.65C264.2 406.53 275.18 395.55 289.29 395.55C295.41 395.55 344.35 395.55 350.47 395.55C364.59 395.55 375.57 406.53 375.57 420.65C375.57 436.02 375.57 559 375.57 574.38C375.57 588.49 386.55 599.47 400.67 599.47C410.39 599.47 488.2 599.47 497.92 599.47C512.04 599.47 523.02 588.49 523.02 574.38C523.02 558.38 523.02 430.38 523.02 414.38C523.02 398.69 516.75 384.57 505.77 373.59C488.82 356.49 353.29 219.71 336.35 202.61C325.37 193.2 309.69 193.2 300.27 202.61C265.77 237.43 144.98 359.32 127.73 376.73C116.75 387.71 110.47 403.39 110.47 419.08ZM408.51 480.26C408.51 476.96 408.51 450.61 408.51 447.32C408.51 433.2 419.49 422.22 433.61 422.22C436.9 422.22 463.26 422.22 466.55 422.22C480.67 422.22 491.65 433.2 491.65 447.32C491.65 450.61 491.65 476.96 491.65 480.26C491.65 494.38 480.67 505.36 466.55 505.36C459.96 505.36 436.9 505.36 433.61 505.36C419.49 505.36 408.51 494.38 408.51 480.26Z" id="b53sIVsGp"></path><path d="M595.13 306.64C605.17 316.62 605.22 332.85 595.23 342.89C589.46 348.7 590.29 347.86 584.53 353.65C574.49 363.75 558.15 363.8 548.05 353.75C492.8 298.82 335.49 142.4 277.78 85.02C274.48 81.74 274.47 76.42 277.74 73.13C285.95 64.87 297.57 53.19 304.01 46.71C312.16 38.51 325.43 38.47 333.63 46.63C389.57 102.24 539.86 251.69 595.13 306.64Z" id="avKdusZ3K"></path><path d="M304.61 46.36C307.97 43.01 313.4 43.01 316.76 46.36C325.16 54.76 344.3 73.9 352.7 82.3C356.06 85.66 356.06 91.09 352.7 94.45C296.8 150.36 148.64 298.53 96.11 351.07C83.44 363.73 62.91 363.74 50.24 351.07C45.21 346.04 49.68 350.51 43.81 344.64C33.47 334.3 33.47 317.53 43.81 307.19C97.18 253.81 248.71 102.27 304.61 46.36Z" id="g38msGMzWH"></path><path d="M335.83 134.17C335.83 142.91 328.74 134.17 320 134.17C311.26 134.17 304.17 142.91 304.17 134.17C304.17 125.43 311.26 118.34 320 118.34C328.74 118.34 335.83 125.43 335.83 134.17Z" id="b1wm0TukEL"></path></defs><g><g><g><g><use xlink:href="#b9YxoUzKJz" opacity="1" fill="#000000" fill-opacity="1"></use><g><use xlink:href="#b9YxoUzKJz" opacity="1" fill-opacity="0" stroke="#000000" stroke-width="1" stroke-opacity="0"></use></g></g><g><use xlink:href="#b53sIVsGp" opacity="1" fill="#000000" fill-opacity="0"></use><g><use xlink:href="#b53sIVsGp" opacity="1" fill-opacity="0" stroke="#000000" stroke-width="1" stroke-opacity="0"></use></g></g><g><use xlink:href="#avKdusZ3K" opacity="1" fill="#000000" fill-opacity="1"></use></g><g><use xlink:href="#g38msGMzWH" opacity="1" fill="#000000" fill-opacity="1"></use></g></g><g><use xlink:href="#b1wm0TukEL" opacity="1" fill="#000000" fill-opacity="1"></use></g></g></g></svg>