<?xml version="1.0" encoding="UTF-8" standalone="no"?>
<!DOCTYPE svg PUBLIC "-//W3C//DTD SVG 1.1//EN" "http://www.w3.org/Graphics/SVG/1.1/DTD/svg11.dtd">
<svg version="1.1" xmlns="http://www.w3.org/2000/svg" xmlns:xlink="http://www.w3.org/1999/xlink" preserveAspectRatio="xMidYMid meet" viewBox="0 0 640 640" width="640" height="640"><defs><path d="M78.91 472.49C78.91 482.37 78.91 493.93 78.91 503.04C78.91 513.45 70.47 521.9 60.05 521.9C50.83 521.9 41.26 521.9 31.85 521.9C21.97 521.9 13.95 513.89 13.95 504.01C13.95 494.7 13.95 483.14 13.95 473.45C13.95 464.63 21.11 457.48 29.92 457.48C39.72 457.48 53.91 457.48 63.91 457.48C72.19 457.48 78.91 464.2 78.91 472.49Z" id="b6b0rla1pY"></path><path d="M78.91 295.89C78.91 305.78 78.91 317.34 78.91 326.45C78.91 336.86 70.47 345.31 60.05 345.31C50.83 345.31 41.26 345.31 31.85 345.31C21.97 345.31 13.95 337.3 13.95 327.41C13.95 318.11 13.95 306.55 13.95 296.86C13.95 288.04 21.11 280.89 29.92 280.89C39.72 280.89 53.91 280.89 63.91 280.89C72.19 280.89 78.91 287.61 78.91 295.89Z" id="cp6QLoEHK"></path><path d="M78.91 106.88C78.91 116.77 78.91 128.33 78.91 137.44C78.91 147.85 70.47 156.3 60.05 156.3C50.83 156.3 41.26 156.3 31.85 156.3C21.97 156.3 13.95 148.29 13.95 138.4C13.95 129.1 13.95 117.54 13.95 107.85C13.95 99.03 21.11 91.88 29.92 91.88C39.72 91.88 53.91 91.88 63.91 91.88C72.19 91.88 78.91 98.6 78.91 106.88Z" id="c71C2lYGi"></path><path d="M604.25 457.48C615.06 457.48 623.83 466.25 623.83 477.06C623.83 486.03 623.83 491.49 623.83 500C623.83 512.09 614.02 521.9 601.93 521.9C510.57 521.9 256.54 521.9 164.72 521.9C153.91 521.9 145.14 513.13 145.14 502.32C145.14 493.35 145.14 487.33 145.14 478.68C145.14 466.97 154.63 457.48 166.34 457.48C257.84 457.48 512.43 457.48 604.25 457.48Z" id="e8o2dZrsYH"></path><path d="M604.25 280.89C615.06 280.89 623.83 289.66 623.83 300.47C623.83 309.44 623.83 314.9 623.83 323.41C623.83 335.5 614.02 345.31 601.93 345.31C510.57 345.31 256.54 345.31 164.72 345.31C153.91 345.31 145.14 336.54 145.14 325.73C145.14 316.76 145.14 310.73 145.14 302.09C145.14 290.38 154.63 280.89 166.34 280.89C257.84 280.89 512.43 280.89 604.25 280.89Z" id="c4P9nGQ3J5"></path><path d="M604.25 91.88C615.06 91.88 623.83 100.65 623.83 111.46C623.83 120.43 623.83 125.89 623.83 134.4C623.83 146.49 614.02 156.3 601.93 156.3C510.57 156.3 256.54 156.3 164.72 156.3C153.91 156.3 145.14 147.53 145.14 136.72C145.14 127.75 145.14 121.72 145.14 113.08C145.14 101.37 154.63 91.88 166.34 91.88C257.84 91.88 512.43 91.88 604.25 91.88Z" id="i2E9MN2CfV"></path></defs><g><g><g><use xlink:href="#b6b0rla1pY" opacity="1" fill="#000000" fill-opacity="1"></use><g><use xlink:href="#b6b0rla1pY" opacity="1" fill-opacity="0" stroke="#000000" stroke-width="1" stroke-opacity="0"></use></g></g><g><use xlink:href="#cp6QLoEHK" opacity="1" fill="#000000" fill-opacity="1"></use><g><use xlink:href="#cp6QLoEHK" opacity="1" fill-opacity="0" stroke="#000000" stroke-width="1" stroke-opacity="0"></use></g></g><g><use xlink:href="#c71C2lYGi" opacity="1" fill="#000000" fill-opacity="1"></use><g><use xlink:href="#c71C2lYGi" opacity="1" fill-opacity="0" stroke="#000000" stroke-width="1" stroke-opacity="0"></use></g></g><g><use xlink:href="#e8o2dZrsYH" opacity="1" fill="#000000" fill-opacity="1"></use></g><g><use xlink:href="#c4P9nGQ3J5" opacity="1" fill="#000000" fill-opacity="1"></use></g><g><use xlink:href="#i2E9MN2CfV" opacity="1" fill="#000000" fill-opacity="1"></use></g></g></g></svg>