<?xml version="1.0" encoding="UTF-8" standalone="no"?>
<!DOCTYPE svg PUBLIC "-//W3C//DTD SVG 1.1//EN" "http://www.w3.org/Graphics/SVG/1.1/DTD/svg11.dtd">
<svg version="1.1" xmlns="http://www.w3.org/2000/svg" xmlns:xlink="http://www.w3.org/1999/xlink" preserveAspectRatio="xMidYMid meet" viewBox="0 0 640 640" width="640" height="640"><defs><path d="M469.46 37.39L471.67 37.56L473.85 37.82L476.01 38.16L478.14 38.59L480.26 39.11L482.33 39.7L484.39 40.37L486.41 41.11L488.4 41.93L490.34 42.83L492.24 43.8L494.11 44.84L495.94 45.95L497.72 47.12L499.45 48.38L501.13 49.68L502.77 51.06L504.35 52.49L505.88 53.99L507.35 55.54L508.76 57.16L510.11 58.83L511.39 60.56L512.62 62.33L513.77 64.16L514.86 66.05L515.88 67.97L516.82 69.95L517.68 71.97L518.47 74.03L519.18 76.14L519.81 78.29L520.36 80.47L520.82 82.7L521.19 84.96L580.12 493.03L580.43 495.49L580.63 497.92L580.73 500.34L580.74 502.76L580.65 505.14L580.46 507.51L580.18 509.86L579.81 512.19L579.35 514.48L578.8 516.75L578.16 518.99L577.44 521.2L576.64 523.36L575.76 525.5L574.8 527.59L573.75 529.65L572.64 531.65L571.44 533.62L570.18 535.53L568.83 537.39L567.42 539.21L565.95 540.96L564.4 542.67L562.78 544.31L561.11 545.89L559.38 547.41L557.58 548.86L555.73 550.25L553.82 551.55L551.85 552.8L549.83 553.97L547.76 555.06L545.63 556.07L543.46 557L541.24 557.86L538.97 558.62L536.66 559.3L534.31 559.88L531.91 560.38L529.48 560.78L243.33 602.1L240.99 602.39L238.67 602.58L236.36 602.68L234.06 602.69L231.79 602.6L229.53 602.42L227.29 602.15L225.08 601.81L222.88 601.37L220.72 600.84L218.59 600.24L216.49 599.55L214.42 598.79L212.38 597.94L210.38 597.03L208.43 596.03L206.52 594.96L204.65 593.83L202.81 592.61L201.04 591.33L199.31 590L197.63 588.58L196.02 587.11L194.45 585.58L192.95 583.99L191.5 582.33L190.12 580.62L188.79 578.85L187.54 577.03L186.36 575.15L185.24 573.23L184.21 571.24L183.24 569.22L182.35 567.15L181.54 565.03L180.82 562.87L180.17 560.67L179.61 558.43L179.14 556.14L178.75 553.84L119.62 144.36L119.34 142.04L119.14 139.71L119.04 137.4L119.04 135.11L119.13 132.84L119.31 130.58L119.57 128.34L119.93 126.12L120.36 123.93L120.88 121.77L121.48 119.63L122.17 117.53L122.94 115.46L123.78 113.43L124.71 111.43L125.7 109.48L126.76 107.56L127.9 105.69L129.11 103.86L130.39 102.09L131.73 100.36L133.14 98.68L134.61 97.06L136.15 95.5L137.74 93.99L139.4 92.54L141.11 91.16L142.88 89.84L144.7 88.59L146.58 87.41L148.5 86.29L150.48 85.25L152.5 84.29L154.58 83.4L156.69 82.59L158.85 81.85L161.05 81.21L163.29 80.66L165.58 80.19L167.9 79.8L458.21 37.88L460.49 37.59L462.75 37.4L465.01 37.31L467.24 37.31L469.46 37.39ZM435.09 352.92L434.13 352.84L432.43 352.77L430.72 352.76L428.99 352.82L427.26 352.96L425.52 353.16L423.78 353.44L422.05 353.79L420.35 354.2L418.68 354.68L417.04 355.22L415.44 355.83L413.87 356.49L412.34 357.21L410.84 357.99L409.38 358.82L407.97 359.71L406.59 360.65L405.25 361.64L403.96 362.67L402.71 363.76L401.5 364.89L400.34 366.06L399.23 367.28L398.16 368.53L397.15 369.83L396.18 371.16L395.27 372.53L394.41 373.94L393.6 375.37L392.85 376.84L392.16 378.33L391.52 379.86L390.94 381.41L390.41 382.98L389.95 384.58L389.55 386.2L389.22 387.84L388.94 389.49L388.73 391.17L388.59 392.86L388.52 394.56L388.51 396.27L388.57 397.99L388.71 399.72L388.91 401.46L389.19 403.21L389.54 404.94L389.95 406.64L390.43 408.31L390.97 409.95L391.57 411.55L392.24 413.12L392.96 414.65L393.74 416.15L394.57 417.6L395.46 419.02L396.4 420.4L397.39 421.74L398.42 423.03L399.51 424.28L400.64 425.49L401.81 426.65L403.03 427.76L404.28 428.82L405.58 429.84L406.91 430.8L408.28 431.72L409.68 432.58L411.12 433.38L412.59 434.14L414.08 434.83L415.61 435.47L417.16 436.05L418.73 436.57L420.33 437.04L421.95 437.43L423.59 437.77L425.24 438.04L426.92 438.25L428.6 438.4L430.31 438.47L432.02 438.48L433.74 438.41L435.47 438.28L437.21 438.08L438.96 437.8L440.69 437.45L442.39 437.04L444.06 436.56L445.7 436.02L447.3 435.41L448.87 434.75L450.4 434.03L451.9 433.25L453.35 432.42L454.77 431.53L456.15 430.59L457.49 429.6L458.78 428.57L460.03 427.48L461.24 426.35L462.4 425.18L463.51 423.96L464.57 422.7L465.59 421.41L466.55 420.07L467.47 418.71L468.33 417.3L469.13 415.87L469.89 414.4L470.58 412.9L471.22 411.38L471.8 409.83L472.32 408.26L472.78 406.66L473.18 405.04L473.52 403.4L473.79 401.74L474 400.07L474.14 398.38L474.22 396.68L474.23 394.97L474.16 393.25L474.03 391.51L473.83 389.78L473.55 388.03L473.55 388.03L444.27 225.28L444.35 225.27L433.61 165.6L242.17 200.03L245.1 216.33L245.03 216.34L274.74 381.51L273.78 381.43L272.08 381.36L270.37 381.35L268.64 381.41L266.91 381.55L265.17 381.75L263.43 382.03L261.7 382.38L260 382.79L258.33 383.27L256.69 383.81L255.09 384.41L253.52 385.08L251.99 385.8L250.49 386.58L249.03 387.41L247.61 388.3L246.24 389.24L244.9 390.22L243.61 391.26L242.36 392.35L241.15 393.48L239.99 394.65L238.88 395.87L237.81 397.12L236.8 398.42L235.83 399.75L234.92 401.12L234.06 402.52L233.25 403.96L232.5 405.43L231.8 406.92L231.17 408.45L230.58 410L230.06 411.57L229.6 413.17L229.2 414.79L228.87 416.43L228.59 418.08L228.38 419.76L228.24 421.44L228.17 423.15L228.16 424.86L228.22 426.58L228.36 428.31L228.56 430.05L228.84 431.8L229.19 433.53L229.6 435.23L230.08 436.9L230.62 438.53L231.22 440.14L231.89 441.71L232.61 443.24L233.39 444.73L234.22 446.19L235.11 447.61L236.05 448.99L237.03 450.33L238.07 451.62L239.16 452.87L240.29 454.08L241.46 455.24L242.68 456.35L243.93 457.41L245.23 458.43L246.56 459.39L247.93 460.31L249.33 461.17L250.77 461.97L252.24 462.73L253.73 463.42L255.26 464.06L256.81 464.64L258.38 465.16L259.98 465.62L261.6 466.02L263.24 466.36L264.89 466.63L266.57 466.84L268.25 466.98L269.96 467.06L271.67 467.07L273.39 467L275.12 466.87L276.86 466.67L278.61 466.39L280.34 466.04L282.04 465.63L283.71 465.15L285.34 464.61L286.95 464L288.52 463.34L290.05 462.62L291.54 461.84L293 461.01L294.42 460.12L295.8 459.18L297.14 458.19L298.43 457.15L299.68 456.07L300.89 454.94L302.05 453.77L303.16 452.55L304.22 451.29L305.24 450L306.2 448.66L307.12 447.29L307.98 445.89L308.78 444.46L309.54 442.99L310.23 441.49L310.87 439.97L311.45 438.42L311.97 436.84L312.43 435.25L312.83 433.63L313.17 431.99L313.44 430.33L313.65 428.66L313.79 426.97L313.87 425.27L313.88 423.56L313.81 421.83L313.68 420.1L313.48 418.36L313.2 416.62L283.97 254.12L413.14 230.88L435.09 352.92Z" id="bKaSUUJJD"></path><path d="M101.75 163.5L102.78 170.66L103.89 178.36L105.08 186.55L106.33 195.21L107.64 204.3L109.01 213.81L110.44 223.7L111.92 233.93L113.44 244.49L115.01 255.34L116.62 266.46L118.25 277.81L119.92 289.36L121.62 301.09L123.33 312.97L125.06 324.96L126.81 337.04L128.56 349.18L130.32 361.34L132.08 373.51L133.83 385.65L135.57 397.73L137.3 409.72L139.02 421.59L140.71 433.32L142.38 444.88L144.02 456.23L145.63 467.34L147.19 478.19L148.72 488.75L150.2 498.99L151.62 508.87L153 518.38L154.31 527.48L155.56 536.14L156.74 544.33L157.85 552.02L158.89 559.19L159.84 565.8L159.91 566.33L159.95 566.85L159.97 567.37L159.98 567.88L159.96 568.39L159.92 568.9L159.86 569.4L159.78 569.9L159.68 570.39L159.56 570.88L159.43 571.36L159.27 571.83L159.1 572.29L158.91 572.75L158.7 573.2L158.48 573.64L158.24 574.07L157.99 574.49L157.71 574.9L157.43 575.3L157.13 575.69L156.81 576.07L156.48 576.43L156.13 576.78L155.78 577.12L155.4 577.45L155.02 577.76L154.62 578.05L154.21 578.33L153.79 578.6L153.36 578.85L152.91 579.09L152.46 579.3L151.99 579.5L151.52 579.68L151.03 579.85L150.54 579.99L150.03 580.12L149.52 580.22L149 580.31L148.57 580.37L148.14 580.43L147.72 580.49L147.31 580.55L146.89 580.61L146.49 580.67L146.08 580.73L145.68 580.79L145.27 580.85L144.88 580.91L144.48 580.96L144.09 581.02L143.69 581.08L143.3 581.13L142.91 581.19L142.52 581.25L142.14 581.3L141.75 581.36L141.36 581.41L140.98 581.47L140.59 581.53L140.2 581.58L139.82 581.64L139.43 581.69L139.04 581.75L138.65 581.81L138.26 581.86L137.87 581.92L137.47 581.98L137.07 582.03L136.68 582.09L136.28 582.15L135.87 582.21L135.47 582.27L135.06 582.32L134.64 582.38L134.23 582.44L133.81 582.5L133.38 582.57L132.95 582.63L132.43 582.69L131.91 582.74L131.39 582.76L130.87 582.76L130.36 582.74L129.85 582.7L129.35 582.64L128.85 582.56L128.36 582.46L127.87 582.34L127.39 582.21L126.92 582.05L126.46 581.88L126 581.69L125.55 581.49L125.11 581.26L124.68 581.02L124.26 580.77L123.85 580.49L123.45 580.21L123.06 579.91L122.69 579.59L122.32 579.26L121.97 578.91L121.63 578.55L121.31 578.18L121 577.8L120.7 577.4L120.42 576.99L120.15 576.57L119.9 576.14L119.67 575.69L119.45 575.24L119.25 574.77L119.07 574.3L118.91 573.81L118.76 573.32L118.64 572.81L118.53 572.3L118.44 571.78L117.49 565.17L116.45 558L115.34 550.31L114.16 542.12L112.91 533.46L111.6 524.36L110.22 514.85L108.8 504.97L107.32 494.73L105.79 484.17L104.22 473.32L102.62 462.2L100.98 450.86L99.31 439.3L97.62 427.57L95.9 415.7L94.17 403.71L92.43 391.63L90.67 379.49L88.92 367.32L87.16 355.15L85.41 343.02L83.66 330.94L81.93 318.94L80.22 307.07L78.52 295.34L76.85 283.79L75.22 272.44L73.61 261.32L72.04 250.47L70.52 239.91L69.04 229.68L67.61 219.79L66.24 210.28L64.93 201.18L63.67 192.53L62.49 184.34L61.38 176.64L60.35 169.47L59.39 162.86L59.33 162.34L59.28 161.82L59.26 161.3L59.26 160.78L59.28 160.27L59.32 159.76L59.38 159.26L59.46 158.76L59.56 158.27L59.67 157.79L59.81 157.31L59.96 156.83L60.14 156.37L60.33 155.91L60.53 155.46L60.75 155.02L60.99 154.59L61.25 154.17L61.52 153.76L61.81 153.36L62.11 152.97L62.43 152.6L62.76 152.23L63.1 151.88L63.46 151.54L63.83 151.22L64.22 150.91L64.61 150.61L65.02 150.33L65.45 150.06L65.88 149.81L66.32 149.58L66.78 149.36L67.24 149.16L67.72 148.98L68.2 148.82L68.7 148.67L69.2 148.55L69.72 148.44L70.24 148.35L70.67 148.29L71.09 148.23L71.51 148.17L71.93 148.11L72.34 148.05L72.75 147.99L73.16 147.93L73.56 147.87L73.96 147.82L74.36 147.76L74.76 147.7L75.15 147.64L75.54 147.59L75.93 147.53L76.32 147.47L76.71 147.42L77.1 147.36L77.49 147.31L77.87 147.25L78.26 147.19L78.65 147.14L79.03 147.08L79.42 147.03L79.81 146.97L80.2 146.91L80.59 146.86L80.98 146.8L81.37 146.75L81.76 146.69L82.16 146.63L82.56 146.57L82.96 146.52L83.36 146.46L83.77 146.4L84.18 146.34L84.59 146.28L85.01 146.22L85.43 146.16L85.85 146.1L86.28 146.04L86.81 145.97L87.33 145.93L87.85 145.91L88.36 145.9L88.88 145.92L89.38 145.96L89.89 146.02L90.38 146.1L90.88 146.2L91.36 146.32L91.84 146.46L92.32 146.61L92.78 146.78L93.24 146.97L93.69 147.18L94.13 147.4L94.56 147.64L94.98 147.9L95.39 148.17L95.79 148.46L96.17 148.76L96.55 149.07L96.91 149.41L97.27 149.75L97.6 150.11L97.93 150.48L98.24 150.87L98.54 151.26L98.82 151.67L99.08 152.09L99.33 152.53L99.57 152.97L99.78 153.43L99.98 153.89L100.17 154.37L100.33 154.85L100.47 155.35L100.6 155.85L100.71 156.36L100.79 156.88L100.79 156.88L101.75 163.5Z" id="b2xv6Htg5u"></path></defs><g><g><g><g><use xlink:href="#bKaSUUJJD" opacity="1" fill="#000000" fill-opacity="1"></use><g><use xlink:href="#bKaSUUJJD" opacity="1" fill-opacity="0" stroke="#000000" stroke-width="1" stroke-opacity="0"></use></g></g><g><use xlink:href="#b2xv6Htg5u" opacity="1" fill="#000000" fill-opacity="1"></use><g><use xlink:href="#b2xv6Htg5u" opacity="1" fill-opacity="0" stroke="#000000" stroke-width="1" stroke-opacity="0"></use></g></g></g></g></g></svg>