<?xml version="1.0" encoding="UTF-8" standalone="no"?>
<!DOCTYPE svg PUBLIC "-//W3C//DTD SVG 1.1//EN" "http://www.w3.org/Graphics/SVG/1.1/DTD/svg11.dtd">
<svg version="1.1" xmlns="http://www.w3.org/2000/svg" xmlns:xlink="http://www.w3.org/1999/xlink" preserveAspectRatio="xMidYMid meet" viewBox="0 0 640 640" width="640" height="640"><defs><path d="M512.84 142.09C512.84 364.97 512.84 504.28 512.84 560C512.84 593.15 485.32 620 451.38 620C386.53 620 249.18 620 183.26 620C152.28 620 127.16 595.49 127.16 565.24C127.16 508.82 127.16 367.77 127.16 142.09C204.3 142.09 474.27 142.09 512.84 142.09Z" id="b8M28MuFX"></path><path d="M405.57 60.5C405.57 69.81 405.57 69.58 405.57 81.98C405.57 95.85 396.46 107.08 385.24 107.08C355.07 107.08 284.92 107.08 254.76 107.08C243.54 107.08 234.43 95.85 234.43 81.98C234.43 69.58 234.43 69.1 234.43 59.59C234.43 37.73 248.78 20 266.5 20C294.31 20 345.1 20 372.77 20C390.88 20 405.57 38.13 405.57 60.5Z" id="j1IuI1rWr"></path><path d="M497.33 48.29C514.01 48.29 527.53 61.81 527.53 78.49C527.53 86.5 527.53 83.61 527.53 92.44C527.53 106.87 515.83 118.57 501.39 118.57C423.61 118.57 216.39 118.57 138.61 118.57C124.17 118.57 112.48 106.87 112.48 92.44C112.48 83.61 112.48 85.85 112.48 77.67C112.48 61.45 125.63 48.29 141.86 48.29C218.99 48.29 420.36 48.29 497.33 48.29Z" id="a36g6Rx8QX"></path></defs><g><g><g><use xlink:href="#b8M28MuFX" opacity="1" fill="#000000" fill-opacity="1"></use><g><use xlink:href="#b8M28MuFX" opacity="1" fill-opacity="0" stroke="#000000" stroke-width="1" stroke-opacity="0"></use></g></g><g><use xlink:href="#j1IuI1rWr" opacity="1" fill="#000000" fill-opacity="1"></use><g><use xlink:href="#j1IuI1rWr" opacity="1" fill-opacity="0" stroke="#000000" stroke-width="1" stroke-opacity="0"></use></g></g><g><use xlink:href="#a36g6Rx8QX" opacity="1" fill="#000000" fill-opacity="1"></use></g></g></g></svg>