<?xml version="1.0" encoding="UTF-8" standalone="no"?>
<!DOCTYPE svg PUBLIC "-//W3C//DTD SVG 1.1//EN" "http://www.w3.org/Graphics/SVG/1.1/DTD/svg11.dtd">
<svg version="1.1" xmlns="http://www.w3.org/2000/svg" xmlns:xlink="http://www.w3.org/1999/xlink" preserveAspectRatio="xMidYMid meet" viewBox="0 0 640 640" width="640" height="640"><defs><path d="M360.81 360.49C361.99 359.01 371.43 347.13 372.62 345.65C378.31 338.27 392.07 333.58 405.54 341.06C423.36 351.13 446.4 366.95 462.19 381.69C470.89 389.02 472.92 399.82 466.99 411.24C466.99 411.26 466.94 411.45 466.94 411.48C460.82 422.23 452.68 432.33 442.37 441.74C442.35 441.76 442.16 441.88 442.13 441.9C430.53 451.57 417.19 457.19 402.93 452.55C402.91 452.51 402.69 452.22 402.67 452.18C377.04 444.93 315.57 413.59 276.39 382.35C212.31 331.78 166.75 248.37 154.15 203.66C154.11 203.64 153.8 203.43 153.76 203.4C149.12 189.09 154.79 175.75 164.41 164.17C164.43 164.15 164.57 163.98 164.59 163.96C174 153.65 184.07 145.48 194.86 139.39C194.88 139.39 195.07 139.35 195.09 139.34C206.48 133.41 217.29 135.41 224.65 144.14C234.32 154.13 252.48 178.17 265.24 200.79C272.73 214.23 268.04 228.02 260.68 233.69C259.2 234.87 247.3 244.32 245.81 245.5C238.33 251.56 239.3 262.82 239.3 262.82C239.3 262.82 261.29 346.02 343.51 367C343.51 367 354.77 368.01 360.81 360.49ZM464.86 290.08C464.49 241.84 449.99 203.4 421.78 175.88C393.52 148.33 357.8 134.2 315.62 133.91C311.19 133.88 307.63 130.27 307.69 125.84C307.71 121.44 311.27 117.91 315.67 117.91C315.68 117.91 315.72 117.91 315.73 117.91C362.18 118.22 401.61 133.88 432.96 164.41C464.33 195.04 480.46 237.3 480.86 289.97C480.88 294.38 477.35 297.99 472.92 298.04C472.92 298.04 472.9 298.04 472.87 298.04C467.54 295.67 464.87 293.01 464.86 290.08ZM430.64 281.59C426.21 281.48 422.7 277.82 422.81 273.42C423.44 246.05 415.61 223.91 398.92 205.69C382.32 187.53 359.51 177.62 329.2 175.4C324.79 175.06 321.47 171.24 321.79 166.84C322.13 162.43 325.95 159.11 330.36 159.43C364.47 161.93 391.52 173.87 410.73 194.89C430.06 215.97 439.52 242.52 438.81 273.76C438.7 278.11 435.15 281.59 430.82 281.59C430.79 281.59 430.66 281.59 430.64 281.59ZM381.76 260.21C380.42 233.06 367.61 219.77 341.51 218.35C337.08 218.11 333.7 214.34 333.94 209.94C334.18 205.51 337.92 202.13 342.35 202.37C376.83 204.22 395.97 223.96 397.74 259.42C397.98 263.82 394.57 267.59 390.15 267.8C390.12 267.8 389.99 267.81 389.75 267.83C384.57 265.61 381.9 263.08 381.76 260.21ZM442.13 501.53C434.75 503.9 366.16 520.96 279.95 515.34C279.95 515.34 215.68 592.85 195.62 613.01C192.48 616.15 188.82 617.42 186.34 616.84C182.89 615.99 181.94 611.88 181.99 605.92C182.03 598.86 182.2 563.57 182.52 500.05C182.52 500.04 182.52 500.03 182.52 500.03C56.98 465.15 64.29 334.08 65.71 265.46C67.13 196.84 80.02 140.61 118.33 102.8C187.13 40.48 328.88 49.79 328.88 49.79C448.59 50.32 505.95 86.35 519.27 98.43C563.42 136.23 585.91 226.73 569.46 359.28C553.51 487.85 459.48 495.97 442.13 501.53ZM331.49 5.1C331.49 5.1 164.62 -4.97 83.27 69.69C37.98 114.98 22.05 181.23 20.37 263.4C18.71 345.6 16.52 499.55 164.94 541.31C164.95 541.31 165 541.33 165.09 541.36C165.03 579.58 165 600.81 164.99 605.05C164.99 605.05 164.07 630.86 181.04 636.13C201.58 642.49 213.63 622.9 233.27 601.76C244.02 590.16 258.86 573.13 270.09 560.11C371.61 568.59 449.67 549.11 458.56 546.24C479.04 539.57 595.03 524.73 613.91 370.75C633.36 211.99 604.47 111.61 552.27 66.32C536.53 51.87 473 5.74 331.49 5.1Z" id="a3YHsUIZ3H"></path></defs><g><g><g><use xlink:href="#a3YHsUIZ3H" opacity="1" fill="#000000" fill-opacity="1"></use><g><use xlink:href="#a3YHsUIZ3H" opacity="1" fill-opacity="0" stroke="#000000" stroke-width="1" stroke-opacity="0"></use></g></g></g></g></svg>